<?xml version="1.0" encoding="iso-8859-1"?>
<!-- Generator: Adobe Illustrator 19.0.0, SVG Export Plug-In . SVG Version: 6.00 Build 0)  -->
<svg version="1.1" id="Capa_1" xmlns="http://www.w3.org/2000/svg" xmlns:xlink="http://www.w3.org/1999/xlink" x="0px" y="0px"
	 viewBox="0 0 512 512" style="enable-background:new 0 0 512 512;" xml:space="preserve">
<path style="fill:#A2DAF9;" d="M160,455L160,455c0,13.807-11.193,25-25,25h-30c-13.807,0-25-11.193-25-25l0,0
	c0-13.807,11.193-25,25-25v-40h30v40C148.807,430,160,441.193,160,455z"/>
<path style="fill:#70B5E8;" d="M147.5,390c0,4.143-3.357,7.5-7.5,7.5h-40c-4.143,0-7.5-3.357-7.5-7.5s3.357-7.5,7.5-7.5h40
	C144.143,382.5,147.5,385.857,147.5,390z"/>
<path style="fill:#FFDC64;" d="M150,85v150c0,2.761-2.239,5-5,5h-30c-2.761,0-5-2.239-5-5c0,2.761-2.239,5-5,5H75
	c-2.761,0-5-2.239-5-5V85c0-2.761,2.239-5,5-5h30c2.761,0,5,2.239,5,5c0-2.761,2.239-5,5-5h30C147.761,80,150,82.239,150,85z"/>
<path style="fill:#A0D755;" d="M507,256H261c-2.761,0-5,2.239-5,5c0-2.761-2.239-5-5-5c2.761,0,5-2.239,5-5V5c0-2.761-2.239-5-5-5H5
	C2.239,0,0,2.239,0,5v246c0,2.761,2.239,5,5,5c-2.761,0-5,2.239-5,5v246c0,2.761,2.239,5,5,5h246c2.761,0,5-2.239,5-5
	c0,2.761,2.239,5,5,5h246c2.762,0,5-2.239,5-5V261C512,258.239,509.762,256,507,256z M34,39c0-2.761,2.239-5,5-5h178
	c2.761,0,5,2.239,5,5v178c0,2.761-2.239,5-5,5H39c-2.761,0-5-2.239-5-5V39z M222,473c0,2.761-2.239,5-5,5H39c-2.761,0-5-2.239-5-5
	V295c0-2.761,2.239-5,5-5h178c2.761,0,5,2.239,5,5V473z M478,473c0,2.761-2.238,5-5,5H295c-2.761,0-5-2.239-5-5V295
	c0-2.761,2.239-5,5-5h178c2.762,0,5,2.239,5,5V473z"/>
<path style="fill:#94C449;" d="M256,261v246c0,2.761-2.239,5-5,5h-33.999c2.761,0,5-2.239,5-5V261c0-2.761-2.239-5-5-5H251
	C253.761,256,256,258.239,256,261z"/>
<path style="fill:#B4E66E;" d="M110,75v150c0,2.761-2.239,5-5,5H75c-2.761,0-5-2.239-5-5V75c0-2.761,2.239-5,5-5h30
	C107.761,70,110,72.239,110,75z"/>
<path style="fill:#70B5E8;" d="M105,190h80c2.761,0,5,2.239,5,5v40c0,2.761-2.239,5-5,5h-80c-2.761,0-5-2.239-5-5v-40
	C100,192.239,102.239,190,105,190z"/>
<path style="fill:#B4E66E;" d="M440,181.429c0,14.202-11.513,25.714-25.714,25.714c-7.691,0-14.573-3.394-19.286-8.745
	c-4.712,5.351-11.595,8.745-19.286,8.745c-14.202,0-25.714-11.513-25.714-25.714c0-11.993,8.222-22.038,19.328-24.882
	c-0.009-0.279-0.042-0.551-0.042-0.832C369.286,141.513,380.798,130,395,130s25.714,11.513,25.714,25.714
	c0,0.281-0.033,0.553-0.042,0.832C431.778,159.39,440,169.436,440,181.429z"/>
<path style="fill:#A0D755;" d="M440,181.429c0,13.416-10.276,24.427-23.385,25.604c2.15-3.758,3.385-8.107,3.385-12.747
	c0-11.993-8.222-22.038-19.328-24.882c0.009-0.278,0.042-0.551,0.042-0.832c0-14.202-11.513-25.714-25.714-25.714
	c-0.786,0-1.561,0.041-2.329,0.11C377.102,135.223,385.438,130,395,130c14.202,0,25.714,11.513,25.714,25.714
	c0,0.281-0.033,0.553-0.042,0.832C431.778,159.391,440,169.436,440,181.429z"/>
<path style="fill:#AFB9D2;" d="M433.447,203.356l-12.5,50c-0.556,2.226-2.556,3.787-4.851,3.787h-42.192
	c-2.294,0-4.294-1.561-4.851-3.787l-12.5-50c-0.789-3.156,1.598-6.213,4.851-6.213h67.192
	C431.849,197.143,434.236,200.2,433.447,203.356z"/>
<path style="fill:#FF5050;" d="M507,256H261c-2.761,0-5,2.239-5,5v246c0,2.761,2.239,5,5,5h246c2.761,0,5-2.239,5-5V261
	C512,258.239,509.761,256,507,256z M478,473c0,2.761-2.239,5-5,5H295c-2.761,0-5-2.239-5-5V295c0-2.761,2.239-5,5-5h178
	c2.761,0,5,2.239,5,5V473z"/>
<path style="fill:#E95050;" d="M512,261v246c0,2.761-2.239,5-5,5h-33.999c2.761,0,5-2.239,5-5V261c0-2.761-2.239-5-5-5H507
	C509.761,256,512,258.239,512,261z"/>
<path style="fill:#D3754F;" d="M251,0H5C2.239,0,0,2.239,0,5v246c0,2.761,2.239,5,5,5h246c2.761,0,5-2.239,5-5V5
	C256,2.239,253.761,0,251,0z M222,217c0,2.761-2.239,5-5,5H39c-2.761,0-5-2.239-5-5V39c0-2.761,2.239-5,5-5h178c2.761,0,5,2.239,5,5
	V217z"/>
<path style="fill:#B16F52;" d="M256,5v246c0,2.761-2.239,5-5,5h-33.999c2.761,0,5-2.239,5-5V5c0-2.761-2.239-5-5-5H251
	C253.761,0,256,2.239,256,5z"/>
<g>
</g>
<g>
</g>
<g>
</g>
<g>
</g>
<g>
</g>
<g>
</g>
<g>
</g>
<g>
</g>
<g>
</g>
<g>
</g>
<g>
</g>
<g>
</g>
<g>
</g>
<g>
</g>
<g>
</g>
</svg>
