<?xml version="1.0" encoding="iso-8859-1"?>
<!-- Generator: Adobe Illustrator 19.0.0, SVG Export Plug-In . SVG Version: 6.00 Build 0)  -->
<svg version="1.1" id="Capa_1" xmlns="http://www.w3.org/2000/svg" xmlns:xlink="http://www.w3.org/1999/xlink" x="0px" y="0px"
	 viewBox="0 0 512 512" style="enable-background:new 0 0 512 512;" xml:space="preserve">
<path style="fill:#FFC850;" d="M265,320h90c2.761,0,5,2.239,5,5v100c0,2.761-2.239,5-5,5h-90c-2.761,0-5-2.239-5-5V325
	C260,322.239,262.239,320,265,320z"/>
<path style="fill:#FFB446;" d="M360,325v100c0,2.761-2.239,5-5,5h-30c2.761,0,5-2.239,5-5V325c0-2.761-2.239-5-5-5h30
	C357.761,320,360,322.239,360,325z M236,170h-30c-2.761,0-5,2.239-5,5c0-2.761-2.239-5-5-5h-30c-2.761,0-5,2.239-5,5v100
	c0,2.761,2.239,5,5,5h30c2.761,0,5-2.239,5-5c0,2.761,2.239,5,5,5h30c2.761,0,5-2.239,5-5V175C241,172.239,238.761,170,236,170z"/>
<path style="fill:#D7AF87;" d="M155,360h120c2.761,0,5,2.239,5,5v60c0,2.761-2.239,5-5,5H155c-2.761,0-5-2.239-5-5v-60
	C150,362.239,152.239,360,155,360z"/>
<path style="fill:#C49D7A;" d="M280,365v60c0,2.761-2.239,5-5,5h-40c2.761,0,5-2.239,5-5v-60c0-2.761-2.239-5-5-5h40
	C277.761,360,280,362.239,280,365z"/>
<path style="fill:#EBC9A0;" d="M272,5v90c0,2.761-2.239,5-5,5H156c-2.761,0-5-2.239-5-5V5c0-2.761,2.239-5,5-5h111
	C269.761,0,272,2.239,272,5z"/>
<path style="fill:#D7AF87;" d="M272,5v90c0,2.761-2.239,5-5,5h-26c2.761,0,5-2.239,5-5V5c0-2.761-2.239-5-5-5h26
	C269.761,0,272,2.239,272,5z"/>
<path style="fill:#C38C6A;" d="M239,30c0,4.143-3.358,7.5-7.5,7.5h-40c-4.142,0-7.5-3.357-7.5-7.5s3.358-7.5,7.5-7.5h40
	C235.642,22.5,239,25.857,239,30z"/>
<path style="fill:#D3754F;" d="M241,175v100c0,2.761-2.239,5-5,5h-30c-2.761,0-5-2.239-5-5V175c0-2.761,2.239-5,5-5h30
	C238.761,170,241,172.239,241,175z M347,60H236c-2.761,0-5,2.239-5,5v30c0,2.761,2.239,5,5,5h111c2.761,0,5-2.239,5-5V65
	C352,62.239,349.761,60,347,60z"/>
<path style="fill:#B16F52;" d="M352,65v30c0,2.761-2.239,5-5,5h-31c2.761,0,5-2.239,5-5V65c0-2.761-2.239-5-5-5h31
	C349.761,60,352,62.239,352,65z"/>
<path style="fill:#959CB5;" d="M403,405v30c0,2.761-2.239,5-5,5H116c-2.761,0-5-2.239-5-5v-30c0-2.762,2.239-5,5-5h282
	C400.761,400,403,402.238,403,405z M398,250H116c-2.761,0-5,2.238-5,5v30c0,2.761,2.239,5,5,5h282c2.761,0,5-2.239,5-5v-30
	C403,252.238,400.761,250,398,250z M398,100H116c-2.761,0-5,2.239-5,5v30c0,2.761,2.239,5,5,5h282c2.761,0,5-2.239,5-5v-30
	C403,102.239,400.761,100,398,100z"/>
<path style="fill:#AFB9D2;" d="M116,5v502c0,2.761-2.239,5-5,5H91c-2.761,0-5-2.239-5-5V5c0-2.761,2.239-5,5-5h20
	C113.761,0,116,2.239,116,5z M421,0h-20c-2.761,0-5,2.239-5,5v502c0,2.761,2.239,5,5,5h20c2.761,0,5-2.239,5-5V5
	C426,2.239,423.761,0,421,0z"/>
<path style="fill:#57676E;" d="M121,485v22c0,2.761-2.239,5-5,5H86c-2.761,0-5-2.239-5-5v-22c0-2.761,2.239-5,5-5h30
	C118.761,480,121,482.239,121,485z M426,480h-30c-2.761,0-5,2.239-5,5v22c0,2.761,2.239,5,5,5h30c2.761,0,5-2.239,5-5v-22
	C431,482.239,428.761,480,426,480z"/>
<g>
</g>
<g>
</g>
<g>
</g>
<g>
</g>
<g>
</g>
<g>
</g>
<g>
</g>
<g>
</g>
<g>
</g>
<g>
</g>
<g>
</g>
<g>
</g>
<g>
</g>
<g>
</g>
<g>
</g>
</svg>
