<?xml version="1.0" encoding="iso-8859-1"?>
<!-- Generator: Adobe Illustrator 19.0.0, SVG Export Plug-In . SVG Version: 6.00 Build 0)  -->
<svg version="1.1" id="Capa_1" xmlns="http://www.w3.org/2000/svg" xmlns:xlink="http://www.w3.org/1999/xlink" x="0px" y="0px"
	 viewBox="0 0 512 512" style="enable-background:new 0 0 512 512;" xml:space="preserve">
<path style="fill:#D3754F;" d="M151,455v52c0,2.761-2.239,5-5,5H96c-2.761,0-5-2.239-5-5v-52c0-2.761,2.239-5,5-5h50
	C148.761,450,151,452.239,151,455z M416,450h-50c-2.761,0-5,2.239-5,5v52c0,2.761,2.239,5,5,5h50c2.761,0,5-2.239,5-5v-52
	C421,452.239,418.761,450,416,450z"/>
<path style="fill:#B53C3C;" d="M422,480H90c-11.046,0-20-8.954-20-20v-70c0-11.046,8.954-20,20-20h332c11.046,0,20,8.954,20,20v70
	C442,471.046,433.046,480,422,480z"/>
<path style="fill:#C84146;" d="M370,480H90c-11.046,0-20-8.954-20-20v-70c0-11.046,8.954-20,20-20h280c11.046,0,20,8.954,20,20v70
	C390,471.046,381.046,480,370,480z"/>
<path style="fill:#EF4146;" d="M482,282.001V370c0,22.091-17.909,40-40,40H70c-22.091,0-40-17.909-40-40v-87.999
	c-5.65-7.521-9-16.869-9-27.001c0-24.853,20.147-45,45-45c15.601,0,29.344,7.941,37.417,20h305.166
	c8.073-12.059,21.816-20,37.417-20c24.853,0,45,20.147,45,45C491,265.131,487.65,274.479,482,282.001z"/>
<path style="fill:#C84146;" d="M491,255c0,10.131-3.35,19.479-9,27.001V370c0,22.091-17.909,40-40,40h-41c22.091,0,40-17.909,40-40
	v-87.999c5.65-7.521,9-16.869,9-27.001c0-17.463-9.954-32.591-24.49-40.05c6.148-3.153,13.106-4.95,20.49-4.95
	C470.853,210,491,230.147,491,255z"/>
<path style="fill:#FF5050;" d="M372,320H140c-22.091,0-40-17.909-40-40V40c0-22.091,17.909-40,40-40h232c22.091,0,40,17.909,40,40
	v240C412,302.091,394.091,320,372,320z"/>
<path style="fill:#E95050;" d="M412,40v240c0,22.092-17.909,40-40,40H140c-4.819,0-9.438-0.853-13.717-2.415
	C259.348,299.845,362,185.918,362,48v-8c0-22.091-17.909-40-40-40h50C394.091,0,412,17.909,412,40z"/>
<path style="fill:#F26F60;" d="M407,350H105c-11.046,0-20-8.954-20-20v-40c0-11.046,8.954-20,20-20h302c11.046,0,20,8.954,20,20v40
	C427,341.046,418.046,350,407,350z"/>
<path style="fill:#FF8269;" d="M360,350H105c-11.046,0-20-8.954-20-20v-40c0-11.046,8.954-20,20-20h255c11.046,0,20,8.954,20,20v40
	C380,341.046,371.046,350,360,350z"/>
<path style="fill:#C84146;" d="M208.304,75.303L203.607,80l4.696,4.696c2.929,2.93,2.929,7.678,0,10.607
	c-1.465,1.464-3.385,2.196-5.304,2.196s-3.839-0.732-5.304-2.196L193,90.607l-4.696,4.696c-1.465,1.464-3.385,2.196-5.304,2.196
	s-3.839-0.732-5.304-2.196c-2.929-2.93-2.929-7.678,0-10.607L182.393,80l-4.696-4.696c-2.929-2.93-2.929-7.678,0-10.607
	c2.93-2.928,7.678-2.928,10.607,0L193,69.392l4.696-4.696c2.93-2.928,7.678-2.928,10.607,0
	C211.232,67.626,211.232,72.374,208.304,75.303z M329.607,80l4.696-4.696c2.929-2.93,2.929-7.678,0-10.607
	c-2.93-2.928-7.678-2.928-10.607,0L319,69.392l-4.696-4.696c-2.93-2.928-7.678-2.928-10.607,0c-2.929,2.93-2.929,7.678,0,10.607
	L308.393,80l-4.696,4.696c-2.929,2.93-2.929,7.678,0,10.607c1.465,1.464,3.385,2.196,5.304,2.196s3.839-0.732,5.304-2.196
	L319,90.607l4.696,4.696c1.465,1.464,3.385,2.196,5.304,2.196s3.839-0.732,5.304-2.196c2.929-2.93,2.929-7.678,0-10.607L329.607,80z
	 M208.304,164.696c-2.93-2.928-7.678-2.928-10.607,0L193,169.392l-4.696-4.696c-2.93-2.928-7.678-2.928-10.607,0
	c-2.929,2.93-2.929,7.678,0,10.607l4.696,4.696l-4.696,4.696c-2.929,2.93-2.929,7.678,0,10.607c1.465,1.464,3.385,2.196,5.304,2.196
	s3.839-0.732,5.304-2.196l4.696-4.696l4.696,4.696c1.465,1.464,3.385,2.196,5.304,2.196s3.839-0.732,5.304-2.196
	c2.929-2.93,2.929-7.678,0-10.607L203.607,180l4.696-4.696C211.232,172.374,211.232,167.626,208.304,164.696z M334.304,164.696
	c-2.93-2.928-7.678-2.928-10.607,0L319,169.392l-4.696-4.696c-2.93-2.928-7.678-2.928-10.607,0c-2.929,2.93-2.929,7.678,0,10.607
	l4.696,4.696l-4.696,4.696c-2.929,2.93-2.929,7.678,0,10.607c1.465,1.464,3.385,2.196,5.304,2.196s3.839-0.732,5.304-2.196
	l4.696-4.696l4.696,4.696c1.465,1.464,3.385,2.196,5.304,2.196s3.839-0.732,5.304-2.196c2.929-2.93,2.929-7.678,0-10.607
	L329.607,180l4.696-4.696C337.232,172.374,337.232,167.626,334.304,164.696z"/>
<g>
</g>
<g>
</g>
<g>
</g>
<g>
</g>
<g>
</g>
<g>
</g>
<g>
</g>
<g>
</g>
<g>
</g>
<g>
</g>
<g>
</g>
<g>
</g>
<g>
</g>
<g>
</g>
<g>
</g>
</svg>
