<?xml version="1.0" encoding="iso-8859-1"?>
<!-- Generator: Adobe Illustrator 19.0.0, SVG Export Plug-In . SVG Version: 6.00 Build 0)  -->
<svg version="1.1" id="Capa_1" xmlns="http://www.w3.org/2000/svg" xmlns:xlink="http://www.w3.org/1999/xlink" x="0px" y="0px"
	 viewBox="0 0 512 512" style="enable-background:new 0 0 512 512;" xml:space="preserve">
<path style="fill:#E07F54;" d="M481,155.77v109.16c0,5.481-4.477,9.924-10,9.924H341c-5.523,0-10-4.443-10-9.924
	c0,5.481-4.477,9.924-10,9.924H191c-5.523,0-10-4.443-10-9.924c0,5.481-4.477,9.924-10,9.924H41c-5.523,0-10-4.443-10-9.924V155.77
	c0-16.442,13.431-29.771,30-29.771h90c16.569,0,30,13.329,30,29.771c0-16.442,13.431-29.771,30-29.771h90
	c16.569,0,30,13.329,30,29.771c0-16.442,13.431-29.771,30-29.771h90C467.569,125.999,481,139.328,481,155.77z"/>
<path style="fill:#D3754F;" d="M481,155.77v30.267v78.893c0,5.481-4.477,9.924-10,9.924h-31h-99c-5.523,0-10-4.443-10-9.924
	c0,5.481-4.477,9.924-10,9.924H191c-5.523,0-10-4.443-10-9.924c0,5.481-4.477,9.924-10,9.924H41c-5.523,0-10-4.443-10-9.924v-78.893
	c0,16.442,13.431,29.771,30,29.771h90c16.569,0,30-13.329,30-29.771c0,16.442,13.431,29.771,30,29.771h90
	c16.569,0,30-13.329,30-29.771c0,16.442,13.431,29.771,30,29.771h49c22.091,0,40-17.772,40-39.695v-20.344
	c0-16.441-13.431-29.77-30-29.77h31C467.569,125.999,481,139.328,481,155.77z"/>
<path style="fill:#924A36;" d="M120,349.281v31.756c0,2.741-2.239,4.962-5,4.962H65c-2.761,0-5-2.221-5-4.962v-31.756
	c0-2.74,2.239-4.962,5-4.962h50C117.761,344.32,120,346.541,120,349.281z M445,344.32h-50c-2.761,0-5,2.222-5,4.962v31.756
	c0,2.741,2.239,4.962,5,4.962h50c2.761,0,5-2.221,5-4.962v-31.756C450,346.541,447.762,344.32,445,344.32z"/>
<path style="fill:#D3754F;" d="M338.501,136.667v27.042v32.5v27.042c0,4.111-3.357,7.443-7.5,7.443s-7.5-3.332-7.5-7.443v-27.042
	v-32.5v-27.042c0-0.184,0.014-0.364,0.028-0.545c4.647,5.243,7.471,12.117,7.471,19.648c0-7.532,2.825-14.407,7.473-19.65
	C338.486,136.301,338.501,136.482,338.501,136.667z M181,155.77c0-7.532-2.824-14.406-7.472-19.649
	c-0.013,0.181-0.028,0.362-0.028,0.546v27.042v32.5v27.042c0,4.111,3.357,7.443,7.5,7.443s7.5-3.332,7.5-7.443v-27.042v-32.5
	v-27.042c0-0.184-0.015-0.365-0.028-0.546C183.824,141.364,181,148.238,181,155.77z"/>
<path style="fill:#B16F52;" d="M512,225.236v124.046c0,2.741-2.239,4.962-5,4.962h-30h-20H55H35H5c-2.761,0-5-2.221-5-4.962V225.236
	c0-16.442,13.431-29.771,30-29.771s30,13.329,30,29.771v49.618h392v-49.618c0-16.442,13.431-29.771,30-29.771
	S512,208.794,512,225.236z"/>
<path style="fill:#A5664B;" d="M512,225.871v88.677v34.734c0,2.74-2.238,4.962-5,4.962h-30h-2h-18H55H35H5c-2.761,0-5-2.222-5-4.962
	v-34.734c0,2.741,2.239,4.962,5,4.962h30h20h405c11.046,0,20-8.886,20-19.847v-74.426c0-10.603-5.59-19.904-14-25.178
	c4.962-3.112,10.902-4.827,17.264-4.567C499.439,196.152,512,209.806,512,225.871z"/>
<path style="fill:#E89A6A;" d="M481,264.93v9.924c0,10.962-8.954,19.847-20,19.847H351c-11.046,0-20-8.886-20-19.847
	c0,10.962-8.954,19.847-20,19.847H201c-11.046,0-20-8.886-20-19.847c0,10.962-8.954,19.847-20,19.847H51
	c-11.046,0-20-8.886-20-19.847v-9.924c0-10.961,8.954-19.847,20-19.847h110c11.046,0,20,8.886,20,19.847
	c0-10.961,8.954-19.847,20-19.847h110c11.046,0,20,8.886,20,19.847c0-10.961,8.954-19.847,20-19.847h110
	C472.046,245.083,481,253.969,481,264.93z"/>
<path style="fill:#F7A676;" d="M300,264.93v9.924c0,10.962-8.954,19.847-20,19.847h-79c-11.046,0-20-8.886-20-19.847v-9.924
	c0-10.961,8.954-19.847,20-19.847h79C291.046,245.083,300,253.969,300,264.93z M130,245.083H51c-11.046,0-20,8.886-20,19.847v9.924
	c0,10.962,8.954,19.847,20,19.847h79c11.046,0,20-8.886,20-19.847v-9.924C150,253.969,141.046,245.083,130,245.083z M430,245.083
	h-79c-11.046,0-20,8.886-20,19.847v9.924c0,10.962,8.954,19.847,20,19.847h79c11.046,0,20-8.886,20-19.847v-9.924
	C450,253.969,441.046,245.083,430,245.083z"/>
<g>
</g>
<g>
</g>
<g>
</g>
<g>
</g>
<g>
</g>
<g>
</g>
<g>
</g>
<g>
</g>
<g>
</g>
<g>
</g>
<g>
</g>
<g>
</g>
<g>
</g>
<g>
</g>
<g>
</g>
</svg>
