<?xml version="1.0" encoding="iso-8859-1"?>
<!-- Generator: Adobe Illustrator 19.0.0, SVG Export Plug-In . SVG Version: 6.00 Build 0)  -->
<svg version="1.1" id="Capa_1" xmlns="http://www.w3.org/2000/svg" xmlns:xlink="http://www.w3.org/1999/xlink" x="0px" y="0px"
	 viewBox="0 0 512 512" style="enable-background:new 0 0 512 512;" xml:space="preserve">
<path style="fill:#BAF6FF;" d="M356,339.999H156v-320h200V339.999z"/>
<path style="fill:#A2DAF9;" d="M356,339.999h-36v-320h36V339.999z"/>
<path style="fill:#70B5E8;" d="M260,265v75h-30h-30v-75c0-2.761,2.239-5,5-5h20c2.761,0,5,2.239,5,5c0-2.761,2.239-5,5-5h20
	C257.762,260,260,262.239,260,265z"/>
<path style="fill:#52A5D8;" d="M230,265v75h-30v-75c0-2.761,2.239-5,5-5h20C227.761,260,230,262.239,230,265z"/>
<path style="fill:#84C5FA;" d="M270,85v40c0,2.761-2.239,5-5,5h-50c-2.761,0-5-2.239-5-5V85c0-2.761,2.239-5,5-5h50
	C267.761,80,270,82.239,270,85z"/>
<g>
	<path style="fill:#A2DAF9;" d="M306,210L306,210c0,11.046-8.954,20-20,20h-16c-11.046,0-20-8.954-20-20l0,0
		c0-8.579,5.412-15.875,13-18.716V160h30v31.284C300.588,194.125,306,201.421,306,210z"/>
	<path style="fill:#A2DAF9;" d="M305.5,160c0,4.143-3.357,7.5-7.5,7.5h-40c-4.142,0-7.5-3.357-7.5-7.5s3.358-7.5,7.5-7.5h40
		C302.143,152.5,305.5,155.857,305.5,160z"/>
</g>
<path style="fill:#70B5E8;" d="M142.5,130c0-4.143,3.358-7.5,7.5-7.5h212c4.143,0,7.5,3.357,7.5,7.5c0,4.143-3.357,7.5-7.5,7.5H150
	C145.858,137.5,142.5,134.142,142.5,130z M362,222.5H150c-4.142,0-7.5,3.357-7.5,7.5s3.358,7.5,7.5,7.5h212
	c4.143,0,7.5-3.357,7.5-7.5S366.143,222.5,362,222.5z"/>
<path style="fill:#D7AF87;" d="M372,455v20v10v22c0,2.761-2.239,5-5,5h-50c-2.761,0-5-2.239-5-5v-17H200v17c0,2.761-2.239,5-5,5h-50
	c-2.761,0-5-2.239-5-5v-22v-10v-20c0-2.761,2.239-5,5-5h222C369.761,450,372,452.239,372,455z"/>
<path style="fill:#E07F54;" d="M381,344.999V455c0,2.761-2.239,5-5,5H136c-2.761,0-5-2.239-5-5V344.999c0-2.761,2.239-5,5-5h240
	C378.761,339.999,381,342.237,381,344.999z"/>
<path style="fill:#D3754F;" d="M381,344.999V455c0,2.761-2.239,5-5,5h-41c2.761,0,5-2.239,5-5V344.999c0-2.761-2.239-5-5-5h41
	C378.761,339.999,381,342.237,381,344.999z"/>
<path style="fill:#924A36;" d="M283.5,400c0,4.143-3.357,7.5-7.5,7.5h-40c-4.142,0-7.5-3.357-7.5-7.5s3.358-7.5,7.5-7.5h40
	C280.143,392.5,283.5,395.857,283.5,400z"/>
<path style="fill:#F7A676;" d="M131,360h250V5c0-2.761-2.239-5-5-5H136c-2.761,0-5,2.239-5,5V360z M341,40v280H171V40H341z"/>
<path style="fill:#E89A6A;" d="M381,5v355h-39.999V5c0-2.761-2.239-5-5-5H376C378.761,0,381,2.239,381,5z"/>
<g>
</g>
<g>
</g>
<g>
</g>
<g>
</g>
<g>
</g>
<g>
</g>
<g>
</g>
<g>
</g>
<g>
</g>
<g>
</g>
<g>
</g>
<g>
</g>
<g>
</g>
<g>
</g>
<g>
</g>
</svg>
