<?xml version="1.0" encoding="iso-8859-1"?>
<!-- Generator: Adobe Illustrator 19.0.0, SVG Export Plug-In . SVG Version: 6.00 Build 0)  -->
<svg version="1.1" id="Capa_1" xmlns="http://www.w3.org/2000/svg" xmlns:xlink="http://www.w3.org/1999/xlink" x="0px" y="0px"
	 viewBox="0 0 512 512" style="enable-background:new 0 0 512 512;" xml:space="preserve">
<path style="fill:#FFDC64;" d="M456.848,295.223l1.575,17.932c0.966,11.004-7.204,20.704-18.248,21.667l-269.963,23.532
	l-17.998,1.569c-11.044,0.963-20.781-7.177-21.747-18.181L78.228,25.201C77.261,14.198,85.431,4.497,96.475,3.534
	c0,0,34.76-3.03,38.995-3.399c19.327-1.685,36.366,12.56,38.057,31.816c0.984,11.206-3.447,21.636-11.133,28.732
	c-9.982,9.215-14.138,23.128-11.62,36.452l34.36,201.696L435.1,277.042C446.145,276.08,455.882,284.22,456.848,295.223z"/>
<g>
	<path style="fill:#FFC850;" d="M173.527,31.952c0.984,11.206-3.447,21.636-11.133,28.732c-8.23,7.598-12.488,18.391-12.322,29.413
		l-12.117-70.869c-1.305-7.635-5.986-14.281-12.748-18.102c0.08-0.007,10.197-0.984,10.263-0.99
		C154.797-1.549,171.836,12.695,173.527,31.952z M458.422,313.155l-1.575-17.931c-0.966-11.004-10.703-19.144-21.747-18.181
		l-37.896,3.33c11.044-0.963,20.781,7.177,21.747,18.181l1.575,17.932c0.951,10.83-6.954,20.378-17.733,21.596l37.381-3.259
		C451.219,333.859,459.389,324.158,458.422,313.155z"/>
	<path style="fill:#FFC850;" d="M193.258,298.124c-0.028,0.038-0.052,0.079-0.08,0.116l-6.234,26.001
		c-0.826,3.443-3.912,5.76-7.315,5.76c-0.579,0-1.167-0.067-1.755-0.207c-4.044-0.963-6.539-5.009-5.573-9.037l4.456-18.587
		l-8.926,0.778c-0.223,0.02-0.445,0.028-0.665,0.028c-3.861,0-7.147-2.942-7.49-6.847c-0.362-4.126,2.701-7.764,6.843-8.125
		l14.9-1.299c0.428-0.469,0.915-0.877,1.442-1.223l2.274,13.35L193.258,298.124z"/>
</g>
<path style="fill:#924A36;" d="M406.2,427.374c-0.465,0.086-0.927,0.127-1.383,0.127c-3.557,0-6.72-2.521-7.393-6.132
	l-33.049-177.304c-2.869-15.393-16.357-26.565-32.071-26.565H148.832c-4.157,0-7.528-3.357-7.528-7.5s3.37-7.5,7.528-7.5h183.472
	c22.967,0,42.68,16.329,46.874,38.827l33.049,177.304C412.986,422.703,410.288,426.617,406.2,427.374z"/>
<path style="fill:#E07F54;" d="M446.743,409.208C414.975,470.218,350.976,512,277.358,512h-52.191
	c-73.618,0-137.617-41.782-169.385-102.792C48.851,395.898,58.545,380,73.595,380l0,0c7.541,0,14.393,4.241,17.869,10.909
	C116.556,439.043,167.07,472,225.167,472h52.191c58.097,0,108.611-32.957,133.703-81.091C414.537,384.241,421.388,380,428.93,380
	C443.98,380,453.674,395.898,446.743,409.208z M89.669,230h230.847c2.772,0,5.018-2.239,5.018-5v-30c0-2.761-2.247-5-5.018-5H89.669
	c-2.772,0-5.018,2.239-5.018,5v30C84.651,227.761,86.898,230,89.669,230z"/>
<g>
</g>
<g>
</g>
<g>
</g>
<g>
</g>
<g>
</g>
<g>
</g>
<g>
</g>
<g>
</g>
<g>
</g>
<g>
</g>
<g>
</g>
<g>
</g>
<g>
</g>
<g>
</g>
<g>
</g>
</svg>
