<?xml version="1.0" encoding="iso-8859-1"?>
<!-- Generator: Adobe Illustrator 19.0.0, SVG Export Plug-In . SVG Version: 6.00 Build 0)  -->
<svg version="1.1" id="Capa_1" xmlns="http://www.w3.org/2000/svg" xmlns:xlink="http://www.w3.org/1999/xlink" x="0px" y="0px"
	 viewBox="0 0 512 512" style="enable-background:new 0 0 512 512;" xml:space="preserve">
<path style="fill:#EBC9A0;" d="M240,90v60c0,5.523-4.477,10-10,10H120c-5.523,0-10-4.477-10-10V90c0-5.523,4.477-10,10-10h110
	C235.523,80,240,84.477,240,90z M230,160.5H120c-5.523,0-10,4.477-10,10l0,0c0,5.523,4.477,10,10,10h110c5.523,0,10-4.477,10-10l0,0
	C240,164.977,235.523,160.5,230,160.5z"/>
<path style="fill:#D7AF87;" d="M207.5,110c0,4.143-3.357,7.5-7.5,7.5h-50c-4.143,0-7.5-3.357-7.5-7.5s3.357-7.5,7.5-7.5h50
	C204.143,102.5,207.5,105.857,207.5,110z"/>
<path style="fill:#57676E;" d="M185.326,401.768C194.339,409.997,200,421.834,200,435c0,24.884-20.198,45.051-45.094,45
	c-23.551-0.048-43.375-18.655-44.819-42.162c-0.878-14.295,4.93-27.253,14.585-36.069c0.369-0.337,0.856-0.519,1.356-0.519h57.945
	C184.472,401.25,184.958,401.432,185.326,401.768z"/>
<path style="fill:#FFC850;" d="M218.039,430.526c5.598,5.216,9.104,12.648,9.104,20.903c0,16.394-13.808,29.563-30.428,28.513
	c-14.518-0.918-26.183-12.943-26.696-27.48c-0.306-8.666,3.255-16.503,9.085-21.936c0.368-0.343,0.859-0.526,1.362-0.526h36.212
	C217.18,430,217.671,430.183,218.039,430.526z"/>
<path style="fill:#A2DAF9;" d="M390,290L390,290c0,16.569-13.431,30-30,30s-30-13.431-30-30l0,0c0-11.102,6.036-20.789,15-25.977
	V230h30v34.023C383.964,269.211,390,278.898,390,290z"/>
<path style="fill:#70B5E8;" d="M387.5,230c0,4.143-3.357,7.5-7.5,7.5h-40c-4.143,0-7.5-3.357-7.5-7.5s3.357-7.5,7.5-7.5h40
	C384.143,222.5,387.5,225.857,387.5,230z"/>
<path style="fill:#F7A676;" d="M170,235v90c0,2.761-2.239,5-5,5h-20c-2.761,0-5-2.239-5-5c0,2.761-2.239,5-5,5h-20
	c-2.761,0-5-2.239-5-5v-90c0-2.761,2.239-5,5-5h20c2.761,0,5,2.239,5,5c0-2.761,2.239-5,5-5h20C167.761,230,170,232.239,170,235z"/>
<path style="fill:#924A36;" d="M140,235v90c0,2.761-2.239,5-5,5h-20c-2.761,0-5-2.239-5-5v-90c0-2.761,2.239-5,5-5h20
	C137.761,230,140,232.239,140,235z"/>
<path style="fill:#D3754F;" d="M476,0h-27.25H446H66h-2.75H36c-2.761,0-5,2.239-5,5v502c0,2.761,2.239,5,5,5h27.25H66h380h2.75H476
	c2.761,0,5-2.239,5-5V5C481,2.239,478.761,0,476,0z M71,200h140v116H71V200z M441,316H251V200h190V316z M441,40v120H71V40H441z
	 M71,356h190v116H71V356z M301,472V356h140v116H301z"/>
<path style="fill:#924A36;" d="M481,5v502c0,2.761-2.239,5-5,5h-25c2.761,0,5-2.239,5-5V5c0-2.761-2.239-5-5-5h25
	C478.761,0,481,2.239,481,5z"/>
<g>
</g>
<g>
</g>
<g>
</g>
<g>
</g>
<g>
</g>
<g>
</g>
<g>
</g>
<g>
</g>
<g>
</g>
<g>
</g>
<g>
</g>
<g>
</g>
<g>
</g>
<g>
</g>
<g>
</g>
</svg>
