<?xml version="1.0" encoding="iso-8859-1"?>
<!-- Generator: Adobe Illustrator 19.0.0, SVG Export Plug-In . SVG Version: 6.00 Build 0)  -->
<svg version="1.1" id="Capa_1" xmlns="http://www.w3.org/2000/svg" xmlns:xlink="http://www.w3.org/1999/xlink" x="0px" y="0px"
	 viewBox="0 0 512 512" style="enable-background:new 0 0 512 512;" xml:space="preserve">
<path style="fill:#924A36;" d="M313.924,130c0,26.191-21.466,47.5-47.85,47.5h-2.518V280c0,4.143-3.383,7.5-7.555,7.5
	c-4.173,0-7.555-3.357-7.555-7.5V177.5h-2.518c-26.384,0-47.85-21.309-47.85-47.5c0-4.143,3.383-7.5,7.555-7.5
	s7.555,3.357,7.555,7.5c0,17.921,14.687,32.5,32.74,32.5h2.518V130c0-4.143,3.383-7.5,7.555-7.5c4.173,0,7.555,3.357,7.555,7.5v32.5
	h2.518c18.053,0,32.74-14.579,32.74-32.5c0-4.143,3.383-7.5,7.555-7.5S313.924,125.857,313.924,130z"/>
<path style="fill:#A0D755;" d="M242.103,81.471c0.851,3.314,1.305,6.786,1.305,10.363c0,23.104-18.867,41.833-42.142,41.833
	c-23.274,0-42.142-18.729-42.142-41.833c0-18.426,12.006-34.059,28.672-39.638c-0.851-3.314-1.305-6.786-1.305-10.362
	C186.491,18.729,205.359,0,228.633,0s42.142,18.729,42.142,41.833C270.775,60.259,258.769,75.892,242.103,81.471z"/>
<path style="fill:#94C449;" d="M354.387,91.833c0,23.104-18.867,41.833-42.142,41.833c-10.809,0-20.663-4.043-28.122-10.685
	c-7.459,6.641-17.314,10.685-28.122,10.685c-23.274,0-42.142-18.729-42.142-41.833c0-18.426,12.006-34.058,28.672-39.638
	c-0.851-3.314-1.305-6.786-1.305-10.362C241.225,18.729,260.093,0,283.367,0c23.274,0,42.142,18.729,42.142,41.833
	c0,3.417-0.422,6.735-1.201,9.915C341.702,56.899,354.387,72.892,354.387,91.833z"/>
<path style="fill:#8CB23B;" d="M354.387,91.833c0,23.104-18.867,41.833-42.142,41.833c-7.296,0-14.154-1.848-20.138-5.089
	c13.098-7.095,21.985-20.889,21.985-36.744c0-18.941-12.685-34.934-30.079-40.085c0.779-3.18,1.201-6.498,1.201-9.915
	c0-15.859-8.891-29.656-21.994-36.75C269.205,1.843,276.069,0,283.367,0c23.274,0,42.142,18.729,42.142,41.833
	c0,3.417-0.422,6.735-1.201,9.915C341.702,56.899,354.387,72.892,354.387,91.833z"/>
<path style="fill:#AFB9D2;" d="M301.354,430h-92.577c-5.194,0-9.537-3.921-10.029-9.054l-17.75-185.473
	c-0.281-2.935,2.044-5.473,5.014-5.473h139.974c2.99,0,5.322,2.57,5.009,5.522l-19.623,185.522
	C310.835,426.135,306.511,430,301.354,430z"/>
<path style="fill:#959CB5;" d="M330.996,235.522l-19.623,185.522c-0.538,5.09-4.862,8.956-10.019,8.956h-31.757
	c5.156,0,9.48-3.865,10.019-8.956l19.623-185.522c0.312-2.952-2.019-5.522-5.009-5.522h31.757
	C328.977,230,331.309,232.57,330.996,235.522z"/>
<path style="fill:#57676E;" d="M461,504.5c0,4.143-3.383,7.5-7.555,7.5H58.555c-4.173,0-7.555-3.357-7.555-7.5s3.383-7.5,7.555-7.5
	h80.59V322.5c0-4.143,3.383-7.5,7.555-7.5s7.555,3.357,7.555,7.5V497h203.489V322.5c0-4.143,3.383-7.5,7.555-7.5
	c4.173,0,7.555,3.357,7.555,7.5V497h80.59C457.617,497,461,500.357,461,504.5z"/>
<path style="fill:#D3754F;" d="M367.855,340h-223.71c-2.761,0-5-2.239-5-5v-30c0-2.761,2.239-5,5-5h223.71c2.761,0,5,2.239,5,5v30
	C372.855,337.761,370.616,340,367.855,340z"/>
<path style="fill:#B16F52;" d="M372.855,305v30c0,2.761-2.255,5-5.037,5h-30.221c2.782,0,5.037-2.239,5.037-5v-30
	c0-2.761-2.255-5-5.037-5h30.221C370.6,300,372.855,302.239,372.855,305z"/>
<g>
</g>
<g>
</g>
<g>
</g>
<g>
</g>
<g>
</g>
<g>
</g>
<g>
</g>
<g>
</g>
<g>
</g>
<g>
</g>
<g>
</g>
<g>
</g>
<g>
</g>
<g>
</g>
<g>
</g>
</svg>
