<?xml version="1.0" encoding="iso-8859-1"?>
<!-- Generator: Adobe Illustrator 19.0.0, SVG Export Plug-In . SVG Version: 6.00 Build 0)  -->
<svg version="1.1" id="Capa_1" xmlns="http://www.w3.org/2000/svg" xmlns:xlink="http://www.w3.org/1999/xlink" x="0px" y="0px"
	 viewBox="0 0 512 512" style="enable-background:new 0 0 512 512;" xml:space="preserve">
<path style="fill:#D7AF87;" d="M151,364.301v41.731c0,2.744-2.239,4.968-5,4.968H96c-2.761,0-5-2.224-5-4.968v-41.731
	c0-2.744,2.239-4.968,5-4.968h50C148.761,359.333,151,361.558,151,364.301z M416,359.333h-50c-2.761,0-5,2.224-5,4.968v41.731
	c0,2.744,2.239,4.968,5,4.968h50c2.761,0,5-2.224,5-4.968v-41.731C421,361.558,418.761,359.333,416,359.333z"/>
<path style="fill:#EBC9A0;" d="M452,379.205H60c-11.046,0-20-8.954-20-20V289.91c0-11.046,8.954-20,20-20h392
	c11.046,0,20,8.954,20,20v69.295C472,370.251,463.046,379.205,452,379.205z"/>
<path style="fill:#D7AF87;" d="M472,289.782v69.551c0,10.975-8.954,19.872-20,19.872h-40c11.046,0,20-8.897,20-19.872v-69.551
	c0-10.975-8.954-19.872-20-19.872h40C463.046,269.91,472,278.807,472,289.782z"/>
<path style="fill:#52A5D8;" d="M512,140.744v149.038c0,10.975-8.954,19.872-20,19.872H20c-11.046,0-20-8.897-20-19.872V140.744
	c0-3.553,0.95-6.882,2.595-9.768C11.906,113.75,45.265,101,85,101c21.933,0,41.922,3.886,57,10.263
	C157.078,104.886,177.067,101,199,101s41.922,3.886,57,10.263C271.078,104.886,291.067,101,313,101s41.922,3.886,57,10.263
	C385.078,104.886,405.067,101,427,101c39.735,0,73.094,12.75,82.405,29.976C511.05,133.862,512,137.19,512,140.744z"/>
<path style="fill:#4194C7;" d="M512,140.744v149.038c0,10.975-8.954,19.872-20,19.872H20c-11.046,0-20-8.897-20-19.872v-15.897h416
	c33.137,0,60-26.691,60-59.615V108.275c16.299,5.389,28.371,13.388,33.405,22.701C511.05,133.862,512,137.19,512,140.744z"/>
<path style="fill:#70B5E8;" d="M509.405,130.976c1.645,2.887,2.595,6.215,2.595,9.768v29.808H0v-29.808
	c0-3.553,0.95-6.881,2.595-9.768C11.906,113.75,45.265,101,85,101c21.933,0,41.922,3.886,57,10.263
	C157.078,104.886,177.067,101,199,101s41.922,3.886,57,10.263C271.078,104.886,291.067,101,313,101s41.922,3.886,57,10.263
	C385.078,104.886,405.067,101,427,101C466.735,101,500.094,113.75,509.405,130.976z"/>
<path style="fill:#52A5D8;" d="M509.405,130.976c1.645,2.887,2.595,6.215,2.595,9.768v29.808h-36v-62.276
	C492.299,113.663,504.371,121.663,509.405,130.976z"/>
<path style="fill:#57676E;" d="M271.97,223.016l-5.363,5.328l5.363,5.328c2.929,2.911,2.929,7.629,0,10.539
	c-1.464,1.454-3.384,2.182-5.303,2.182s-3.839-0.728-5.303-2.182L256,238.883l-5.363,5.329c-1.464,1.454-3.384,2.182-5.303,2.182
	s-3.839-0.728-5.303-2.182c-2.929-2.911-2.929-7.629,0-10.539l5.363-5.328l-5.363-5.328c-2.929-2.911-2.929-7.629,0-10.539
	c2.929-2.909,7.678-2.909,10.606,0l5.363,5.329l5.363-5.329c2.929-2.909,7.678-2.909,10.606,0
	C274.899,215.387,274.899,220.105,271.97,223.016z M122.637,212.477c-2.928-2.909-7.677-2.909-10.606,0l-5.364,5.329l-5.364-5.329
	c-2.929-2.909-7.678-2.909-10.606,0c-2.929,2.911-2.929,7.629,0,10.539l5.363,5.328l-5.363,5.328c-2.929,2.911-2.929,7.629,0,10.539
	c1.464,1.454,3.384,2.182,5.303,2.182s3.839-0.728,5.303-2.182l5.364-5.329l5.364,5.329c1.464,1.454,3.384,2.182,5.303,2.182
	s3.839-0.728,5.303-2.182c2.929-2.911,2.929-7.629,0-10.539l-5.363-5.328l5.363-5.328
	C125.566,220.105,125.566,215.387,122.637,212.477z M415.94,228.344l5.363-5.328c2.929-2.911,2.929-7.629,0-10.539
	c-2.928-2.909-7.677-2.909-10.606,0l-5.364,5.329l-5.364-5.329c-2.929-2.909-7.678-2.909-10.606,0
	c-2.929,2.911-2.929,7.629,0,10.539l5.363,5.328l-5.363,5.328c-2.929,2.911-2.929,7.629,0,10.539
	c1.464,1.454,3.384,2.182,5.303,2.182s3.839-0.728,5.303-2.182l5.364-5.329l5.364,5.329c1.464,1.454,3.384,2.182,5.303,2.182
	s3.839-0.728,5.303-2.182c2.929-2.911,2.929-7.629,0-10.539L415.94,228.344z"/>
<g>
</g>
<g>
</g>
<g>
</g>
<g>
</g>
<g>
</g>
<g>
</g>
<g>
</g>
<g>
</g>
<g>
</g>
<g>
</g>
<g>
</g>
<g>
</g>
<g>
</g>
<g>
</g>
<g>
</g>
</svg>
