<?xml version="1.0" encoding="iso-8859-1"?>
<!-- Generator: Adobe Illustrator 19.0.0, SVG Export Plug-In . SVG Version: 6.00 Build 0)  -->
<svg version="1.1" id="Capa_1" xmlns="http://www.w3.org/2000/svg" xmlns:xlink="http://www.w3.org/1999/xlink" x="0px" y="0px"
	 viewBox="0 0 512 512" style="enable-background:new 0 0 512 512;" xml:space="preserve">
<path style="fill:#8A90A7;" d="M197.5,300v30c0,2.841-1.605,5.438-4.146,6.708l-40,20c-1.077,0.539-2.222,0.793-3.349,0.793
	c-2.751,0-5.4-1.519-6.714-4.147c-1.853-3.705-0.351-8.21,3.354-10.062l35.854-17.927V300c0-4.142,3.357-7.5,7.5-7.5
	S197.5,295.858,197.5,300z"/>
<path style="fill:#D5DCED;" d="M276,400h-40V290h40V400z"/>
<path style="fill:#959CB5;" d="M286,390v40c0,11.046-8.954,20-20,20h-20c-11.046,0-20-8.954-20-20v-40c0-11.046,8.954-20,20-20h20
	C277.046,370,286,378.954,286,390z"/>
<path style="fill:#9BA5BB;" d="M260,390v40c0,10.023-7.381,18.3-17,19.751c-9.619-1.451-17-9.728-17-19.751v-40
	c0-10.023,7.381-18.3,17-19.751C252.619,371.7,260,379.977,260,390z"/>
<path style="fill:#57676E;" d="M138.5,483v3c0,14.359-11.641,26-26,26h-3c-14.359,0-26-11.641-26-26v-3c0-14.359,11.641-26,26-26h3
	C126.859,457,138.5,468.641,138.5,483z M402.5,457h-3c-14.359,0-26,11.641-26,26v3c0,14.359,11.641,26,26,26h3
	c14.359,0,26-11.641,26-26v-3C428.5,468.641,416.859,457,402.5,457z"/>
<path style="fill:#8A90A7;" d="M397,470H115c-2.761,0-5-2.239-5-5l0,0c0-14.894,10.997-27.501,25.754-29.522l119.568-16.379
	c0.45-0.062,0.907-0.062,1.357,0l119.568,16.379C391.003,437.499,402,450.106,402,465l0,0C402,467.761,399.761,470,397,470z"/>
<path style="fill:#57676E;" d="M283.5,483v3c0,14.359-11.641,26-26,26h-3c-14.359,0-26-11.641-26-26v-3c0-14.359,11.641-26,26-26h3
	C271.859,457,283.5,468.641,283.5,483z"/>
<path style="fill:#AFB9D2;" d="M240.567,466.074l-4.071-39.519c-0.276-2.682,1.624-5.1,4.295-5.466l14.531-1.991
	c0.45-0.062,0.907-0.062,1.357,0l14.531,1.991c2.671,0.366,4.571,2.784,4.295,5.466l-4.07,39.519
	C270.619,473.986,263.954,480,256,480l0,0C248.047,480,241.382,473.986,240.567,466.074z"/>
<path style="fill:#E07F54;" d="M357,260H155c-2.761,0-5-2.239-5-5V50c0-11.046,8.954-20,20-20h172c11.046,0,20,8.954,20,20v205
	C362,257.761,359.761,260,357,260z"/>
<path style="fill:#D1754F;" d="M362,50v205c0,2.761-2.239,5-5,5H155c-2.761,0-5-2.239-5-5v-65h112c33.137,0,60-26.863,60-60V30h20
	C353.046,30,362,38.954,362,50z"/>
<path style="fill:#B16F52;" d="M411,180v100c0,16.569-13.431,30-30,30h-14h-16H161h-16h-14c-16.569,0-30-13.431-30-30V180
	c0-16.569,13.431-30,30-30s30,13.431,30,30v80h190v-80c0-16.569,13.431-30,30-30S411,163.431,411,180z M212.833,40h86.333
	c11.046,0,20-8.954,20-20l0,0c0-11.046-8.954-20-20-20h-86.333c-11.046,0-20,8.954-20,20l0,0C192.833,31.046,201.788,40,212.833,40z
	"/>
<path style="fill:#A0654B;" d="M411,180v100c0,16.569-13.431,30-30,30h-14h-16h-1c16.569,0,30-13.431,30-30V180
	c0-10.896-5.81-20.434-14.5-25.689c4.524-2.735,9.828-4.311,15.5-4.311C397.569,150,411,163.431,411,180z M299.167,0h-32.833
	c11.046,0,20,8.954,20,20s-8.954,20-20,20h32.833c11.046,0,20-8.954,20-20S310.212,0,299.167,0z"/>
<path style="fill:#E89A6A;" d="M362,270H150c-11.046,0-20-8.954-20-20v-18c0-11.046,8.954-20,20-20h212c11.046,0,20,8.954,20,20v18
	C382,261.046,373.046,270,362,270z"/>
<path style="fill:#F7A676;" d="M330,270H150c-11.046,0-20-8.954-20-20v-18c0-11.046,8.954-20,20-20h180c11.046,0,20,8.954,20,20v18
	C350,261.046,341.046,270,330,270z"/>
<path style="fill:#924A36;" d="M223.5,90c0-4.142,3.357-7.5,7.5-7.5h50c4.143,0,7.5,3.358,7.5,7.5s-3.357,7.5-7.5,7.5h-50
	C226.857,97.5,223.5,94.142,223.5,90z M281,162.5h-50c-4.143,0-7.5,3.358-7.5,7.5s3.357,7.5,7.5,7.5h50c4.143,0,7.5-3.358,7.5-7.5
	S285.143,162.5,281,162.5z M302,122.5h-92c-4.143,0-7.5,3.358-7.5,7.5s3.357,7.5,7.5,7.5h92c4.143,0,7.5-3.358,7.5-7.5
	S306.143,122.5,302,122.5z"/>
<g>
</g>
<g>
</g>
<g>
</g>
<g>
</g>
<g>
</g>
<g>
</g>
<g>
</g>
<g>
</g>
<g>
</g>
<g>
</g>
<g>
</g>
<g>
</g>
<g>
</g>
<g>
</g>
<g>
</g>
</svg>
