<?xml version="1.0" encoding="iso-8859-1"?>
<!-- Generator: Adobe Illustrator 19.0.0, SVG Export Plug-In . SVG Version: 6.00 Build 0)  -->
<svg version="1.1" id="Capa_1" xmlns="http://www.w3.org/2000/svg" xmlns:xlink="http://www.w3.org/1999/xlink" x="0px" y="0px"
	 viewBox="0 0 512 512" style="enable-background:new 0 0 512 512;" xml:space="preserve">
<path style="fill:#A2DAF9;" d="M391.188,130h-60.104c-5.523,0-10-4.477-10-10V30c0-5.523,4.477-10,10-10h60.104
	c5.523,0,10,4.477,10,10v90C401.188,125.523,396.71,130,391.188,130z"/>
<path style="fill:#70B5E8;" d="M331.11,140h-38.257c-5.523,0-10-4.477-10-10V70c0-5.523,4.477-10,10-10h38.257
	c5.523,0,10,4.477,10,10v60C341.11,135.523,336.632,140,331.11,140z"/>
<path style="fill:#8A90A7;" d="M180.901,16.167v7.667c0,8.929-7.238,16.167-16.167,16.167h-7.719
	c-8.929,0-16.167-7.238-16.167-16.167v-7.667C140.85,7.238,148.089,0,157.016,0h7.719C173.663,0,180.901,7.238,180.901,16.167z"/>
<path style="fill:#959CB5;" d="M210.94,80c0,27.614-22.415,50-50.065,50s-50.065-22.386-50.065-50s22.415-50,50.065-50
	S210.94,52.386,210.94,80z"/>
<path style="fill:#AFB9D2;" d="M190.914,80c0,16.569-13.449,30-30.039,30s-30.039-13.431-30.039-30s13.449-30,30.039-30
	S190.914,63.431,190.914,80z"/>
<path style="fill:#57676E;" d="M168.385,60v20c0,4.142-3.362,7.5-7.51,7.5h-15.02c-4.147,0-7.51-3.358-7.51-7.5s3.362-7.5,7.51-7.5
	h7.51V60c0-4.142,3.362-7.5,7.51-7.5S168.385,55.858,168.385,60z"/>
<path style="fill:#F7A676;" d="M432.228,427.667H79.771V150h352.458V427.667z"/>
<path style="fill:#E89A6A;" d="M432.228,427.667h-72.094V150h72.094V427.667z"/>
<path style="fill:#E07F54;" d="M417.459,289H94.539V150h322.92V289z"/>
<path style="fill:#D1754F;" d="M417.459,289h-57.324V150h57.324V289z"/>
<path style="fill:#D7AF87;" d="M425.97,452v55c0,2.761-2.242,5-5.007,5h-50.065c-2.765,0-5.007-2.239-5.007-5v-17H146.106v17
	c0,2.761-2.242,5-5.007,5H91.035c-2.765,0-5.007-2.239-5.007-5v-55c0-2.761,2.241-5,5.007-5h329.928
	C423.728,447,425.97,449.239,425.97,452z"/>
<path style="fill:#EBC9A0;" d="M443.492,124H68.507c-2.765,0-5.007,2.239-5.007,5v320c0,2.761,2.241,5,5.007,5h374.987
	c2.765,0,5.007-2.239,5.007-5V129C448.499,126.239,446.258,124,443.492,124z M408.447,414H103.551V164h304.896V414z"/>
<path style="fill:#924A36;" d="M227.462,204c0-4.142,3.362-7.5,7.51-7.5h42.055c4.148,0,7.51,3.358,7.51,7.5s-3.362,7.5-7.51,7.5
	h-42.055C230.824,211.5,227.462,208.142,227.462,204z M277.026,324.5h-42.055c-4.147,0-7.51,3.358-7.51,7.5s3.362,7.5,7.51,7.5
	h42.055c4.148,0,7.51-3.358,7.51-7.5S281.174,324.5,277.026,324.5z"/>
<g>
</g>
<g>
</g>
<g>
</g>
<g>
</g>
<g>
</g>
<g>
</g>
<g>
</g>
<g>
</g>
<g>
</g>
<g>
</g>
<g>
</g>
<g>
</g>
<g>
</g>
<g>
</g>
<g>
</g>
</svg>
