<?xml version="1.0" encoding="iso-8859-1"?>
<!-- Generator: Adobe Illustrator 19.0.0, SVG Export Plug-In . SVG Version: 6.00 Build 0)  -->
<svg version="1.1" id="Capa_1" xmlns="http://www.w3.org/2000/svg" xmlns:xlink="http://www.w3.org/1999/xlink" x="0px" y="0px"
	 viewBox="0 0 512 512" style="enable-background:new 0 0 512 512;" xml:space="preserve">
<path style="fill:#FEF0FF;" d="M512,20v470c0,11.046-8.954,20-20,20H360c-8.871,0-16.382-5.781-19-13.777
	C338.382,504.219,330.871,510,322,510H190c-8.871,0-16.382-5.781-19-13.777C168.382,504.219,160.871,510,152,510H20
	c-11.046,0-20-8.954-20-20V20C0,8.954,8.954,0,20,0h132c4.805,0,9.211,1.696,12.657,4.522c3.723,3.053,8.964,3.053,12.686,0
	C180.789,1.696,185.195,0,190,0h132c4.805,0,9.211,1.696,12.657,4.522c3.723,3.053,8.964,3.053,12.686,0
	C350.789,1.696,355.195,0,360,0h132C503.046,0,512,8.954,512,20z"/>
<path style="fill:#FAEDE0;" d="M512,20v470c0,11.046-8.954,20-20,20h-32c11.046,0,20-8.954,20-20V20c0-11.046-8.954-20-20-20h32
	C503.046,0,512,8.954,512,20z"/>
<g>
	<path style="fill:#F8DBB8;" d="M271.97,224.459l-5.363,5.363l5.363,5.363c2.93,2.929,2.93,7.677,0.001,10.606
		c-1.465,1.464-3.385,2.197-5.304,2.197s-3.839-0.732-5.303-2.197L256,240.428l-5.364,5.364c-1.464,1.464-3.384,2.197-5.303,2.197
		c-1.92,0-3.839-0.732-5.304-2.197c-2.929-2.929-2.929-7.678,0.001-10.606l5.364-5.363l-5.364-5.363
		c-2.93-2.929-2.93-7.677-0.001-10.606c2.93-2.929,7.679-2.93,10.606,0l5.364,5.364l5.364-5.364c2.929-2.929,7.678-2.929,10.606,0
		S274.899,221.53,271.97,224.459z M122.637,213.853c-2.93-2.929-7.678-2.929-10.607,0l-5.363,5.363l-5.363-5.363
		c-2.93-2.929-7.678-2.929-10.607,0s-2.929,7.678,0,10.606l5.363,5.363l-5.363,5.363c-2.929,2.929-2.929,7.678,0,10.606
		c1.465,1.464,3.385,2.197,5.304,2.197s3.839-0.732,5.304-2.197l5.363-5.363l5.363,5.363c1.465,1.464,3.385,2.197,5.304,2.197
		s3.839-0.732,5.304-2.197c2.929-2.929,2.929-7.678,0-10.606l-5.363-5.363l5.363-5.363
		C125.565,221.53,125.565,216.781,122.637,213.853z M421.304,213.853c-2.93-2.929-7.678-2.929-10.607,0l-5.363,5.363l-5.363-5.363
		c-2.93-2.929-7.678-2.929-10.607,0s-2.929,7.678,0,10.606l5.363,5.363l-5.363,5.363c-2.929,2.929-2.929,7.678,0,10.606
		c1.465,1.464,3.385,2.197,5.304,2.197s3.839-0.732,5.304-2.197l5.363-5.363l5.363,5.363c1.465,1.464,3.385,2.197,5.304,2.197
		s3.839-0.732,5.304-2.197c2.929-2.929,2.929-7.678,0-10.606l-5.363-5.363l5.363-5.363
		C424.232,221.53,424.232,216.781,421.304,213.853z M271.971,86.03c-2.929-2.929-7.678-2.93-10.606,0L256,91.394l-5.364-5.364
		c-2.928-2.93-7.677-2.929-10.606,0s-2.929,7.678,0.001,10.606l5.364,5.363l-5.364,5.363c-2.93,2.929-2.93,7.677-0.001,10.606
		c1.465,1.465,3.384,2.197,5.304,2.197c1.919,0,3.839-0.732,5.303-2.197l5.364-5.364l5.364,5.364
		c1.464,1.465,3.384,2.197,5.303,2.197s3.839-0.732,5.304-2.197c2.929-2.929,2.929-7.678-0.001-10.606L266.606,102l5.363-5.363
		C274.899,93.708,274.899,88.959,271.971,86.03z M122.637,86.03c-2.93-2.929-7.678-2.929-10.607,0l-5.363,5.363l-5.363-5.363
		c-2.93-2.929-7.678-2.929-10.607,0s-2.929,7.678,0,10.606L96.06,102l-5.363,5.363c-2.929,2.929-2.929,7.678,0,10.606
		c1.465,1.464,3.385,2.197,5.304,2.197s3.839-0.732,5.304-2.197l5.363-5.363l5.363,5.363c1.465,1.464,3.385,2.197,5.304,2.197
		s3.839-0.732,5.304-2.197c2.929-2.929,2.929-7.678,0-10.606L117.273,102l5.363-5.363C125.565,93.708,125.565,88.959,122.637,86.03z
		 M415.94,102l5.363-5.363c2.929-2.929,2.929-7.678,0-10.606c-2.93-2.929-7.678-2.929-10.607,0l-5.363,5.363l-5.363-5.363
		c-2.93-2.929-7.678-2.929-10.607,0s-2.929,7.678,0,10.606l5.363,5.363l-5.363,5.363c-2.929,2.929-2.929,7.678,0,10.606
		c1.465,1.464,3.385,2.197,5.304,2.197s3.839-0.732,5.304-2.197l5.363-5.363l5.363,5.363c1.465,1.464,3.385,2.197,5.304,2.197
		s3.839-0.732,5.304-2.197c2.929-2.929,2.929-7.678,0-10.606L415.94,102z M271.971,342.03c-2.929-2.929-7.678-2.929-10.606,0
		L256,347.394l-5.364-5.364c-2.928-2.93-7.677-2.929-10.606,0s-2.929,7.678,0.001,10.606l5.364,5.363l-5.364,5.363
		c-2.93,2.929-2.93,7.677-0.001,10.606c1.465,1.465,3.384,2.197,5.304,2.197c1.919,0,3.839-0.732,5.303-2.197l5.364-5.364
		l5.364,5.364c1.464,1.465,3.384,2.197,5.303,2.197s3.839-0.732,5.304-2.197c2.929-2.929,2.929-7.678-0.001-10.606L266.606,358
		l5.363-5.363C274.899,349.708,274.899,344.959,271.971,342.03z M122.637,342.03c-2.93-2.929-7.678-2.929-10.607,0l-5.363,5.363
		l-5.363-5.363c-2.93-2.929-7.678-2.929-10.607,0s-2.929,7.678,0,10.606L96.06,358l-5.363,5.363c-2.929,2.929-2.929,7.678,0,10.606
		c1.465,1.464,3.385,2.197,5.304,2.197s3.839-0.732,5.304-2.197l5.363-5.363l5.363,5.363c1.465,1.464,3.385,2.197,5.304,2.197
		s3.839-0.732,5.304-2.197c2.929-2.929,2.929-7.678,0-10.606L117.273,358l5.363-5.363
		C125.565,349.708,125.565,344.959,122.637,342.03z M421.304,342.03c-2.93-2.929-7.678-2.929-10.607,0l-5.363,5.363l-5.363-5.363
		c-2.93-2.929-7.678-2.929-10.607,0s-2.929,7.678,0,10.606l5.363,5.363l-5.363,5.363c-2.929,2.929-2.929,7.678,0,10.606
		c1.465,1.464,3.385,2.197,5.304,2.197s3.839-0.732,5.304-2.197l5.363-5.363l5.363,5.363c1.465,1.464,3.385,2.197,5.304,2.197
		s3.839-0.732,5.304-2.197c2.929-2.929,2.929-7.678,0-10.606L415.94,358l5.363-5.363
		C424.232,349.708,424.232,344.959,421.304,342.03z"/>
	<path style="fill:#F8DBB8;" d="M512,472.333V492c0,11.046-8.954,20-20,20H360c-4.805,0-9.211-1.696-12.657-4.522
		c-3.723-3.053-8.964-3.053-12.686,0C331.211,510.304,326.805,512,322,512H190c-4.805,0-9.211-1.696-12.657-4.522
		c-3.723-3.053-8.964-3.053-12.686,0C161.211,510.304,156.805,512,152,512H20c-11.046,0-20-8.954-20-20v-19.667
		c0-11.046,8.954-20,20-20h132c4.805,0,9.211,1.696,12.657,4.522c3.723,3.053,8.964,3.053,12.686,0
		c3.446-2.826,7.852-4.522,12.657-4.522h132c4.805,0,9.211,1.696,12.657,4.522c3.723,3.053,8.964,3.053,12.686,0
		c3.446-2.826,7.852-4.522,12.657-4.522h132C503.046,452.333,512,461.288,512,472.333z"/>
</g>
<path style="fill:#EBC9A0;" d="M512,472.333V492c0,11.046-8.954,20-20,20h-32c11.046,0,20-8.954,20-20v-19.667
	c0-0.394-0.036-0.778-0.059-1.167c0.022-0.388,0.059-0.773,0.059-1.167v-17.667h12C503.046,452.333,512,461.288,512,472.333z"/>
<g>
</g>
<g>
</g>
<g>
</g>
<g>
</g>
<g>
</g>
<g>
</g>
<g>
</g>
<g>
</g>
<g>
</g>
<g>
</g>
<g>
</g>
<g>
</g>
<g>
</g>
<g>
</g>
<g>
</g>
</svg>
