<?xml version="1.0" encoding="iso-8859-1"?>
<!-- Generator: Adobe Illustrator 19.0.0, SVG Export Plug-In . SVG Version: 6.00 Build 0)  -->
<svg version="1.1" id="Capa_1" xmlns="http://www.w3.org/2000/svg" xmlns:xlink="http://www.w3.org/1999/xlink" x="0px" y="0px"
	 viewBox="0 0 512 512" style="enable-background:new 0 0 512 512;" xml:space="preserve">
<path style="fill:#AFB9D2;" d="M400.722,490H111.278c-2.761,0-5-2.239-5-5V15c0-2.761,2.239-5,5-5h289.444c2.761,0,5,2.239,5,5v470
	C405.722,487.761,403.484,490,400.722,490z"/>
<path style="fill:#A5AFD3;" d="M399.231,490h-26.409c-2.761,0-5-2.239-5-5V15c0-2.761,2.239-5,5-5h26.409c2.761,0,5,2.239,5,5v470
	C404.231,487.761,401.993,490,399.231,490z"/>
<g>
	<path style="fill:#959CB5;" d="M421,5v30c0,2.761-2.225,5-4.97,5H95.97C93.225,40,91,37.761,91,35V5c0-2.761,2.225-5,4.97-5h320.06
		C418.775,0,421,2.239,421,5z M416.03,472H95.97c-2.745,0-4.97,2.239-4.97,5v30c0,2.761,2.225,5,4.97,5h320.06
		c2.745,0,4.97-2.239,4.97-5v-30C421,474.239,418.775,472,416.03,472z"/>
	<path style="fill:#959CB5;" d="M263.455,20v460c0,4.142-3.338,7.5-7.455,7.5c-4.117,0-7.455-3.358-7.455-7.5V20
		c0-4.142,3.338-7.5,7.455-7.5C260.117,12.5,263.455,15.858,263.455,20z"/>
</g>
<path style="fill:#8A90A7;" d="M205.399,120c0,4.142-3.338,7.5-7.455,7.5H159.75c-4.117,0-7.455-3.358-7.455-7.5
	s3.338-7.5,7.455-7.5h38.195C202.062,112.5,205.399,115.858,205.399,120z M197.945,382.5H159.75c-4.117,0-7.455,3.358-7.455,7.5
	s3.338,7.5,7.455,7.5h38.195c4.117,0,7.455-3.358,7.455-7.5S202.062,382.5,197.945,382.5z M197.945,82.5H159.75
	c-4.117,0-7.455,3.358-7.455,7.5s3.338,7.5,7.455,7.5h38.195c4.117,0,7.455-3.358,7.455-7.5S202.062,82.5,197.945,82.5z
	 M197.945,412.5H159.75c-4.117,0-7.455,3.358-7.455,7.5s3.338,7.5,7.455,7.5h38.195c4.117,0,7.455-3.358,7.455-7.5
	S202.062,412.5,197.945,412.5z M312.528,97.5h38.194c4.117,0,7.455-3.358,7.455-7.5s-3.338-7.5-7.455-7.5h-38.194
	c-4.117,0-7.455,3.358-7.455,7.5S308.411,97.5,312.528,97.5z M225.187,228.5c-4.117,0-7.455,3.358-7.455,7.5v40
	c0,4.142,3.338,7.5,7.455,7.5s7.455-3.358,7.455-7.5v-40C232.642,231.858,229.304,228.5,225.187,228.5z M350.722,112.5h-38.194
	c-4.117,0-7.455,3.358-7.455,7.5s3.338,7.5,7.455,7.5h38.194c4.117,0,7.455-3.358,7.455-7.5S354.839,112.5,350.722,112.5z
	 M350.722,382.5h-38.194c-4.117,0-7.455,3.358-7.455,7.5s3.338,7.5,7.455,7.5h38.194c4.117,0,7.455-3.358,7.455-7.5
	S354.839,382.5,350.722,382.5z M285.101,228.5c-4.117,0-7.455,3.358-7.455,7.5v40c0,4.142,3.338,7.5,7.455,7.5
	c4.117,0,7.455-3.358,7.455-7.5v-40C292.556,231.858,289.219,228.5,285.101,228.5z M350.722,412.5h-38.194
	c-4.117,0-7.455,3.358-7.455,7.5s3.338,7.5,7.455,7.5h38.194c4.117,0,7.455-3.358,7.455-7.5S354.839,412.5,350.722,412.5z"/>
<path style="fill:#737AA0;" d="M421,5v30c0,2.761-2.225,5-4.97,5h-31.807c2.745,0,4.97-2.239,4.97-5V5c0-2.761-2.225-5-4.97-5
	h31.807C418.775,0,421,2.239,421,5z M416.03,472h-31.807c2.745,0,4.97,2.239,4.97,5v30c0,2.761-2.225,5-4.97,5h31.807
	c2.745,0,4.97-2.239,4.97-5v-30C421,474.239,418.775,472,416.03,472z"/>
<g>
</g>
<g>
</g>
<g>
</g>
<g>
</g>
<g>
</g>
<g>
</g>
<g>
</g>
<g>
</g>
<g>
</g>
<g>
</g>
<g>
</g>
<g>
</g>
<g>
</g>
<g>
</g>
<g>
</g>
</svg>
