<?xml version="1.0" encoding="iso-8859-1"?>
<!-- Generator: Adobe Illustrator 19.0.0, SVG Export Plug-In . SVG Version: 6.00 Build 0)  -->
<svg version="1.1" id="Capa_1" xmlns="http://www.w3.org/2000/svg" xmlns:xlink="http://www.w3.org/1999/xlink" x="0px" y="0px"
	 viewBox="0 0 512.001 512.001" style="enable-background:new 0 0 512.001 512.001;" xml:space="preserve">
<path style="fill:#FFB446;" d="M235.455,287.274c0,18.075-14.652,32.727-32.727,32.727s-32.727-14.652-32.727-32.727
	s14.652-32.727,32.727-32.727S235.455,269.199,235.455,287.274z"/>
<path style="fill:#FFDC64;" d="M290,287.274c0,18.075-14.653,32.727-32.727,32.727c-18.075,0-32.727-14.652-32.727-32.727
	s14.652-32.727,32.727-32.727C275.347,254.546,290,269.199,290,287.274z"/>
<path style="fill:#A0D755;" d="M339.999,90.001v40c0,16.849-13.889,30.453-30.843,29.988C292.816,159.541,280,145.724,280,129.377
	V90.001c0-10.896,5.81-20.434,14.5-25.689V5.001c0-2.761,2.238-5,5-5h21c2.761,0,5,2.239,5,5v59.311
	C334.189,69.567,339.999,79.105,339.999,90.001z"/>
<path style="fill:#D5DCED;" d="M300,304.989v5.177c0,38.569-31.266,69.835-69.835,69.835h-0.33
	c-38.569,0-69.834-31.266-69.834-69.834v-5.177c0-2.755,2.233-4.988,4.988-4.988h130.022C297.766,300.001,300,302.234,300,304.989z"
	/>
<path style="fill:#57676E;" d="M156.001,477.001c0,19.33-15.67,35-35,35s-35-15.67-35-35s15.67-35,35-35
	S156.001,457.671,156.001,477.001z M390.999,442.001c-19.33,0-35,15.67-35,35s15.67,35,35,35s35-15.67,35-35
	S410.328,442.001,390.999,442.001z"/>
<path style="fill:#AFB9D2;" d="M128.501,42.589v437.412c0,4.142-3.357,7.5-7.5,7.5s-7.5-3.358-7.5-7.5V42.589
	c0-5.551-3.728-10.494-9.066-12.019L48.942,14.714c-3.982-1.138-6.289-5.289-5.151-9.272s5.291-6.289,9.272-5.151l55.494,15.855
	C120.299,19.503,128.501,30.376,128.501,42.589z M468.21,5.442c-1.139-3.983-5.294-6.289-9.272-5.151l-55.494,15.855
	c-11.743,3.355-19.945,14.229-19.945,26.442v437.413c0,4.142,3.357,7.5,7.5,7.5s7.5-3.358,7.5-7.5V42.589
	c0-5.551,3.728-10.494,9.066-12.019l55.494-15.855C467.041,13.576,469.347,9.425,468.21,5.442z"/>
<path style="fill:#8A90A7;" d="M401.998,375.001v30c0,2.761-2.238,5-5,5H115.002c-2.761,0-5-2.239-5-5v-30c0-2.761,2.239-5,5-5
	h281.997C399.76,370.001,401.998,372.24,401.998,375.001z M396.999,140.001H115.002c-2.761,0-5,2.239-5,5v30c0,2.761,2.239,5,5,5
	h281.997c2.761,0,5-2.239,5-5v-30C401.998,142.24,399.76,140.001,396.999,140.001z"/>
<path style="fill:#737AA0;" d="M401.998,375.001v30c0,2.761-2.238,5-5,5h-37.333c2.761,0,5-2.239,5-5v-30c0-2.761-2.238-5-5-5
	h37.333C399.76,370.001,401.998,372.24,401.998,375.001z M396.999,140.001h-37.333c2.761,0,5,2.239,5,5v30c0,2.761-2.238,5-5,5
	h37.333c2.761,0,5-2.239,5-5v-30C401.998,142.24,399.76,140.001,396.999,140.001z"/>
<g>
</g>
<g>
</g>
<g>
</g>
<g>
</g>
<g>
</g>
<g>
</g>
<g>
</g>
<g>
</g>
<g>
</g>
<g>
</g>
<g>
</g>
<g>
</g>
<g>
</g>
<g>
</g>
<g>
</g>
</svg>
