<?xml version="1.0" encoding="iso-8859-1"?>
<!-- Generator: Adobe Illustrator 19.0.0, SVG Export Plug-In . SVG Version: 6.00 Build 0)  -->
<svg version="1.1" id="Capa_1" xmlns="http://www.w3.org/2000/svg" xmlns:xlink="http://www.w3.org/1999/xlink" x="0px" y="0px"
	 viewBox="0 0 512 512" style="enable-background:new 0 0 512 512;" xml:space="preserve">
<path style="fill:#B16F52;" d="M413.778,490H115c-2.761,0-5-2.239-5-5V25c0-2.761,2.239-5,5-5h298.778c2.761,0,5,2.239,5,5v460
	C418.778,487.761,416.539,490,413.778,490z"/>
<path style="fill:#A5664B;" d="M413.778,490H395c-2.761,0-5-2.239-5-5V25c0-2.761,2.239-5,5-5h18.778c2.761,0,5,2.239,5,5v460
	C418.778,487.761,416.539,490,413.778,490z"/>
<path style="fill:#BAF6FF;" d="M205.266,490H98.222c-2.761,0-5-2.239-5-5V25c0-2.761,2.239-5,5-5h107.044c2.761,0,5,2.239,5,5v460
	C210.266,487.761,208.027,490,205.266,490z"/>
<g>
	<path style="fill:#A2DAF9;" d="M205.266,475.133H195c-2.761,0-5-2.239-5-5v-460c0-2.761,2.239-5,5-5h10.266c2.761,0,5,2.239,5,5
		v460C210.266,472.894,208.027,475.133,205.266,475.133z"/>
	<path style="fill:#A2DAF9;" d="M210.266,126.768v20.938c-0.47-0.294-0.917-0.64-1.326-1.049L148.054,85.77
		c-2.929-2.93-2.929-7.678,0-10.607c2.931-2.928,7.679-2.928,10.607,0L210.266,126.768z M125.06,228.706
		c1.919,0,3.839-0.732,5.304-2.196c2.929-2.93,2.929-7.678,0-10.607l-35.815-35.816c-0.409-0.409-0.856-0.754-1.326-1.049v20.938
		l26.534,26.535C121.221,227.974,123.14,228.706,125.06,228.706z M173.125,153.958c-2.929,2.93-2.929,7.678,0,10.607l35.815,35.815
		c0.409,0.409,0.856,0.754,1.326,1.049v-20.938l-26.534-26.534C180.802,151.03,176.054,151.03,173.125,153.958z M94.548,233.81
		c-0.409-0.409-0.856-0.754-1.326-1.049v20.938l51.604,51.605c1.465,1.464,3.384,2.196,5.304,2.196c1.919,0,3.839-0.732,5.304-2.196
		c2.929-2.93,2.929-7.678,0-10.607L94.548,233.81z"/>
</g>
<path style="fill:#F7A676;" d="M433.778,490H78.222c-2.761,0-5-2.239-5-5V345c0-2.761,2.239-5,5-5h355.556c2.761,0,5,2.239,5,5v140
	C438.778,487.761,436.539,490,433.778,490z"/>
<path style="fill:#E89A6A;" d="M433.778,490H405c-2.761,0-5-2.239-5-5V340h33.778c2.761,0,5,2.239,5,5v140
	C438.778,487.761,436.539,490,433.778,490z"/>
<path style="fill:#E07F54;" d="M438.778,405.001V485c0,2.761-2.239,5-5,5H78.222c-2.761,0-5-2.239-5-5v-79.999H438.778z"/>
<path style="fill:#D3754F;" d="M400,405.001h38.778v80c0,2.761-2.239,5-5,5H400V405.001z"/>
<path style="fill:#924A36;" d="M229.5,370c0-4.143,3.357-7.5,7.5-7.5h50c4.143,0,7.5,3.357,7.5,7.5s-3.357,7.5-7.5,7.5h-50
	C232.857,377.5,229.5,374.143,229.5,370z M287,426.503h-50c-4.143,0-7.5,3.357-7.5,7.5s3.357,7.5,7.5,7.5h50
	c4.143,0,7.5-3.357,7.5-7.5S291.143,426.503,287,426.503z"/>
<path style="fill:#FF8269;" d="M376,110v100h-40v70h-30V110c0-16.568,13.431-30,30-30l0,0h10C362.569,80,376,93.432,376,110z"/>
<path style="fill:#FF5050;" d="M376,110v100h-40V80h10C362.569,80,376,93.431,376,110z"/>
<path style="fill:#EBC9A0;" d="M261,80c8.284,0,15,6.716,15,15s-6.716,15-15,15s-15-6.716-15-15S252.716,80,261,80z M326,95
	c0,8.284,6.716,15,15,15s15-6.716,15-15s-6.716-15-15-15S326,86.716,326,95z M81,40h350c2.761,0,5-2.239,5-5V5c0-2.761-2.239-5-5-5
	H81c-2.761,0-5,2.239-5,5v30C76,37.761,78.239,40,81,40z M451,472H61c-2.761,0-5,2.239-5,5v30c0,2.761,2.239,5,5,5h390
	c2.761,0,5-2.239,5-5v-30C456,474.239,453.761,472,451,472z"/>
<path style="fill:#D7AF87;" d="M406,35V5c0-2.761-2.239-5-5-5h30c2.761,0,5,2.239,5,5v30c0,2.762-2.239,5-5,5h-30
	C403.761,40,406,37.762,406,35z M451,472h-30c2.761,0,5,2.239,5,5v30c0,2.762-2.239,5-5,5h30c2.761,0,5-2.238,5-5v-30
	C456,474.239,453.761,472,451,472z"/>
<g>
</g>
<g>
</g>
<g>
</g>
<g>
</g>
<g>
</g>
<g>
</g>
<g>
</g>
<g>
</g>
<g>
</g>
<g>
</g>
<g>
</g>
<g>
</g>
<g>
</g>
<g>
</g>
<g>
</g>
</svg>
