<?xml version="1.0" encoding="iso-8859-1"?>
<!-- Generator: Adobe Illustrator 19.0.0, SVG Export Plug-In . SVG Version: 6.00 Build 0)  -->
<svg version="1.1" id="Capa_1" xmlns="http://www.w3.org/2000/svg" xmlns:xlink="http://www.w3.org/1999/xlink" x="0px" y="0px"
	 viewBox="0 0 512 512" style="enable-background:new 0 0 512 512;" xml:space="preserve">
<path style="fill:#D7AF87;" d="M471,290.5H41V5c0-2.761,2.239-5,5-5h420c2.762,0,5,2.239,5,5V290.5z M484.5,447h-457
	c-2.761,0-5,2.239-5,5v55c0,2.761,2.239,5,5,5h50c2.761,0,5-2.239,5-5v-17h347v17c0,2.761,2.239,5,5,5h50c2.762,0,5-2.239,5-5v-55
	C489.5,449.239,487.262,447,484.5,447z"/>
<path style="fill:#BAF6FF;" d="M432,220H80V40h352V220z"/>
<g>
	<path style="fill:#A2DAF9;" d="M432,220h-32V40h32V220z"/>
	<path style="fill:#A2DAF9;" d="M281.303,149.696c2.929,2.93,2.929,7.678,0,10.607l-50,50c-1.464,1.464-3.384,2.196-5.303,2.196
		s-3.839-0.732-5.303-2.196c-2.929-2.93-2.929-7.678,0-10.607l50-50C273.625,146.769,278.375,146.769,281.303,149.696z
		 M391.303,114.696c-2.929-2.928-7.678-2.928-10.606,0l-85,85c-2.929,2.93-2.929,7.678,0,10.607
		c1.464,1.464,3.384,2.196,5.303,2.196s3.839-0.732,5.303-2.196l85-85C394.232,122.374,394.232,117.626,391.303,114.696z
		 M200.393,40l-79.696,79.696c-2.929,2.93-2.929,7.678,0,10.607c1.464,1.464,3.384,2.196,5.303,2.196s3.839-0.732,5.303-2.196l85-85
		c1.465-1.465,2.197-3.384,2.197-5.304h-18.107V40z M275.393,40l-44.696,44.696c-2.929,2.93-2.929,7.678,0,10.607
		c1.464,1.464,3.384,2.196,5.303,2.196s3.839-0.732,5.303-2.196l50-50c1.465-1.465,2.197-3.384,2.197-5.304L275.393,40L275.393,40z"
		/>
</g>
<path style="fill:#F7A676;" d="M481,430H31V230h450V430z"/>
<path style="fill:#E89A6A;" d="M481,430h-41V230h41V430z"/>
<path style="fill:#E07F54;" d="M481,327H31V227h450V327z"/>
<path style="fill:#D1754F;" d="M481,327h-41v-90.667h41V327z"/>
<path style="fill:#B16F52;" d="M263.5,228.688v194.623c0,4.799-3.358,8.688-7.5,8.688s-7.5-3.889-7.5-8.688V228.688
	c0-4.799,3.358-8.688,7.5-8.688S263.5,223.889,263.5,228.688z"/>
<path style="fill:#EBC9A0;" d="M507,200H5c-2.761,0-5,2.239-5,5v244c0,2.761,2.239,5,5,5h502c2.761,0,5-2.239,5-5V205
	C512,202.239,509.761,200,507,200z M472,240v174H40V240H472z"/>
<path style="fill:#924A36;" d="M183.25,280c0,4.143-3.358,7.5-7.5,7.5h-59.5c-4.142,0-7.5-3.357-7.5-7.5s3.358-7.5,7.5-7.5h59.5
	C179.892,272.5,183.25,275.857,183.25,280z M175.75,362.5h-59.5c-4.142,0-7.5,3.357-7.5,7.5s3.358,7.5,7.5,7.5h59.5
	c4.142,0,7.5-3.357,7.5-7.5S179.892,362.5,175.75,362.5z M336.25,287.5h59.5c4.142,0,7.5-3.357,7.5-7.5s-3.358-7.5-7.5-7.5h-59.5
	c-4.142,0-7.5,3.357-7.5,7.5S332.108,287.5,336.25,287.5z M395.75,362.5h-59.5c-4.142,0-7.5,3.357-7.5,7.5s3.358,7.5,7.5,7.5h59.5
	c4.142,0,7.5-3.357,7.5-7.5S399.892,362.5,395.75,362.5z"/>
<g>
</g>
<g>
</g>
<g>
</g>
<g>
</g>
<g>
</g>
<g>
</g>
<g>
</g>
<g>
</g>
<g>
</g>
<g>
</g>
<g>
</g>
<g>
</g>
<g>
</g>
<g>
</g>
<g>
</g>
</svg>
