<?xml version="1.0" encoding="iso-8859-1"?>
<!-- Generator: Adobe Illustrator 19.0.0, SVG Export Plug-In . SVG Version: 6.00 Build 0)  -->
<svg version="1.1" id="Capa_1" xmlns="http://www.w3.org/2000/svg" xmlns:xlink="http://www.w3.org/1999/xlink" x="0px" y="0px"
	 viewBox="0 0 512 512" style="enable-background:new 0 0 512 512;" xml:space="preserve">
<path style="fill:#EBC9A0;" d="M472,116v256.666V386v40c0,2.761-2.239,5-5,5h-50c-2.761,0-5-2.239-5-5v-35H100v35
	c0,2.761-2.239,5-5,5H45c-2.761,0-5-2.239-5-5v-40v-13.334V116c0-2.761,2.239-5,5-5h422C469.761,111,472,113.239,472,116z"/>
<path style="fill:#E1B894;" d="M472,116v270c0,2.761-2.239,5-5,5h-32c2.761,0,5-2.239,5-5V116c0-2.761-2.239-5-5-5h32
	C469.761,111,472,113.239,472,116z"/>
<g>
	<path style="fill:#D7AF87;" d="M472,203.574v14.851c-0.328,0.044-0.66,0.074-1,0.074h-97.5V380c0,4.142-3.358,7.5-7.5,7.5
		s-7.5-3.358-7.5-7.5V218.5h-95V380c0,4.142-3.358,7.5-7.5,7.5s-7.5-3.358-7.5-7.5V218.5h-95V380c0,4.142-3.358,7.5-7.5,7.5
		s-7.5-3.358-7.5-7.5V218.5H41c-0.34,0-0.672-0.03-1-0.074v-14.851c0.328-0.044,0.66-0.074,1-0.074h207.5V111h15v92.5H471
		C471.34,203.5,471.672,203.53,472,203.574z"/>
	<path style="fill:#D7AF87;" d="M482,366v30c0,2.761-2.239,5-5,5H35c-2.761,0-5-2.239-5-5v-30c0-2.761,2.239-5,5-5h442
		C479.761,361,482,363.239,482,366z M507,81H5c-2.761,0-5,2.239-5,5v30c0,2.761,2.239,5,5,5h502c2.761,0,5-2.239,5-5V86
		C512,83.239,509.761,81,507,81z"/>
</g>
<path style="fill:#C49D7A;" d="M512,86v30c0,2.761-2.239,5-5,5h-30c2.761,0,5-2.239,5-5V86c0-2.761-2.239-5-5-5h30
	C509.761,81,512,83.239,512,86z M477,361h-30c2.761,0,5,2.239,5,5v30c0,2.761-2.239,5-5,5h30c2.761,0,5-2.239,5-5v-30
	C482,363.239,479.761,361,477,361z"/>
<path style="fill:#57676E;" d="M113.5,150c0-4.142,3.358-7.5,7.5-7.5h50c4.142,0,7.5,3.358,7.5,7.5s-3.358,7.5-7.5,7.5h-50
	C116.858,157.5,113.5,154.142,113.5,150z M116,262.5c-4.142,0-7.5,3.358-7.5,7.5v30c0,4.142,3.358,7.5,7.5,7.5s7.5-3.358,7.5-7.5
	v-30C123.5,265.858,120.142,262.5,116,262.5z M341,157.5h50c4.142,0,7.5-3.358,7.5-7.5s-3.358-7.5-7.5-7.5h-50
	c-4.142,0-7.5,3.358-7.5,7.5S336.858,157.5,341,157.5z M396,262.5c-4.142,0-7.5,3.358-7.5,7.5v30c0,4.142,3.358,7.5,7.5,7.5
	s7.5-3.358,7.5-7.5v-30C403.5,265.858,400.142,262.5,396,262.5z M336,262.5c-4.142,0-7.5,3.358-7.5,7.5v30
	c0,4.142,3.358,7.5,7.5,7.5s7.5-3.358,7.5-7.5v-30C343.5,265.858,340.142,262.5,336,262.5z M176,262.5c-4.142,0-7.5,3.358-7.5,7.5
	v30c0,4.142,3.358,7.5,7.5,7.5s7.5-3.358,7.5-7.5v-30C183.5,265.858,180.142,262.5,176,262.5z"/>
<g>
</g>
<g>
</g>
<g>
</g>
<g>
</g>
<g>
</g>
<g>
</g>
<g>
</g>
<g>
</g>
<g>
</g>
<g>
</g>
<g>
</g>
<g>
</g>
<g>
</g>
<g>
</g>
<g>
</g>
</svg>
