<?xml version="1.0" encoding="iso-8859-1"?>
<!-- Generator: Adobe Illustrator 19.0.0, SVG Export Plug-In . SVG Version: 6.00 Build 0)  -->
<svg version="1.1" id="Capa_1" xmlns="http://www.w3.org/2000/svg" xmlns:xlink="http://www.w3.org/1999/xlink" x="0px" y="0px"
	 viewBox="0 0 512 512" style="enable-background:new 0 0 512 512;" xml:space="preserve">
<path style="fill:#EBC9A0;" d="M180.559,275v232c0,2.761-2.222,5-4.963,5h-29.779c-2.741,0-4.963-2.239-4.963-5V275
	c0-2.761,2.222-5,4.963-5h29.779C178.337,270,180.559,272.239,180.559,275z M366.184,270h-29.779c-2.741,0-4.963,2.239-4.963,5v232
	c0,2.761,2.222,5,4.963,5h29.779c2.741,0,4.963-2.239,4.963-5V275C371.147,272.239,368.925,270,366.184,270z"/>
<path style="fill:#D7AF87;" d="M366.147,330H145.853c-2.761,0-5-2.239-5-5v-40c0-2.761,2.239-5,5-5h220.294c2.761,0,5,2.239,5,5v40
	C371.147,327.761,368.908,330,366.147,330z"/>
<path style="fill:#C49D7A;" d="M371.147,285v40c0,2.761-2.222,5-4.963,5h-39.706c2.741,0,4.963-2.239,4.963-5v-40
	c0-2.761-2.222-5-4.963-5h39.706C368.925,280,371.147,282.239,371.147,285z"/>
<path style="fill:#959CB5;" d="M346.294,260H165.706c-2.761,0-5-2.239-5-5V30c0-16.569,13.431-30,30-30h130.588
	c16.569,0,30,13.431,30,30v225C351.294,257.761,349.056,260,346.294,260z"/>
<path style="fill:#8A90A7;" d="M351.294,30v225c0,2.761-2.222,5-4.963,5H165.669c-2.293,0-4.204-1.575-4.774-3.704
	C245.726,239.05,309.603,163.542,309.603,73V30c0-16.569-13.333-30-29.779-30h41.691C337.961,0,351.294,13.431,351.294,30z"/>
<path style="fill:#AFB9D2;" d="M371,290H141c-11.046,0-20-8.954-20-20l0,0c0-11.046,8.954-20,20-20h230c11.046,0,20,8.954,20,20l0,0
	C391,281.046,382.046,290,371,290z"/>
<path style="fill:#959CB5;" d="M391,270L391,270c0,11.046-8.889,20-19.853,20h-31.765c10.964,0,19.853-8.954,19.853-20l0,0
	c0-11.046-8.888-20-19.853-20h31.765C382.111,250,391,258.954,391,270z"/>
<g>
</g>
<g>
</g>
<g>
</g>
<g>
</g>
<g>
</g>
<g>
</g>
<g>
</g>
<g>
</g>
<g>
</g>
<g>
</g>
<g>
</g>
<g>
</g>
<g>
</g>
<g>
</g>
<g>
</g>
</svg>
