<?xml version="1.0" encoding="iso-8859-1"?>
<!-- Generator: Adobe Illustrator 19.0.0, SVG Export Plug-In . SVG Version: 6.00 Build 0)  -->
<svg version="1.1" id="Capa_1" xmlns="http://www.w3.org/2000/svg" xmlns:xlink="http://www.w3.org/1999/xlink" x="0px" y="0px"
	 viewBox="0 0 512 512" style="enable-background:new 0 0 512 512;" xml:space="preserve">
<g>
	<path style="fill:#924A36;" d="M60,296.216v92.269c0,2.77-2.239,5.015-5,5.015H25c-2.761,0-5-2.245-5-5.015v-92.269
		c0-2.77,2.239-5.015,5-5.015h30C57.761,291.201,60,293.446,60,296.216z M271,291.201h-30c-2.761,0-5,2.245-5,5.015v92.269
		c0,2.77,2.239,5.015,5,5.015h30c2.761,0,5-2.245,5-5.015v-92.269C276,293.446,273.76,291.201,271,291.201z M495,291.201h-30
		c-2.761,0-5,2.245-5,5.015v92.269c0,2.77,2.239,5.015,5,5.015h30c2.761,0,5-2.245,5-5.015v-92.269
		C500,293.446,497.76,291.201,495,291.201z"/>
	<path style="fill:#924A36;" d="M66.809,214.119l-30,65.19c-1.266,2.751-3.979,4.372-6.814,4.372c-1.052,0-2.12-0.223-3.138-0.694
		c-3.761-1.74-5.402-6.21-3.667-9.981l30-65.19c1.736-3.772,6.189-5.418,9.953-3.678C66.903,205.878,68.544,210.347,66.809,214.119z
		"/>
</g>
<path style="fill:#E07F54;" d="M495,321.289H25c-2.761,0-5-2.239-5-5v-40.146c0-2.761,2.239-5,5-5h470c2.761,0,5,2.239,5,5v40.146
	C500,319.05,497.76,321.289,495,321.289z"/>
<path style="fill:#D3754F;" d="M500,276.157v40.117c0,2.77-2.239,5.015-5,5.015h-7h-40c2.761,0,5-2.245,5-5.015l0,0
	c0-8.917-7.208-16.146-16.099-16.146H20v-23.97c0-2.77,2.239-5.015,5-5.015h423h47C497.76,271.142,500,273.388,500,276.157z"/>
<path style="fill:#A0D755;" d="M512,241.064v18.053c0,11.078-8.954,20.058-20,20.058h-362c-0.413,0-0.817-0.037-1.224-0.062
	c-5.541,0.359-11.203-1.565-15.438-5.813L5.858,165.506c-7.81-7.833-7.81-20.534,0-28.367l12.728-12.765
	c7.81-7.833,20.474-7.833,28.284,0l96.35,96.632H492C503.046,221.006,512,229.986,512,241.064z"/>
<path style="fill:#94C449;" d="M512,241.064v18.053c0,11.078-8.954,20.058-20,20.058h-32c11.046,0,20-8.98,20-20.058v-18.053
	c0-11.078-8.954-20.058-20-20.058h32C503.046,221.006,512,229.986,512,241.064z"/>
<path style="fill:#8CB23B;" d="M149.854,221.006c-0.373,1.966-3.075,26.468-3.075,26.468c0,4.155-3.358,7.522-7.5,7.522
	s-7.5-3.367-7.5-7.522v-20.351h-12.5c-4.142,0-7.5-3.367-7.5-7.522s3.358-7.522,7.5-7.522h14.686
	c0.059-0.059,0.124-0.112,0.185-0.169l9.069,9.096L149.854,221.006L149.854,221.006z"/>
<g>
</g>
<g>
</g>
<g>
</g>
<g>
</g>
<g>
</g>
<g>
</g>
<g>
</g>
<g>
</g>
<g>
</g>
<g>
</g>
<g>
</g>
<g>
</g>
<g>
</g>
<g>
</g>
<g>
</g>
</svg>
