<?xml version="1.0" encoding="iso-8859-1"?>
<!-- Generator: Adobe Illustrator 19.0.0, SVG Export Plug-In . SVG Version: 6.00 Build 0)  -->
<svg version="1.1" id="Capa_1" xmlns="http://www.w3.org/2000/svg" xmlns:xlink="http://www.w3.org/1999/xlink" x="0px" y="0px"
	 viewBox="0 0 512 512" style="enable-background:new 0 0 512 512;" xml:space="preserve">
<path style="fill:#C84146;" d="M460,20.979V150.44c0,2.75-2.239,4.979-5,4.979h-7.087c-3.859,8.791-12.663,14.937-22.913,14.937
	c-13.807,0-25-11.146-25-24.896c0-12.045,8.589-22.091,20-24.397V20.979c0-2.75,2.239-4.979,5-4.979h30
	C457.761,16,460,18.229,460,20.979z"/>
<path style="fill:#FFB446;" d="M385,16h30c2.761,0,5,2.239,5,5v149.335c0,2.761-2.239,5-5,5h-30c-2.761,0-5-2.239-5-5V21
	C380,18.239,382.239,16,385,16z"/>
<path style="fill:#57676E;" d="M385.207,155.398c2.664,0.11,4.793,2.279,4.793,4.958v29.876c0,2.75-2.239,4.979-5,4.979H255
	c-2.761,0-5-2.229-5-4.979v-29.876c0-2.679,2.13-4.848,4.793-4.958c-2.663-0.11-4.793-2.279-4.793-4.959v-29.876
	c0-2.75,2.239-4.979,5-4.979h130c2.761,0,5,2.229,5,4.979v29.876C390,153.119,387.87,155.288,385.207,155.398z"/>
<path style="fill:#A2DAF9;" d="M170,120.564L170,120.564c0,19.25-15.67,34.855-35,34.855h4.167v20.248h-28.333v-20.248H115
	c-19.33,0-35-15.605-35-34.855l0,0c0-17.558,13.04-32.078,30-34.495V45.876h30V86.07C156.96,88.486,170,103.006,170,120.564z"/>
<path style="fill:#70B5E8;" d="M157.5,45.875c0,4.125-3.357,7.469-7.5,7.469h-50c-4.143,0-7.5-3.343-7.5-7.469
	s3.357-7.469,7.5-7.469h50C154.143,38.406,157.5,41.75,157.5,45.875z"/>
<path style="fill:#D7AF87;" d="M160.68,369.276l-46.269,123.485c-0.73,1.947-2.597,3.238-4.685,3.238H79.441
	c-3.202,0-5.579-2.955-4.879-6.067l27.761-123.486c0.511-2.274,2.539-3.891,4.879-3.891h48.793
	C159.483,362.556,161.899,366.022,160.68,369.276z M437.438,489.933l-27.761-123.486c-0.511-2.274-2.539-3.891-4.879-3.891h-48.793
	c-3.488,0-5.904,3.466-4.685,6.72l46.269,123.485c0.73,1.947,2.597,3.238,4.685,3.238h30.286
	C435.761,496,438.138,493.045,437.438,489.933z"/>
<path style="fill:#E07F54;" d="M507,394.423H5c-2.761,0-5-2.239-5-5V245.065c0-2.761,2.239-5,5-5h502c2.761,0,5,2.239,5,5v144.358
	C512,392.185,509.761,394.423,507,394.423z"/>
<path style="fill:#D3754F;" d="M512,245.044v144.4c0,2.75-2.238,4.979-5,4.979h-42c2.761,0,5-2.229,5-4.979v-144.4
	c0-2.75-2.239-4.979-5-4.979h42C509.762,240.065,512,242.294,512,245.044z"/>
<path style="fill:#F7A676;" d="M507,274.921H5c-2.761,0-5-2.239-5-5V160.419c0-2.761,2.239-5,5-5h502c2.761,0,5,2.239,5,5v109.502
	C512,272.683,509.761,274.921,507,274.921z"/>
<path style="fill:#E89A6A;" d="M512,160.398v109.544c0,2.75-2.239,4.979-5,4.979h-42c2.761,0,5-2.229,5-4.979V160.398
	c0-2.75-2.239-4.979-5-4.979h42C509.761,155.419,512,157.648,512,160.398z"/>
<path style="fill:#B16F52;" d="M263.5,155.419v239.004h-15V155.419H263.5z"/>
<path style="fill:#924A36;" d="M162.759,314.755c0,4.125-3.357,7.469-7.5,7.469h-47.407c-4.143,0-7.5-3.343-7.5-7.469
	s3.357-7.469,7.5-7.469h47.407C159.401,307.286,162.759,310.63,162.759,314.755z M356.741,202.722h47.407
	c4.143,0,7.5-3.343,7.5-7.469c0-4.125-3.357-7.469-7.5-7.469h-47.407c-4.143,0-7.5,3.343-7.5,7.469
	C349.241,199.378,352.599,202.722,356.741,202.722z M404.148,307.286h-47.407c-4.143,0-7.5,3.343-7.5,7.469s3.357,7.469,7.5,7.469
	h47.407c4.143,0,7.5-3.343,7.5-7.469S408.291,307.286,404.148,307.286z M155.259,187.784h-47.407c-4.143,0-7.5,3.343-7.5,7.469
	c0,4.125,3.357,7.469,7.5,7.469h47.407c4.143,0,7.5-3.343,7.5-7.469S159.401,187.784,155.259,187.784z"/>
<g>
</g>
<g>
</g>
<g>
</g>
<g>
</g>
<g>
</g>
<g>
</g>
<g>
</g>
<g>
</g>
<g>
</g>
<g>
</g>
<g>
</g>
<g>
</g>
<g>
</g>
<g>
</g>
<g>
</g>
</svg>
