<?xml version="1.0" encoding="iso-8859-1"?>
<!-- Generator: Adobe Illustrator 19.0.0, SVG Export Plug-In . SVG Version: 6.00 Build 0)  -->
<svg version="1.1" id="Capa_1" xmlns="http://www.w3.org/2000/svg" xmlns:xlink="http://www.w3.org/1999/xlink" x="0px" y="0px"
	 viewBox="0 0 512 512" style="enable-background:new 0 0 512 512;" xml:space="preserve">
<path style="fill:#959CB5;" d="M101,185.301v59.746c0,2.75-2.239,4.979-5,4.979H66c-2.761,0-5-2.229-5-4.979v-59.746
	c0-2.75,2.239-4.979,5-4.979h30C98.761,180.322,101,182.551,101,185.301z M446,180.322h-30c-2.761,0-5,2.229-5,4.979v59.746
	c0,2.75,2.239,4.979,5,4.979h30c2.761,0,5-2.229,5-4.979v-59.746C451,182.551,448.761,180.322,446,180.322z M271,100.661h-30
	c-2.761,0-5,2.229-5,4.979v139.407c0,2.75,2.239,4.979,5,4.979h30c2.761,0,5-2.229,5-4.979V105.64
	C276,102.89,273.761,100.661,271,100.661z"/>
<path style="fill:#AFB9D2;" d="M312,205.216v29.873c0,2.75-2.239,4.979-5,4.979H205c-2.761,0-5-2.229-5-4.979v-29.873
	c0-2.75,2.239-4.979,5-4.979h102C309.761,200.237,312,202.466,312,205.216z M367,21H145c-2.761,0-5,2.229-5,4.979v124.47
	c0,2.75,2.239,4.979,5,4.979h222c2.761,0,5-2.229,5-4.979V25.979C372,23.229,369.761,21,367,21z"/>
<path style="fill:#959CB5;" d="M312,205.216v29.873c0,2.75-2.239,4.979-5,4.979h-22c2.761,0,5-2.229,5-4.979v-29.873
	c0-2.75-2.239-4.979-5-4.979h22C309.761,200.237,312,202.466,312,205.216z M367,21h-30c2.761,0,5,2.229,5,4.979v124.47
	c0,2.75-2.239,4.979-5,4.979h30c2.761,0,5-2.229,5-4.979V25.979C372,23.229,369.761,21,367,21z"/>
<path style="fill:#A2DAF9;" d="M372,26v94.555c0,2.761-2.239,5-5,5H145c-2.761,0-5-2.239-5-5V26c0-2.761,2.239-5,5-5h222
	C369.761,21,372,23.239,372,26z"/>
<path style="fill:#84C5FA;" d="M372,25.979v94.597c0,2.75-2.239,4.979-5,4.979h-24.999V32.954c0-0.004-0.001-0.008-0.001-0.013
	v-6.962c0-2.75-2.239-4.979-5-4.979h30C369.761,21,372,23.229,372,25.979z"/>
<path style="fill:#EBC9A0;" d="M70,255.004v231.017c0,2.75-2.239,4.979-5,4.979H35c-2.761,0-5-2.229-5-4.979V255.004
	c0-2.75,2.239-4.979,5-4.979h30C67.761,250.025,70,252.254,70,255.004z M477,250.025h-30c-2.761,0-5,2.229-5,4.979v231.017
	c0,2.75,2.239,4.979,5,4.979h30c2.761,0,5-2.229,5-4.979V255.004C482,252.254,479.761,250.025,477,250.025z"/>
<path style="fill:#D7AF87;" d="M477,329.686H35c-2.761,0-5-2.239-5-5v-79.619c0-2.761,2.239-5,5-5h442c2.761,0,5,2.239,5,5v79.619
	C482,327.448,479.761,329.686,477,329.686z"/>
<path style="fill:#C49D7A;" d="M482,245.047v79.661c0,2.75-2.239,4.979-5,4.979h-40c2.761,0,5-2.229,5-4.979v-79.661
	c0-2.75-2.239-4.979-5-4.979h40C479.761,240.068,482,242.297,482,245.047z"/>
<path style="fill:#B16F52;" d="M377,329.686H135c-2.761,0-5-2.239-5-5v-79.619c0-2.761,2.239-5,5-5h242c2.761,0,5,2.239,5,5v79.619
	C382,327.448,379.761,329.686,377,329.686z"/>
<path style="fill:#EBC9A0;" d="M507,269.941H5c-2.761,0-5-2.239-5-5V235.11c0-2.761,2.239-5,5-5h502c2.761,0,5,2.239,5,5v29.831
	C512,267.702,509.761,269.941,507,269.941z"/>
<path style="fill:#924A36;" d="M283.5,299.814c0,4.125-3.357,7.468-7.5,7.468h-40c-4.142,0-7.5-3.344-7.5-7.468
	s3.358-7.468,7.5-7.468h40C280.143,292.345,283.5,295.689,283.5,299.814z"/>
<path style="fill:#D7AF87;" d="M512,235.089v29.873c0,2.75-2.239,4.979-5,4.979h-30c2.761,0,5-2.229,5-4.979v-29.873
	c0-2.75-2.239-4.979-5-4.979h30C509.761,230.11,512,232.339,512,235.089z"/>
<g>
</g>
<g>
</g>
<g>
</g>
<g>
</g>
<g>
</g>
<g>
</g>
<g>
</g>
<g>
</g>
<g>
</g>
<g>
</g>
<g>
</g>
<g>
</g>
<g>
</g>
<g>
</g>
<g>
</g>
</svg>
