<?xml version="1.0" encoding="iso-8859-1"?>
<!-- Generator: Adobe Illustrator 19.0.0, SVG Export Plug-In . SVG Version: 6.00 Build 0)  -->
<svg version="1.1" id="Capa_1" xmlns="http://www.w3.org/2000/svg" xmlns:xlink="http://www.w3.org/1999/xlink" x="0px" y="0px"
	 viewBox="0 0 512 512" style="enable-background:new 0 0 512 512;" xml:space="preserve">
<path style="fill:#E07F54;" d="M492,390H20V60h472V390z"/>
<path style="fill:#D3754F;" d="M492,390h-62V60h62V390z"/>
<path style="fill:#D7AF87;" d="M489.5,416v55c0,2.761-2.239,5-5,5h-50c-2.761,0-5-2.239-5-5v-17h-347v17c0,2.761-2.239,5-5,5h-50
	c-2.761,0-5-2.239-5-5v-55c0-2.761,2.239-5,5-5h457C487.261,411,489.5,413.239,489.5,416z"/>
<path style="fill:#F7A676;" d="M481,176.667v100.667H31V176.667H481z"/>
<path style="fill:#E89A6A;" d="M481,176.667v100.667h-50V176.667H481z"/>
<path style="fill:#EBC9A0;" d="M507,36H5c-2.761,0-5,2.239-5,5v372c0,2.761,2.239,5,5,5h502c2.761,0,5-2.239,5-5V41
	C512,38.239,509.761,36,507,36z M472,76v302H40V76H472z"/>
<path style="fill:#924A36;" d="M202.5,120c0-4.143,3.358-7.5,7.5-7.5h92c4.142,0,7.5,3.357,7.5,7.5s-3.358,7.5-7.5,7.5h-92
	C205.858,127.5,202.5,124.143,202.5,120z M302,212.5h-92c-4.142,0-7.5,3.357-7.5,7.5s3.358,7.5,7.5,7.5h92
	c4.142,0,7.5-3.357,7.5-7.5S306.142,212.5,302,212.5z M302,312.5h-92c-4.142,0-7.5,3.357-7.5,7.5s3.358,7.5,7.5,7.5h92
	c4.142,0,7.5-3.357,7.5-7.5S306.142,312.5,302,312.5z"/>
<g>
</g>
<g>
</g>
<g>
</g>
<g>
</g>
<g>
</g>
<g>
</g>
<g>
</g>
<g>
</g>
<g>
</g>
<g>
</g>
<g>
</g>
<g>
</g>
<g>
</g>
<g>
</g>
<g>
</g>
</svg>
