<?xml version="1.0" encoding="iso-8859-1"?>
<!-- Generator: Adobe Illustrator 19.0.0, SVG Export Plug-In . SVG Version: 6.00 Build 0)  -->
<svg version="1.1" id="Capa_1" xmlns="http://www.w3.org/2000/svg" xmlns:xlink="http://www.w3.org/1999/xlink" x="0px" y="0px"
	 viewBox="0 0 511.999 511.999" style="enable-background:new 0 0 511.999 511.999;" xml:space="preserve">
<path style="fill:#EBC9A0;" d="M208.752,384.747l-46.006,124c-0.726,1.955-2.583,3.252-4.658,3.252h-30.114
	c-3.184,0-5.547-2.968-4.851-6.092l27.603-124c0.508-2.284,2.524-3.908,4.851-3.908h48.516
	C207.562,377.999,209.964,381.479,208.752,384.747z M388.877,505.907l-27.603-124c-0.508-2.284-2.524-3.908-4.851-3.908h-48.516
	c-3.468,0-5.87,3.48-4.658,6.748l46.006,124c0.726,1.955,2.583,3.252,4.658,3.252h30.114
	C387.209,511.999,389.572,509.031,388.877,505.907z"/>
<path style="fill:#D7AF87;" d="M376.284,419.999H135.716c-2.761,0-5-2.239-5-5v-70c0-2.761,2.239-5,5-5h240.568c2.761,0,5,2.239,5,5
	v70C381.284,417.761,379.046,419.999,376.284,419.999z"/>
<path style="fill:#C49D7A;" d="M381.284,344.999v70c0,2.761-2.226,5-4.972,5h-41.761c2.746,0,4.972-2.239,4.972-5v-70
	c0-2.761-2.226-5-4.972-5h41.761C379.058,339.999,381.284,342.238,381.284,344.999z"/>
<path style="fill:#FFB446;" d="M391,379.999H121c-22.091,0-40-17.909-40-40v-80c0-22.091,17.909-40,40-40h270
	c22.091,0,40,17.909,40,40v80C431,362.09,413.091,379.999,391,379.999z"/>
<path style="fill:#FFC850;" d="M348.472,379.999H120.773c-21.966,0-39.773-17.909-39.773-40v-80c0-22.091,17.807-40,39.773-40
	h227.699c21.966,0,39.773,17.909,39.773,40v80C388.244,362.09,370.437,379.999,348.472,379.999z"/>
<path style="fill:#FFDC64;" d="M351.455,319.999h-190.91c-10.983,0-19.886-8.954-19.886-20V20.021
	c0-14.376,14.631-24.057,27.758-18.366l4.814,2.087c52.83,22.902,112.707,22.902,165.537,0l4.814-2.087
	c13.127-5.691,27.758,3.99,27.758,18.366v279.978C371.341,311.045,362.437,319.999,351.455,319.999z"/>
<path style="fill:#FFF082;" d="M140.659,278.509V20.021c0-14.376,14.631-24.057,27.758-18.366l4.815,2.087
	c50.281,21.797,106.942,22.832,157.839,3.138v60.619C331.071,177.667,247.513,268.196,140.659,278.509z"/>
<path style="fill:#FFB446;" d="M263.457,89.999v160c0,4.142-3.339,7.5-7.457,7.5c-4.119,0-7.457-3.358-7.457-7.5v-160
	c0-4.142,3.339-7.5,7.457-7.5C260.119,82.499,263.457,85.857,263.457,89.999z M207.332,112.645c-4.039,0.813-6.658,4.764-5.85,8.825
	c6.404,32.202,6.404,64.857,0,97.059c-0.807,4.062,1.811,8.013,5.85,8.825c0.493,0.099,0.986,0.147,1.47,0.147
	c3.482,0,6.596-2.465,7.305-6.031c6.792-34.153,6.792-68.788,0-102.941C215.299,114.467,211.369,111.833,207.332,112.645z
	 M310.519,121.47c0.807-4.062-1.811-8.013-5.85-8.825c-4.039-0.813-7.967,1.822-8.775,5.884c-6.792,34.153-6.792,68.788,0,102.941
	c0.709,3.565,3.823,6.031,7.305,6.031c0.485,0,0.977-0.048,1.47-0.147c4.039-0.813,6.658-4.764,5.85-8.825
	C304.114,186.327,304.114,153.671,310.519,121.47z"/>
<g>
</g>
<g>
</g>
<g>
</g>
<g>
</g>
<g>
</g>
<g>
</g>
<g>
</g>
<g>
</g>
<g>
</g>
<g>
</g>
<g>
</g>
<g>
</g>
<g>
</g>
<g>
</g>
<g>
</g>
</svg>
