<?xml version="1.0" encoding="iso-8859-1"?>
<!-- Generator: Adobe Illustrator 19.0.0, SVG Export Plug-In . SVG Version: 6.00 Build 0)  -->
<svg version="1.1" id="Capa_1" xmlns="http://www.w3.org/2000/svg" xmlns:xlink="http://www.w3.org/1999/xlink" x="0px" y="0px"
	 viewBox="0 0 512 512" style="enable-background:new 0 0 512 512;" xml:space="preserve">
<path style="fill:#A0D755;" d="M240.081,85v90c0,2.761-2.227,5-4.975,5h-19.899c-2.747,0-4.975-2.239-4.975-5
	c0,2.761-2.227,5-4.975,5h-19.899c-2.747,0-4.975-2.239-4.975-5V85c0-2.761,2.227-5,4.975-5h19.899c2.747,0,4.975,2.239,4.975,5
	c0-2.761,2.227-5,4.975-5h19.899C237.854,80,240.081,82.239,240.081,85z"/>
<path style="fill:#57676E;" d="M210.233,85v90c0,2.761-2.239,5-5,5h-19.848c-2.761,0-5-2.239-5-5V85c0-2.761,2.239-5,5-5h19.848
	C207.994,80,210.233,82.239,210.233,85z"/>
<path style="fill:#D3754F;" d="M284.828,490h-99.444c-2.761,0-5-2.239-5-5v-70c0-2.761,2.239-5,5-5h99.444c2.761,0,5,2.239,5,5v70
	C289.828,487.761,287.589,490,284.828,490z"/>
<path style="fill:#B16F52;" d="M289.828,415v70c0,2.761-2.227,5-4.975,5h-29.848c2.747,0,4.975-2.239,4.975-5v-70
	c0-2.761-2.227-5-4.975-5h29.848C287.601,410,289.828,412.239,289.828,415z"/>
<path style="fill:#FFB446;" d="M329.626,245v90c0,2.761-2.227,5-4.975,5h-19.899c-2.747,0-4.975-2.239-4.975-5
	c0,2.761-2.227,5-4.975,5h-19.899c-2.747,0-4.975-2.239-4.975-5v-20c0,2.761-2.227,5-4.975,5h-59.696c-2.747,0-4.975-2.239-4.975-5
	v-30c0-2.761,2.227-5,4.975-5h59.696c2.747,0,4.975,2.239,4.975,5v-40c0-2.761,2.227-5,4.975-5h19.899c2.747,0,4.975,2.239,4.975,5
	c0-2.761,2.227-5,4.975-5h19.899C327.398,240,329.626,242.239,329.626,245z"/>
<path style="fill:#FF5050;" d="M264.929,320h-59.646c-2.761,0-5-2.239-5-5v-30c0-2.761,2.239-5,5-5h59.646c2.761,0,5,2.239,5,5v30
	C269.929,317.761,267.691,320,264.929,320z"/>
<path style="fill:#C84146;" d="M329.626,245v90c0,2.761-2.239,5-5,5h-19.848c-2.761,0-5-2.239-5-5v-90c0-2.761,2.239-5,5-5h19.848
	C327.387,240,329.626,242.239,329.626,245z"/>
<path style="fill:#D7AF87;" d="M376.388,316v30c0,2.761-2.227,5-4.975,5H140.587c-2.747,0-4.975-2.239-4.975-5v-30
	c0-2.761,2.227-5,4.975-5h230.826C374.161,311,376.388,313.239,376.388,316z M371.413,150H140.587c-2.747,0-4.975,2.239-4.975,5v30
	c0,2.761,2.227,5,4.975,5h230.826c2.747,0,4.975-2.239,4.975-5v-30C376.388,152.239,374.161,150,371.413,150z"/>
<path style="fill:#EBC9A0;" d="M398.525,0h-27.112h-2.736H143.323h-2.736h-27.112c-2.747,0-4.975,2.239-4.975,5v502
	c0,2.761,2.227,5,4.975,5h27.112h2.736h225.354h2.736h27.112c2.747,0,4.975-2.239,4.975-5V5C403.5,2.239,401.273,0,398.525,0z
	 M363.702,40v432H148.298V40H363.702z"/>
<path style="fill:#D7AF87;" d="M403.5,5v502c0,2.761-2.227,5-4.975,5h-24.127c2.747,0,4.975-2.239,4.975-5V5
	c0-2.761-2.227-5-4.975-5h24.127C401.273,0,403.5,2.239,403.5,5z"/>
<g>
</g>
<g>
</g>
<g>
</g>
<g>
</g>
<g>
</g>
<g>
</g>
<g>
</g>
<g>
</g>
<g>
</g>
<g>
</g>
<g>
</g>
<g>
</g>
<g>
</g>
<g>
</g>
<g>
</g>
</svg>
