<?xml version="1.0" encoding="iso-8859-1"?>
<!-- Generator: Adobe Illustrator 19.0.0, SVG Export Plug-In . SVG Version: 6.00 Build 0)  -->
<svg version="1.1" id="Capa_1" xmlns="http://www.w3.org/2000/svg" xmlns:xlink="http://www.w3.org/1999/xlink" x="0px" y="0px"
	 viewBox="0 0 512 512" style="enable-background:new 0 0 512 512;" xml:space="preserve">
<path style="fill:#D7AF87;" d="M479.5,318.504c0,4.142-3.358,7.5-7.5,7.5H40c-4.142,0-7.5-3.358-7.5-7.5s3.358-7.5,7.5-7.5h432
	C476.142,311.004,479.5,314.362,479.5,318.504z"/>
<path style="fill:#EBC9A0;" d="M492,218.485v18.046v21.952V398.5c0,2.761-2.239,5-5,5h-30c-2.761,0-5-2.238-5-5V263.483H60V398.5
	c0,2.761-2.239,5-5,5H25c-2.761,0-5-2.238-5-5V258.483v-21.952v-18.046c0-2.761,2.239-5,5-5h462
	C489.762,213.485,492,215.723,492,218.485z"/>
<path style="fill:#D7AF87;" d="M452,263.483H60v-49.998h392.001L452,263.483z"/>
<path style="fill:#70B5E8;" d="M260,138.397v0.203c0,16.512-13.385,29.897-29.897,29.897H109.897
	C93.385,168.497,80,155.112,80,138.6v-0.203c0-16.512,13.385-29.897,29.897-29.897h120.206C246.615,108.5,260,121.885,260,138.397z"
	/>
<path style="fill:#52A5D8;" d="M260,138.499L260,138.499c0,16.568-13.431,29.999-30,29.999h-40c16.569,0,30-13.431,30-29.999l0,0
	c0-16.568-13.431-29.999-30-29.999h40C246.569,108.5,260,121.931,260,138.499z"/>
<path style="fill:#57676E;" d="M492,223.485H20c-11.046,0-20-8.954-20-20v-17.997c0-11.046,8.954-20,20-20h472
	c11.046,0,20,8.954,20,20v17.997C512,214.53,503.046,223.485,492,223.485z"/>
<path style="fill:#6A808B;" d="M452,223.484H20c-11.046,0-20-8.954-20-19.999v-17.999c0-11.045,8.954-19.999,20-19.999h432
	c11.046,0,20,8.954,20,19.999v17.999C472,214.531,463.046,223.484,452,223.484z"/>
<g>
</g>
<g>
</g>
<g>
</g>
<g>
</g>
<g>
</g>
<g>
</g>
<g>
</g>
<g>
</g>
<g>
</g>
<g>
</g>
<g>
</g>
<g>
</g>
<g>
</g>
<g>
</g>
<g>
</g>
</svg>
