<?xml version="1.0" encoding="iso-8859-1"?>
<!-- Generator: Adobe Illustrator 19.0.0, SVG Export Plug-In . SVG Version: 6.00 Build 0)  -->
<svg version="1.1" id="Capa_1" xmlns="http://www.w3.org/2000/svg" xmlns:xlink="http://www.w3.org/1999/xlink" x="0px" y="0px"
	 viewBox="0 0 512 512" style="enable-background:new 0 0 512 512;" xml:space="preserve">
<path style="fill:#FFB446;" d="M170,140.659c0,16.474-13.431,29.83-30,29.83s-30-13.355-30-29.83c0-0.008,0.001-0.017,0.001-0.025
	C93.896,140.109,81,126.971,81,110.83C81,94.355,94.431,81,111,81s30,13.355,30,29.83c0,0.008-0.001,0.017-0.001,0.025
	C157.104,111.38,170,124.518,170,140.659z"/>
<path style="fill:#FFDC64;" d="M201,110.83c0,16.474-13.431,29.83-30,29.83s-30-13.355-30-29.83S154.431,81,171,81
	S201,94.355,201,110.83z"/>
<path style="fill:#D5DCED;" d="M511.598,186.398H0V175.46c0-2.746,2.239-4.972,5-4.972h296c-11.046,0-20-8.903-20-19.886V95.915
	c0-2.746,2.239-4.972,5-4.972h50c2.761,0,5,2.226,5,4.972v54.688c0,10.983-8.954,19.886-20,19.886h80c-11.046,0-20-8.903-20-19.886
	V95.915c0-2.746,2.239-4.972,5-4.972h50c2.761,0,5,2.226,5,4.972v54.688c0,10.983-8.954,19.886-20,19.886h71
	C501.676,170.489,509.745,177.321,511.598,186.398z"/>
<path style="fill:#AFB9D2;" d="M432.293,195.347v230.682c0,2.746-2.239,4.972-5,4.972h-30c-2.761,0-5-2.226-5-4.972V195.347
	c0-2.746,2.239-4.972,5-4.972h30C430.055,190.375,432.293,192.601,432.293,195.347z M492.114,170.489H421
	c11.046,0,20-8.903,20-19.886V95.915c0-2.746-2.239-4.972-5-4.972h-27.5c2.761,0,5,2.226,5,4.972v54.688
	c0,9.707-6.999,17.778-16.25,19.525c1.216,0.23,2.467,0.361,3.75,0.361h-80c11.046,0,20-8.903,20-19.886V95.915
	c0-2.746-2.239-4.972-5-4.972h-27.5c2.761,0,5,2.226,5,4.972v54.688c0,9.707-6.999,17.778-16.25,19.525
	c1.216,0.23,2.467,0.361,3.75,0.361H166c24.853,0,45-20.033,45-44.744c0-2.746-2.239-4.972-5-4.972H76c-2.761,0-5,2.226-5,4.972
	c0,24.711,20.147,44.744,45,44.744H4.972c-2.746,0-4.972,2.226-4.972,4.972v10.873h511.587
	C509.72,177.289,501.711,170.489,492.114,170.489z"/>
<path style="fill:#8A90A7;" d="M22.5,259.977c0-4.119,3.358-7.457,7.5-7.457h80c4.142,0,7.5,3.339,7.5,7.457
	c0,4.119-3.358,7.457-7.5,7.457H30C25.858,267.435,22.5,264.096,22.5,259.977z M110,302.236H30c-4.142,0-7.5,3.339-7.5,7.457
	s3.358,7.457,7.5,7.457h80c4.142,0,7.5-3.339,7.5-7.457S114.142,302.236,110,302.236z M110,351.952H30c-4.142,0-7.5,3.339-7.5,7.457
	s3.358,7.457,7.5,7.457h80c4.142,0,7.5-3.339,7.5-7.457S114.142,351.952,110,351.952z"/>
<path style="fill:#AFB9D2;" d="M27.5,192.359v228.693c0,4.119-3.358,7.457-7.5,7.457s-7.5-3.339-7.5-7.457V192.359
	c0-4.119,3.358-7.457,7.5-7.457S27.5,188.24,27.5,192.359z M110,184.901c-4.142,0-7.5,3.339-7.5,7.457v228.693
	c0,4.119,3.358,7.457,7.5,7.457s7.5-3.339,7.5-7.457V192.359C117.5,188.24,114.142,184.901,110,184.901z"/>
<g>
	<path style="fill:#8A90A7;" d="M205,423.543c0,4.119-3.358,7.457-7.5,7.457H7.5c-4.142,0-7.5-3.339-7.5-7.457
		c0-4.119,3.358-7.457,7.5-7.457h190C201.642,416.085,205,419.424,205,423.543z"/>
	<path style="fill:#8A90A7;" d="M465.028,431h-105.47c-2.746,0-4.972-2.226-4.972-4.972l0,0c0-14.827,12.02-26.847,26.847-26.847
		h61.72c14.827,0,26.847,12.02,26.847,26.847l0,0C470,428.773,467.774,431,465.028,431z"/>
</g>
<path style="fill:#737AA0;" d="M470,426.028L470,426.028c0,2.746-2.239,4.972-5,4.972h-34.587c2.761,0,5-2.226,5-4.972l0,0
	c0-14.827-12.088-26.847-27-26.847H443C457.912,399.182,470,411.201,470,426.028z"/>
<path style="fill:#D7AF87;" d="M492.114,210.261H4.972c-2.746,0-4.972-2.226-4.972-4.972v-29.83c0-2.746,2.226-4.972,4.972-4.972
	h487.142c10.983,0,19.886,8.903,19.886,19.886l0,0C512,201.358,503.097,210.261,492.114,210.261z"/>
<path style="fill:#C49D7A;" d="M512,190.375L512,190.375c0,10.983-8.954,19.886-20,19.886h-32c11.046,0,20-8.903,20-19.886l0,0
	c0-10.983-8.954-19.886-20-19.886h32C503.046,170.489,512,179.392,512,190.375z"/>
<g>
</g>
<g>
</g>
<g>
</g>
<g>
</g>
<g>
</g>
<g>
</g>
<g>
</g>
<g>
</g>
<g>
</g>
<g>
</g>
<g>
</g>
<g>
</g>
<g>
</g>
<g>
</g>
<g>
</g>
</svg>
