<?xml version="1.0" encoding="iso-8859-1"?>
<!-- Generator: Adobe Illustrator 19.0.0, SVG Export Plug-In . SVG Version: 6.00 Build 0)  -->
<svg version="1.1" id="Capa_1" xmlns="http://www.w3.org/2000/svg" xmlns:xlink="http://www.w3.org/1999/xlink" x="0px" y="0px"
	 viewBox="0 0 512 512" style="enable-background:new 0 0 512 512;" xml:space="preserve">
<path style="fill:#AFB9D2;" d="M284.539,322.5v15h-8.686V507c0,2.761-2.222,5-4.963,5h-29.78c-2.741,0-4.963-2.239-4.963-5V337.5
	h-8.686v-15h8.686V175c0-2.761,2.222-5,4.963-5h29.779c2.741,0,4.963,2.239,4.963,5v147.5H284.539z"/>
<path style="fill:#57676E;" d="M193.815,226.708l-39.706,20c-1.069,0.539-2.205,0.793-3.324,0.793c-2.731,0-5.36-1.519-6.665-4.147
	c-1.839-3.705-0.348-8.21,3.329-10.062l35.59-17.927V190c0-4.142,3.333-7.5,7.445-7.5s7.445,3.358,7.445,7.5v30
	C197.93,222.841,196.337,225.438,193.815,226.708z M314.566,322.5h-38.713v15h38.713c4.652,0,8.438,3.813,8.438,8.5
	s-3.785,8.5-8.438,8.5H197.434c-4.653,0-8.438-3.813-8.438-8.5s3.785-8.5,8.438-8.5h38.713v-15h-38.713
	c-12.863,0-23.327,10.542-23.327,23.5s10.464,23.5,23.327,23.5h117.132c12.863,0,23.327-10.542,23.327-23.5
	S327.429,322.5,314.566,322.5z"/>
<path style="fill:#A0D755;" d="M356.221,140H155.779c-2.761,0-5-2.239-5-5V20c0-11.046,8.954-20,20-20H341.22
	c11.046,0,20,8.954,20,20v115C361.221,137.761,358.982,140,356.221,140z"/>
<path style="fill:#94C449;" d="M361.221,20v115c0,2.761-2.222,5-4.963,5H155.743c-2.741,0-4.963-2.239-4.963-5V70h101.25
	c38.376,0,69.485-31.34,69.485-70l0,0h19.853C352.332,0,361.221,8.954,361.221,20z"/>
<path style="fill:#8A90A7;" d="M341.368,507L341.368,507c0,2.761-2.222,5-4.963,5H175.596c-2.741,0-4.963-2.239-4.963-5l0,0
	c0-14.912,11.999-27,26.801-27h117.132C329.368,480,341.368,492.088,341.368,507z M346.331,150H165.669
	c-2.741,0-4.963,2.239-4.963,5v40c0,2.761,2.222,5,4.963,5h180.662c2.741,0,4.963-2.239,4.963-5v-40
	C351.294,152.239,349.072,150,346.331,150z"/>
<path style="fill:#737AA0;" d="M341.368,507c0,2.761-2.222,5-4.963,5H304.64c2.741,0,4.963-2.239,4.963-5c0-14.912-12-27-26.801-27
	h31.765C329.368,480,341.368,492.088,341.368,507z M346.331,150h-31.765c2.741,0,4.963,2.239,4.963,5v40c0,2.761-2.222,5-4.963,5
	h31.765c2.741,0,4.963-2.239,4.963-5v-40C351.294,152.239,349.072,150,346.331,150z"/>
<path style="fill:#B4E66E;" d="M371,160H141c-11.046,0-20-8.954-20-20v-18c0-11.046,8.954-20,20-20h230c11.046,0,20,8.954,20,20v18
	C391,151.046,382.046,160,371,160z"/>
<path style="fill:#A0D755;" d="M391,122v18c0,11.046-8.889,20-19.853,20h-39.706c10.964,0,19.853-8.954,19.853-20v-18
	c0-11.046-8.889-20-19.853-20h39.706C382.111,102,391,110.954,391,122z"/>
<path style="fill:#8CB23B;" d="M188.996,35.998c0-4.142,3.333-7.5,7.445-7.5h119.118c4.112,0,7.445,3.358,7.445,7.5
	s-3.333,7.5-7.445,7.5H196.441C192.33,43.498,188.996,40.14,188.996,35.998z M315.559,58.498H196.441
	c-4.112,0-7.445,3.358-7.445,7.5s3.333,7.5,7.445,7.5h119.118c4.112,0,7.445-3.358,7.445-7.5S319.671,58.498,315.559,58.498z"/>
<g>
</g>
<g>
</g>
<g>
</g>
<g>
</g>
<g>
</g>
<g>
</g>
<g>
</g>
<g>
</g>
<g>
</g>
<g>
</g>
<g>
</g>
<g>
</g>
<g>
</g>
<g>
</g>
<g>
</g>
</svg>
