<?xml version="1.0" encoding="iso-8859-1"?>
<!-- Generator: Adobe Illustrator 19.0.0, SVG Export Plug-In . SVG Version: 6.00 Build 0)  -->
<svg version="1.1" id="Layer_1" xmlns="http://www.w3.org/2000/svg" xmlns:xlink="http://www.w3.org/1999/xlink" x="0px" y="0px"
	 viewBox="0 0 512 512" style="enable-background:new 0 0 512 512;" xml:space="preserve">
<g>
	<rect x="60.952" y="371.81" style="fill:#A58868;" width="36.571" height="97.523"/>
	<rect x="414.476" y="371.81" style="fill:#A58868;" width="36.571" height="97.523"/>
</g>
<path style="fill:#7AB9E8;" d="M512,188.954v121.904l0,0c0,40.396-32.747,73.143-73.143,73.143H73.143
	C32.747,384.001,0,351.253,0,310.858h0.001V188.954H512z"/>
<path style="fill:#61AAE4;" d="M256.001,188.953v195.048h182.856c40.396,0,73.143-32.747,73.143-73.143l0,0V188.953H256.001z"/>
<g>
	<path style="fill:#B4D8F1;" d="M146.286,42.667c-40.396,0-73.143,32.747-73.143,73.143v170.667h365.714V115.81
		c0-40.396-32.747-73.143-73.143-73.143H146.286z"/>
</g>
<g>
	<rect x="170.667" y="42.667" style="fill:#98C8ED;" width="85.333" height="243.81"/>
	<path style="fill:#98C8ED;" d="M438.857,115.81c0-40.396-32.747-73.143-73.143-73.143h-12.19v243.81h85.333V115.81z"/>
</g>
<g>
</g>
<g>
</g>
<g>
</g>
<g>
</g>
<g>
</g>
<g>
</g>
<g>
</g>
<g>
</g>
<g>
</g>
<g>
</g>
<g>
</g>
<g>
</g>
<g>
</g>
<g>
</g>
<g>
</g>
</svg>
