<?xml version="1.0" encoding="iso-8859-1"?>
<!-- Generator: Adobe Illustrator 19.0.0, SVG Export Plug-In . SVG Version: 6.00 Build 0)  -->
<svg version="1.1" id="Layer_1" xmlns="http://www.w3.org/2000/svg" xmlns:xlink="http://www.w3.org/1999/xlink" x="0px" y="0px"
	 viewBox="0 0 512 512" style="enable-background:new 0 0 512 512;" xml:space="preserve">
<g>
	<rect x="71.111" y="398.221" style="fill:#A58868;" width="42.667" height="113.777"/>
	<rect x="398.221" y="398.221" style="fill:#A58868;" width="42.667" height="113.777"/>
</g>
<path style="fill:#E02753;" d="M512,184.89v142.22l0,0c0,47.128-38.205,85.333-85.333,85.333H85.333
	C38.205,412.443,0,374.238,0,327.11h0.001V184.89H512z"/>
<path style="fill:#C5142C;" d="M256.001,184.89v227.553h170.666c47.128,0,85.333-38.205,85.333-85.333l0,0V184.888H256.001V184.89z"
	/>
<path style="fill:#E07188;" d="M426.667,170.668c0-94.256-76.41-170.666-170.666-170.666S85.335,76.412,85.335,170.668v128h341.331
	L426.667,170.668z"/>
<path style="fill:#E02753;" d="M426.667,170.668c0-94.256-76.41-170.666-170.666-170.666v298.666h170.665L426.667,170.668z"/>
<g>
</g>
<g>
</g>
<g>
</g>
<g>
</g>
<g>
</g>
<g>
</g>
<g>
</g>
<g>
</g>
<g>
</g>
<g>
</g>
<g>
</g>
<g>
</g>
<g>
</g>
<g>
</g>
<g>
</g>
</svg>
