<?xml version="1.0" encoding="iso-8859-1"?>
<!-- Generator: Adobe Illustrator 19.0.0, SVG Export Plug-In . SVG Version: 6.00 Build 0)  -->
<svg version="1.1" id="Layer_1" xmlns="http://www.w3.org/2000/svg" xmlns:xlink="http://www.w3.org/1999/xlink" x="0px" y="0px"
	 viewBox="0 0 512 512" style="enable-background:new 0 0 512 512;" xml:space="preserve">
<path style="fill:#BFA993;" d="M390.095,36.571h-268.19c-40.396,0-73.143,32.747-73.143,73.143v12.19h414.476v-12.19
	C463.238,69.319,430.491,36.571,390.095,36.571z"/>
<path style="fill:#B29A7E;" d="M463.238,109.714c0-40.396-32.747-73.143-73.143-73.143H256v85.333h207.238V109.714z"/>
<rect y="231.619" style="fill:#EFC27B;" width="512" height="97.524"/>
<rect x="256" y="231.619" style="fill:#ECB45C;" width="256" height="97.524"/>
<polyline style="fill:#F8F8F9;" points="48.762,109.714 48.762,231.619 463.238,231.619 463.238,109.714 48.762,109.714 "/>
<g>
	<polyline style="fill:#EDEDED;" points="463.238,109.714 463.238,231.619 353.524,231.619 353.524,109.714 463.238,109.714 	"/>
	<polyline style="fill:#EDEDED;" points="256,109.714 256,231.619 146.286,231.619 146.286,109.714 256,109.714 	"/>
</g>
<polygon style="fill:#BFA993;" points="0,316.952 0,475.429 36.571,475.429 36.571,353.524 475.429,353.524 475.429,475.429 
	512,475.429 512,316.952 "/>
<polygon style="fill:#B29A7E;" points="256,316.952 256,353.524 475.429,353.524 475.429,475.429 512,475.429 512,316.952 "/>
<g>
</g>
<g>
</g>
<g>
</g>
<g>
</g>
<g>
</g>
<g>
</g>
<g>
</g>
<g>
</g>
<g>
</g>
<g>
</g>
<g>
</g>
<g>
</g>
<g>
</g>
<g>
</g>
<g>
</g>
</svg>
