<?xml version="1.0" encoding="iso-8859-1"?>
<!-- Generator: Adobe Illustrator 19.0.0, SVG Export Plug-In . SVG Version: 6.00 Build 0)  -->
<svg version="1.1" id="Layer_1" xmlns="http://www.w3.org/2000/svg" xmlns:xlink="http://www.w3.org/1999/xlink" x="0px" y="0px"
	 viewBox="0 0 512 512" style="enable-background:new 0 0 512 512;" xml:space="preserve">
<polygon style="fill:#E9A440;" points="512,189.217 512,155.826 467.478,155.826 189.217,155.826 189.217,489.739 467.478,489.739 
	512,489.739 512,456.348 467.478,456.348 467.478,414.609 512,414.609 512,381.217 467.478,381.217 467.478,339.478 512,339.478 
	512,306.087 467.478,306.087 467.478,264.348 512,264.348 512,230.957 467.478,230.957 467.478,189.217 "/>
<polygon style="fill:#EFC27B;" points="44.522,22.261 0,22.261 0,55.652 44.522,55.652 44.522,97.391 0,97.391 0,130.783 
	44.522,130.783 44.522,172.522 0,172.522 0,205.913 44.522,205.913 44.522,247.652 0,247.652 0,281.043 44.522,281.043 
	44.522,322.783 0,322.783 0,356.174 44.522,356.174 322.783,356.174 322.783,22.261 "/>
<polygon style="fill:#ECB45C;" points="189.217,489.739 189.217,356.174 322.783,356.174 "/>
<g>
</g>
<g>
</g>
<g>
</g>
<g>
</g>
<g>
</g>
<g>
</g>
<g>
</g>
<g>
</g>
<g>
</g>
<g>
</g>
<g>
</g>
<g>
</g>
<g>
</g>
<g>
</g>
<g>
</g>
</svg>
