<?xml version="1.0" encoding="iso-8859-1"?>
<!-- Generator: Adobe Illustrator 19.0.0, SVG Export Plug-In . SVG Version: 6.00 Build 0)  -->
<svg version="1.1" id="Layer_1" xmlns="http://www.w3.org/2000/svg" xmlns:xlink="http://www.w3.org/1999/xlink" x="0px" y="0px"
	 viewBox="0 0 512 512" style="enable-background:new 0 0 512 512;" xml:space="preserve">
<polygon style="fill:#797781;" points="273.655,364.874 238.345,364.874 238.345,417.839 97.103,417.839 97.103,453.149 
	414.897,453.149 414.897,417.839 273.655,417.839 "/>
<polygon style="fill:#58575D;" points="414.897,417.839 273.655,417.839 273.655,364.874 256,364.874 256,453.149 414.897,453.149 
	"/>
<rect x="220.69" y="223.632" style="fill:#88888F;" width="70.621" height="94.161"/>
<rect x="256" y="223.632" style="fill:#797781;" width="35.31" height="94.161"/>
<path style="fill:#95D5A7;" d="M397.239,306.021H114.756l0.002,35.313c0,19.501,15.81,35.31,35.31,35.31v-0.002h164.782l47.08,0.002
	c19.501,0,35.31-15.81,35.31-35.31L397.239,306.021z"/>
<path style="fill:#80CB93;" d="M397.239,306.021H256v70.621h58.851l47.08,0.002c19.501,0,35.31-15.81,35.31-35.31L397.239,306.021z"
	/>
<path style="fill:#95D5A7;" d="M114.759,141.241C114.759,63.236,177.995,0,256,0s141.241,63.236,141.241,141.241v23.54
	c0,39.003-31.618,70.621-70.621,70.621H185.379c-39.003,0-70.621-31.618-70.621-70.621V141.241z"/>
<g>
	<path style="fill:#88888F;" d="M256,464.92c-12.98,0-23.54,10.56-23.54,23.54S243.02,512,256,512c12.98,0,23.54-10.56,23.54-23.54
		S268.98,464.92,256,464.92z"/>
	<path style="fill:#88888F;" d="M120.644,464.92c-12.98,0-23.54,10.56-23.54,23.54s10.56,23.54,23.54,23.54s23.54-10.56,23.54-23.54
		S133.624,464.92,120.644,464.92z"/>
	<path style="fill:#88888F;" d="M391.356,464.92c-12.98,0-23.54,10.56-23.54,23.54s10.56,23.54,23.54,23.54s23.54-10.56,23.54-23.54
		S404.336,464.92,391.356,464.92z"/>
	<rect x="55.908" y="253.057" style="fill:#88888F;" width="35.31" height="70.621"/>
	<rect x="420.782" y="253.057" style="fill:#88888F;" width="35.31" height="70.621"/>
	<path style="fill:#88888F;" d="M150.069,376.644v-0.002h164.782l47.08,0.002c19.501,0,35.31-15.81,35.31-35.31H114.759
		C114.759,360.834,130.568,376.644,150.069,376.644z"/>
</g>
<path style="fill:#80CB93;" d="M256,0h-0.001v235.402h70.622c39.003,0,70.621-31.618,70.621-70.621v-23.54
	C397.241,63.236,334.005,0,256,0z"/>
<path style="fill:#797781;" d="M256,341.333v35.308h58.851l47.08,0.002c19.501,0,35.31-15.81,35.31-35.31H256z"/>
<g>
</g>
<g>
</g>
<g>
</g>
<g>
</g>
<g>
</g>
<g>
</g>
<g>
</g>
<g>
</g>
<g>
</g>
<g>
</g>
<g>
</g>
<g>
</g>
<g>
</g>
<g>
</g>
<g>
</g>
</svg>
