<?xml version="1.0" encoding="iso-8859-1"?>
<!-- Generator: Adobe Illustrator 19.0.0, SVG Export Plug-In . SVG Version: 6.00 Build 0)  -->
<svg version="1.1" id="Layer_1" xmlns="http://www.w3.org/2000/svg" xmlns:xlink="http://www.w3.org/1999/xlink" x="0px" y="0px"
	 viewBox="0 0 512 512" style="enable-background:new 0 0 512 512;" xml:space="preserve">
<path style="fill:#E07188;" d="M371.056,304.899V86.292c0-38.126-30.908-69.034-69.034-69.034h-92.045
	c-38.126,0-69.034,30.908-69.034,69.034v218.607H371.056z"/>
<path style="fill:#E02753;" d="M371.056,86.292c0-38.126-30.908-69.034-69.034-69.034H256v287.64h115.056V86.292z"/>
<path style="fill:#B29A7E;" d="M388.315,304.899h-34.517V86.292c0-28.549-23.225-51.775-51.775-51.775h-92.045
	c-28.549,0-51.775,23.226-51.775,51.775v218.607h-34.517V86.292C123.685,38.711,162.396,0,209.978,0h92.045
	c47.582,0,86.292,38.711,86.292,86.292V304.899z"/>
<path style="fill:#A58868;" d="M302.022,0H256v34.517h46.022c28.55,0,51.775,23.226,51.775,51.775v218.607h34.517V86.292
	C388.315,38.711,349.604,0,302.022,0z"/>
<rect x="163.955" y="350.921" style="fill:#B29A7E;" width="34.517" height="115.056"/>
<rect x="313.528" y="350.921" style="fill:#A58868;" width="34.517" height="115.056"/>
<polygon style="fill:#BFA993;" points="94.921,293.393 94.921,512 129.438,512 129.438,362.427 382.562,362.427 382.562,512 
	417.079,512 417.079,293.393 "/>
<polygon style="fill:#B29A7E;" points="256,293.393 256,362.427 382.562,362.427 382.562,512 417.079,512 417.079,293.393 "/>
<g>
</g>
<g>
</g>
<g>
</g>
<g>
</g>
<g>
</g>
<g>
</g>
<g>
</g>
<g>
</g>
<g>
</g>
<g>
</g>
<g>
</g>
<g>
</g>
<g>
</g>
<g>
</g>
<g>
</g>
</svg>
