<?xml version="1.0" encoding="iso-8859-1"?>
<!-- Generator: Adobe Illustrator 19.0.0, SVG Export Plug-In . SVG Version: 6.00 Build 0)  -->
<svg version="1.1" id="Layer_1" xmlns="http://www.w3.org/2000/svg" xmlns:xlink="http://www.w3.org/1999/xlink" x="0px" y="0px"
	 viewBox="0 0 512.035 512.035" style="enable-background:new 0 0 512.035 512.035;" xml:space="preserve">
<path style="fill:#E07188;" d="M396.712,286.555c0-70.347,6.564-140.439,13.134-211.02c3.891-38.651-29.456-72.762-73.88-74.344
	c-53.358-1.589-106.543-1.585-159.901,0c-44.426,1.578-77.772,35.688-73.881,74.345c6.571,70.581,13.134,140.673,13.134,211.02
	v30.012h281.393L396.712,286.555L396.712,286.555z"/>
<path style="fill:#E02753;" d="M335.965,1.191C309.287,0.396,282.652,0,256.016,0v316.568h140.697v-30.013
	c0-70.347,6.563-140.439,13.134-211.02C413.738,36.885,380.39,2.773,335.965,1.191z"/>
<rect x="86.003" y="356.023" transform="matrix(-0.9884 -0.1521 0.1521 -0.9884 140.0983 876.9827)" style="fill:#88888F;" width="35.175" height="154.221"/>
<g>
	<rect x="144.628" y="356.901" style="fill:#797781;" width="35.174" height="105.523"/>
	<rect x="332.224" y="356.901" style="fill:#797781;" width="35.174" height="105.523"/>
</g>
<rect x="331.334" y="415.559" transform="matrix(-0.1521 -0.9884 0.9884 -0.1521 42.4594 902.7185)" style="fill:#88888F;" width="154.221" height="35.175"/>
<g>
	<rect x="238.426" y="73.385" style="fill:#C5142C;" width="35.174" height="142.76"/>
	<path style="fill:#C5142C;" d="M344.788,216.576l-35.165-0.801c1.136-49.918,3.317-100.132,5.3-142.668l35.137,1.637
		C348.085,117.075,345.916,167.026,344.788,216.576z"/>
	<path style="fill:#C5142C;" d="M167.242,216.575c-1.127-49.523-3.296-99.487-5.271-141.829l35.137-1.637
		c1.984,42.549,4.165,92.774,5.3,142.668L167.242,216.575z"/>
</g>
<path style="fill:#E02753;" d="M429.333,344.457c1.026,6.395-3.718,12.465-10.607,13.479c-107.894,15.847-217.525,15.847-325.42,0
	c-6.889-1.008-11.633-7.088-10.607-13.479c2.446-15.441,4.89-30.883,7.336-46.322c1.028-6.398,7.063-10.745,13.494-9.801
	c101.115,14.853,203.858,14.853,304.973,0c6.43-0.941,12.467,3.405,13.494,9.801C424.441,313.576,426.887,329.016,429.333,344.457z"
	/>
<path style="fill:#C5142C;" d="M429.333,344.457c-2.446-15.441-4.892-30.882-7.336-46.322c-1.026-6.396-7.063-10.742-13.494-9.801
	c-50.558,7.426-101.522,11.14-152.487,11.14v70.347c54.382,0,108.763-3.962,162.71-11.885
	C425.615,356.922,430.359,350.852,429.333,344.457z"/>
<g>
</g>
<g>
</g>
<g>
</g>
<g>
</g>
<g>
</g>
<g>
</g>
<g>
</g>
<g>
</g>
<g>
</g>
<g>
</g>
<g>
</g>
<g>
</g>
<g>
</g>
<g>
</g>
<g>
</g>
</svg>
