<?xml version="1.0" encoding="iso-8859-1"?>
<!-- Generator: Adobe Illustrator 19.0.0, SVG Export Plug-In . SVG Version: 6.00 Build 0)  -->
<svg version="1.1" id="Layer_1" xmlns="http://www.w3.org/2000/svg" xmlns:xlink="http://www.w3.org/1999/xlink" x="0px" y="0px"
	 viewBox="0 0 512 512" style="enable-background:new 0 0 512 512;" xml:space="preserve">
<rect x="139.636" y="267.636" style="fill:#947859;" width="232.727" height="162.909"/>
<rect x="256" y="267.636" style="fill:#80684C;" width="116.364" height="162.909"/>
<rect x="128" y="430.545" style="fill:#BFA993;" width="256" height="81.455"/>
<rect x="256" y="430.545" style="fill:#B29A7E;" width="128" height="81.455"/>
<path style="fill:#EDEDED;" d="M273.455,330.499V256h-34.909v74.499c-10.431,6.037-17.455,17.309-17.455,30.228
	c0,19.279,15.63,34.909,34.909,34.909s34.909-15.63,34.909-34.909C290.909,347.809,283.887,336.536,273.455,330.499z"/>
<path style="fill:#B29A7E;" d="M349.091,290.909v116.364H162.909V290.909H349.091 M384,244.364H128v197.818h256V256V244.364z"/>
<polygon style="fill:#A58868;" points="256,244.364 256,290.909 349.091,290.909 349.091,407.273 256,407.273 256,442.182 
	384,442.182 384,256 384,244.364 "/>
<path style="fill:#BFA993;" d="M384,128C384,57.306,326.696,0,256,0c-70.692,0-128,57.306-128,128v128h256V128z"/>
<path style="fill:#B29A7E;" d="M384,128C384,57.306,326.696,0,256,0v256h128V128z"/>
<circle style="fill:#F8F8F9;" cx="256" cy="128" r="58.182"/>
<path style="fill:#EDEDED;" d="M256,69.818v116.364c32.134,0,58.182-26.048,58.182-58.182S288.134,69.818,256,69.818z"/>
<polygon style="fill:#88888F;" points="260.112,156.799 238.545,135.23 238.545,104.727 273.455,104.727 273.455,120.77 
	284.799,132.115 "/>
<g>
</g>
<g>
</g>
<g>
</g>
<g>
</g>
<g>
</g>
<g>
</g>
<g>
</g>
<g>
</g>
<g>
</g>
<g>
</g>
<g>
</g>
<g>
</g>
<g>
</g>
<g>
</g>
<g>
</g>
</svg>
