<?xml version="1.0" encoding="iso-8859-1"?>
<!-- Generator: Adobe Illustrator 19.0.0, SVG Export Plug-In . SVG Version: 6.00 Build 0)  -->
<svg version="1.1" id="Layer_1" xmlns="http://www.w3.org/2000/svg" xmlns:xlink="http://www.w3.org/1999/xlink" x="0px" y="0px"
	 viewBox="0 0 512 512" style="enable-background:new 0 0 512 512;" xml:space="preserve">
<polygon style="fill:#DDDBDB;" points="221.091,209.455 209.455,279.273 301.091,279.273 290.909,209.455 "/>
<polygon style="fill:#D1CFCF;" points="290.909,209.455 256,209.455 256,279.273 301.091,279.273 "/>
<path style="fill:#EDEDED;" d="M407.273,209.455c0,6.427-5.21,11.636-11.636,11.636H116.364c-6.427,0-11.636-5.21-11.636-11.636
	V11.636C104.727,5.21,109.937,0,116.364,0h279.273c6.427,0,11.636,5.21,11.636,11.636V209.455z"/>
<path style="fill:#DDDBDB;" d="M395.636,0H256v221.091h139.636c6.427,0,11.636-5.21,11.636-11.636V11.636
	C407.273,5.21,402.063,0,395.636,0z"/>
<path style="fill:#88888F;" d="M407.273,11.636C407.273,5.21,402.063,0,395.636,0H116.364c-6.427,0-11.636,5.21-11.636,11.636
	v151.273h302.545V11.636z"/>
<path style="fill:#797781;" d="M407.273,11.636C407.273,5.21,402.063,0,395.636,0H256v162.909h151.273V11.636z"/>
<polygon style="fill:#BFA993;" points="488.727,296.727 488.727,261.818 23.273,261.818 23.273,296.727 58.181,296.727 58.182,512 
	93.091,512 93.091,395.636 418.909,395.636 418.909,512 453.818,512 453.818,296.727 "/>
<polygon style="fill:#B29A7E;" points="488.727,261.818 256,261.818 256,395.636 418.909,395.636 418.909,512 453.818,512 
	453.818,296.727 488.727,296.727 "/>
<rect x="221.091" y="320" style="fill:#947859;" width="69.818" height="34.909"/>
<g>
</g>
<g>
</g>
<g>
</g>
<g>
</g>
<g>
</g>
<g>
</g>
<g>
</g>
<g>
</g>
<g>
</g>
<g>
</g>
<g>
</g>
<g>
</g>
<g>
</g>
<g>
</g>
<g>
</g>
</svg>
