<?xml version="1.0" encoding="iso-8859-1"?>
<!-- Generator: Adobe Illustrator 19.0.0, SVG Export Plug-In . SVG Version: 6.00 Build 0)  -->
<svg version="1.1" id="Layer_1" xmlns="http://www.w3.org/2000/svg" xmlns:xlink="http://www.w3.org/1999/xlink" x="0px" y="0px"
	 viewBox="0 0 512 512" style="enable-background:new 0 0 512 512;" xml:space="preserve">
<path style="fill:#95D5A7;" d="M73.143,42.667C32.747,42.667,0,75.414,0,115.81v134.095h512V115.81
	c0-40.396-32.747-73.143-73.143-73.143H73.143z"/>
<path style="fill:#80CB93;" d="M512,115.81c0-40.396-32.747-73.143-73.143-73.143H256v207.238h256V115.81z"/>
<rect x="237.714" y="42.667" style="fill:#AEDEBA;" width="36.571" height="195.048"/>
<rect x="256" y="42.667" style="fill:#95D5A7;" width="18.286" height="195.048"/>
<rect x="103.619" y="42.667" style="fill:#AEDEBA;" width="36.571" height="195.048"/>
<rect x="384" y="42.667" style="fill:#95D5A7;" width="36.571" height="195.048"/>
<rect y="237.714" style="fill:#80CB93;" width="512" height="121.905"/>
<rect x="256" y="237.714" style="fill:#6DC180;" width="256" height="121.905"/>
<g>
	<rect y="359.619" style="fill:#947859;" width="36.571" height="109.714"/>
	<rect x="475.429" y="359.619" style="fill:#947859;" width="36.571" height="109.714"/>
</g>
<path style="fill:#6DC180;" d="M36.571,128C16.374,128,0,144.374,0,164.571v24.381v12.19v36.571h36.571h36.571
	c20.197,0,36.571-16.374,36.571-36.571C109.714,160.747,76.968,128,36.571,128z"/>
<path style="fill:#68B86B;" d="M475.429,128c-40.397,0-73.143,32.747-73.143,73.143c0,20.197,16.374,36.571,36.571,36.571h24.381
	h12.19H512v-36.571v-12.19v-24.381C512,144.374,495.626,128,475.429,128z"/>
<g>
</g>
<g>
</g>
<g>
</g>
<g>
</g>
<g>
</g>
<g>
</g>
<g>
</g>
<g>
</g>
<g>
</g>
<g>
</g>
<g>
</g>
<g>
</g>
<g>
</g>
<g>
</g>
<g>
</g>
</svg>
