<?xml version="1.0" encoding="iso-8859-1"?>
<!-- Generator: Adobe Illustrator 19.0.0, SVG Export Plug-In . SVG Version: 6.00 Build 0)  -->
<svg version="1.1" id="Layer_1" xmlns="http://www.w3.org/2000/svg" xmlns:xlink="http://www.w3.org/1999/xlink" x="0px" y="0px"
	 viewBox="0 0 512 512" style="enable-background:new 0 0 512 512;" xml:space="preserve">
<polygon style="fill:#BFA993;" points="454.319,465.227 454.319,179.041 262.337,24.024 72.738,179.041 72.738,429.454 72.738,501 
	417.353,501 454.319,501 500.824,501 500.824,465.227 "/>
<polygon style="fill:#B29A7E;" points="454.319,465.227 454.319,179.041 262.337,24.024 262.337,501 417.353,501 454.319,501 
	500.824,501 500.824,465.227 "/>
<path style="fill:#88888F;" d="M262.336,322.134c-39.514,0-71.547,32.033-71.547,71.547V501h143.093v-107.32
	C333.883,354.168,301.851,322.134,262.336,322.134z"/>
<polygon style="fill:#947859;" points="489.651,238.663 262.336,56.811 35.022,238.663 12.673,210.729 262.336,11 512,210.729 "/>
<rect x="190.791" y="179.046" style="fill:#F8F8F9;" width="143.093" height="71.547"/>
<rect x="262.337" y="179.046" style="fill:#EDEDED;" width="71.547" height="71.547"/>
<polygon style="fill:#98C8ED;" points="143.093,501 0,501 11.924,429.454 131.169,429.454 "/>
<polygon style="fill:#7AB9E8;" points="131.169,429.454 71.545,429.454 71.545,501 143.093,501 "/>
<path style="fill:#797781;" d="M333.883,393.681c0-39.514-32.033-71.547-71.545-71.547V501h71.545V393.681z"/>
<polygon style="fill:#80684C;" points="512,210.729 262.337,11 262.337,56.811 489.651,238.663 "/>
<g>
</g>
<g>
</g>
<g>
</g>
<g>
</g>
<g>
</g>
<g>
</g>
<g>
</g>
<g>
</g>
<g>
</g>
<g>
</g>
<g>
</g>
<g>
</g>
<g>
</g>
<g>
</g>
<g>
</g>
</svg>
