<?xml version="1.0" encoding="iso-8859-1"?>
<!-- Generator: Adobe Illustrator 19.0.0, SVG Export Plug-In . SVG Version: 6.00 Build 0)  -->
<svg version="1.1" id="Layer_1" xmlns="http://www.w3.org/2000/svg" xmlns:xlink="http://www.w3.org/1999/xlink" x="0px" y="0px"
	 viewBox="0 0 512 512" style="enable-background:new 0 0 512 512;" xml:space="preserve">
<path style="fill:#F8F8F9;" d="M422.698,0H89.302C76.15,0,65.488,10.662,65.488,23.814v416.744
	c0,13.152,10.662,23.814,23.814,23.814h333.395c13.152,0,23.814-10.662,23.814-23.814V23.814C446.512,10.662,435.85,0,422.698,0z"/>
<path style="fill:#EDEDED;" d="M422.698,0H256v464.372h166.698c13.152,0,23.814-10.662,23.814-23.814V23.814
	C446.512,10.662,435.85,0,422.698,0z"/>
<g>
	<rect x="119.07" y="71.442" style="fill:#D8D8DA;" width="35.721" height="71.442"/>
	<rect x="119.07" y="273.86" style="fill:#D8D8DA;" width="35.721" height="95.256"/>
	<rect x="65.488" y="184.558" style="fill:#D8D8DA;" width="381.023" height="35.721"/>
</g>
<g>
	<rect x="256" y="184.558" style="fill:#C6C5CA;" width="190.512" height="35.721"/>
	<rect x="101.209" y="464.372" style="fill:#C6C5CA;" width="35.721" height="47.628"/>
	<rect x="375.07" y="464.372" style="fill:#C6C5CA;" width="35.721" height="47.628"/>
</g>
<g>
</g>
<g>
</g>
<g>
</g>
<g>
</g>
<g>
</g>
<g>
</g>
<g>
</g>
<g>
</g>
<g>
</g>
<g>
</g>
<g>
</g>
<g>
</g>
<g>
</g>
<g>
</g>
<g>
</g>
</svg>
