<?xml version="1.0" encoding="iso-8859-1"?>
<!-- Generator: Adobe Illustrator 19.0.0, SVG Export Plug-In . SVG Version: 6.00 Build 0)  -->
<svg version="1.1" id="Layer_1" xmlns="http://www.w3.org/2000/svg" xmlns:xlink="http://www.w3.org/1999/xlink" x="0px" y="0px"
	 viewBox="0 0 512 512" style="enable-background:new 0 0 512 512;" xml:space="preserve">
<circle style="fill:#D1E5F5;" cx="221.821" cy="187.733" r="170.667"/>
<path style="fill:#B4D8F1;" d="M221.823,17.067V358.4c94.257,0,170.667-76.41,170.667-170.667S316.079,17.067,221.823,17.067z"/>
<path style="fill:#BFA993;" d="M402.842,368.753c48.352-48.351,74.981-112.639,74.981-181.019
	c0-68.379-26.629-132.667-74.981-181.019L378.706,30.85c41.905,41.905,64.983,97.621,64.983,156.884
	c0,59.263-23.079,114.978-64.983,156.884c-41.905,41.906-97.62,64.983-156.882,64.983S106.846,386.522,64.94,344.617l-24.136,24.136
	c44.306,44.306,101.996,70.357,163.953,74.407v34.707h-51.2V512H290.09v-34.133h-51.2V443.16
	C300.845,439.108,358.535,413.059,402.842,368.753z"/>
<path style="fill:#B4D8F1;" d="M354.571,54.985C319.113,19.528,271.968,0,221.823,0S124.533,19.528,89.076,54.985
	c-73.198,73.198-73.198,192.298,0,265.496c35.458,35.458,82.602,54.985,132.747,54.985s97.289-19.528,132.747-54.985
	C427.767,247.283,427.767,128.183,354.571,54.985z M294,235.775c28.104-30.332,50.209-62.728,62.977-92.518
	c2.361-5.509,4.357-10.861,6.012-16.053c21.803,51.019,14.748,111.523-21.159,156.401L294,235.775z M113.211,296.346
	c-7.183-7.183-5.286-27.08,4.832-50.689c11.143-26.003,30.694-54.614,55.756-81.812l71.904,71.904
	c-48.336,44.497-94.238,64.927-118.054,64.927C120.944,300.677,116.085,299.22,113.211,296.346z M197.943,139.718
	c48.336-44.498,94.239-64.928,118.054-64.928c6.706,0,11.563,1.457,14.438,4.333c7.183,7.183,5.287,27.08-4.832,50.689
	c-11.143,26.003-30.695,54.614-55.756,81.812L197.943,139.718z M282.465,46.533c-12.665,4.044-26.249,10.126-40.398,18.158
	c-22.783,12.931-46.139,30.365-68.278,50.873l-47.844-47.845c27.133-21.76,60.595-33.586,95.877-33.586
	C243.021,34.133,263.559,38.409,282.465,46.533z M101.818,91.863l47.829,47.828c-28.104,30.332-50.209,62.729-62.977,92.52
	c-2.361,5.509-4.357,10.861-6.012,16.053C58.855,197.245,65.911,136.743,101.818,91.863z M161.178,328.934
	c12.666-4.045,26.251-10.127,40.4-18.158c22.783-12.931,46.139-30.365,68.277-50.873l47.844,47.845
	c-27.13,21.76-60.592,33.586-95.876,33.586C200.625,341.333,180.087,337.058,161.178,328.934z"/>
<rect x="238.888" y="477.867" style="fill:#B29A7E;" width="51.2" height="34.133"/>
<path style="fill:#98C8ED;" d="M354.571,54.985C319.113,19.528,271.968,0,221.823,0v34.133c21.198,0,41.736,4.276,60.642,12.4
	c-12.665,4.044-26.249,10.126-40.398,18.158c-6.713,3.81-13.477,8.021-20.243,12.578v42.197
	c39.145-30.477,74.329-44.677,94.173-44.677c6.706,0,11.563,1.457,14.438,4.333c7.183,7.183,5.287,27.08-4.832,50.689
	c-11.143,26.003-30.695,54.614-55.756,81.812l-48.024-48.024v48.271l23.88,23.88c-8.059,7.418-16.047,14.153-23.88,20.251v42.198
	c16.197-10.904,32.419-23.83,48.034-38.295l47.844,47.845c-27.131,21.76-60.594,33.586-95.877,33.586v34.133
	c50.145,0,97.289-19.528,132.747-54.985C427.767,247.283,427.767,128.183,354.571,54.985z M341.829,283.604L294,235.775
	c28.104-30.332,50.209-62.728,62.977-92.518c2.361-5.509,4.357-10.861,6.012-16.053
	C384.791,178.222,377.736,238.724,341.829,283.604z"/>
<path style="fill:#B29A7E;" d="M402.842,368.753c48.352-48.351,74.981-112.639,74.981-181.019
	c0-68.379-26.629-132.667-74.981-181.019L378.706,30.85c41.905,41.905,64.983,97.621,64.983,156.884
	c0,59.263-23.079,114.978-64.983,156.884c-37.856,37.856-86.985,60.343-139.817,64.336v34.207
	C300.845,439.108,358.535,413.059,402.842,368.753z"/>
<g>
</g>
<g>
</g>
<g>
</g>
<g>
</g>
<g>
</g>
<g>
</g>
<g>
</g>
<g>
</g>
<g>
</g>
<g>
</g>
<g>
</g>
<g>
</g>
<g>
</g>
<g>
</g>
<g>
</g>
</svg>
