<?xml version="1.0" encoding="iso-8859-1"?>
<!-- Generator: Adobe Illustrator 19.0.0, SVG Export Plug-In . SVG Version: 6.00 Build 0)  -->
<svg version="1.1" id="Layer_1" xmlns="http://www.w3.org/2000/svg" xmlns:xlink="http://www.w3.org/1999/xlink" x="0px" y="0px"
	 viewBox="0 0 512 512" style="enable-background:new 0 0 512 512;" xml:space="preserve">
<path style="fill:#B4D8F1;" d="M347.398,512C370.035,488.911,384,457.289,384,422.4V268.801H128V422.4
	c0,34.889,13.965,66.511,36.602,89.6H347.398z"/>
<path style="fill:#98C8ED;" d="M256,268.8V512h91.398C370.035,488.91,384,457.288,384,422.4V268.8H256z"/>
<polygon style="fill:#F8F8F9;" points="384,0 128,0 25.6,281.6 486.4,281.6 "/>
<path style="fill:#88888F;" d="M467.2,358.164V268.8h-38.4v89.365c-3.971,4.511-6.4,10.408-6.4,16.875
	c0,14.116,11.484,25.6,25.6,25.6c14.116,0,25.6-11.484,25.6-25.6C473.6,368.573,471.171,362.676,467.2,358.164z"/>
<polygon style="fill:#EDEDED;" points="384,0 256,0 256,281.6 486.4,281.6 "/>
<g>
</g>
<g>
</g>
<g>
</g>
<g>
</g>
<g>
</g>
<g>
</g>
<g>
</g>
<g>
</g>
<g>
</g>
<g>
</g>
<g>
</g>
<g>
</g>
<g>
</g>
<g>
</g>
<g>
</g>
</svg>
