<?xml version="1.0" encoding="iso-8859-1"?>
<!-- Generator: Adobe Illustrator 19.0.0, SVG Export Plug-In . SVG Version: 6.00 Build 0)  -->
<svg version="1.1" id="Layer_1" xmlns="http://www.w3.org/2000/svg" xmlns:xlink="http://www.w3.org/1999/xlink" x="0px" y="0px"
	 viewBox="0 0 512.018 512.018" style="enable-background:new 0 0 512.018 512.018;" xml:space="preserve">
<g>
	<rect x="330.266" style="fill:#95D5A7;" width="34.272" height="68.544"/>
	
		<rect x="375.977" y="10.52" transform="matrix(-0.9285 -0.3714 0.3714 -0.9285 742.7788 225.6091)" style="fill:#95D5A7;" width="34.273" height="61.522"/>
	
		<rect x="270.951" y="24.157" transform="matrix(-0.3714 -0.9285 0.9285 -0.3714 375.4255 336.7626)" style="fill:#95D5A7;" width="61.522" height="34.273"/>
</g>
<rect x="84.649" y="40.636" style="fill:#E17858;" width="34.272" height="148.512"/>
<rect x="118.922" y="40.636" style="fill:#98C8ED;" width="34.272" height="148.512"/>
<rect x="153.194" y="40.636" style="fill:#F8E99B;" width="34.272" height="148.512"/>
<rect x="187.466" y="40.636" style="fill:#95D5A7;" width="34.272" height="148.512"/>
<polygon style="fill:#EFC27B;" points="404.521,189.149 290.281,189.149 278.857,63.484 415.945,63.484 "/>
<polygon style="fill:#ECB45C;" points="415.945,63.484 347.401,63.484 347.401,189.149 404.521,189.149 "/>
<g>
	
		<rect x="99.081" y="278.788" transform="matrix(-0.9848 -0.1738 0.1738 -0.9848 162.0512 803.7817)" style="fill:#88888F;" width="34.273" height="232.015"/>
	
		<rect x="279.782" y="377.662" transform="matrix(-0.1738 -0.9848 0.9848 -0.1738 75.7867 853.1777)" style="fill:#88888F;" width="232.015" height="34.272"/>
</g>
<path style="fill:#BFA993;" d="M495.913,246.269c0-37.856-30.688-68.544-68.544-68.544H84.648
	c-37.856,0-68.544,30.688-68.544,68.544l0,0c0,37.856,30.688,68.544,68.544,68.544h342.721
	C465.225,314.813,495.913,284.125,495.913,246.269L495.913,246.269z"/>
<g>
	<path style="fill:#B29A7E;" d="M427.369,177.725h-171.36v137.088h171.36c37.856,0,68.544-30.688,68.544-68.544
		S465.225,177.725,427.369,177.725z"/>
	<rect x="238.874" y="177.724" style="fill:#B29A7E;" width="34.272" height="137.088"/>
</g>
<g>
	<path style="fill:#947859;" d="M147.481,269.117c-12.598,0-22.848-10.25-22.848-22.848s10.25-22.848,22.848-22.848
		c12.598,0,22.848,10.25,22.848,22.848C170.329,258.869,160.079,269.117,147.481,269.117z"/>
	<path style="fill:#947859;" d="M364.537,269.117c-12.598,0-22.848-10.25-22.848-22.848s10.25-22.848,22.848-22.848
		c12.598,0,22.848,10.25,22.848,22.848C387.385,258.869,377.136,269.117,364.537,269.117z"/>
</g>
<g>
</g>
<g>
</g>
<g>
</g>
<g>
</g>
<g>
</g>
<g>
</g>
<g>
</g>
<g>
</g>
<g>
</g>
<g>
</g>
<g>
</g>
<g>
</g>
<g>
</g>
<g>
</g>
<g>
</g>
</svg>
