<?xml version="1.0" encoding="iso-8859-1"?>
<!-- Generator: Adobe Illustrator 19.0.0, SVG Export Plug-In . SVG Version: 6.00 Build 0)  -->
<svg version="1.1" id="Layer_1" xmlns="http://www.w3.org/2000/svg" xmlns:xlink="http://www.w3.org/1999/xlink" x="0px" y="0px"
	 viewBox="0 0 512 512" style="enable-background:new 0 0 512 512;" xml:space="preserve">
<path style="fill:#BFA993;" d="M290.909,203.636h-11.636v-34.909h11.636c41.706,0,75.636-33.93,75.636-75.636V81.455h34.909v11.636
	C401.455,154.046,351.864,203.636,290.909,203.636z"/>
<circle style="fill:#D8D8DA;" cx="384" cy="58.182" r="34.909"/>
<path style="fill:#BFA993;" d="M290.909,413.091h-11.636v-34.909h11.636c41.706,0,75.636-33.93,75.636-75.636v-11.636h34.909v11.636
	C401.455,363.5,351.864,413.091,290.909,413.091z"/>
<circle style="fill:#D8D8DA;" cx="384" cy="267.636" r="34.909"/>
<path style="fill:#BFA993;" d="M232.727,308.364h-11.636c-60.955,0-110.545-49.591-110.545-110.545v-11.636h34.909v11.636
	c0,41.706,33.93,75.636,75.636,75.636h11.636V308.364z"/>
<circle style="fill:#D8D8DA;" cx="128" cy="162.909" r="34.909"/>
<path style="fill:#BFA993;" d="M290.909,465.455V34.909C290.909,15.63,275.279,0,256,0l0,0c-19.279,0-34.909,15.63-34.909,34.909
	v430.545H290.909z"/>
<g>
	<path style="fill:#B29A7E;" d="M290.909,34.909C290.909,15.63,275.279,0,256,0v465.455h34.909V34.909z"/>
	<path style="fill:#B29A7E;" d="M128,512h256c0-38.559-31.259-69.818-69.818-69.818H197.818C159.259,442.182,128,473.441,128,512z"
		/>
</g>
<path style="fill:#A58868;" d="M314.182,442.182H256V512h128C384,473.441,352.741,442.182,314.182,442.182z"/>
<g>
</g>
<g>
</g>
<g>
</g>
<g>
</g>
<g>
</g>
<g>
</g>
<g>
</g>
<g>
</g>
<g>
</g>
<g>
</g>
<g>
</g>
<g>
</g>
<g>
</g>
<g>
</g>
<g>
</g>
</svg>
