<?xml version="1.0" encoding="iso-8859-1"?>
<!-- Generator: Adobe Illustrator 19.0.0, SVG Export Plug-In . SVG Version: 6.00 Build 0)  -->
<svg version="1.1" id="Layer_1" xmlns="http://www.w3.org/2000/svg" xmlns:xlink="http://www.w3.org/1999/xlink" x="0px" y="0px"
	 viewBox="0 0 512 512" style="enable-background:new 0 0 512 512;" xml:space="preserve">
<path style="fill:#BFA993;" d="M466.503,336.073c-13.869,33.632-35.048,62.586-61.263,85.348l-44.772-125.363h0.585
	c19.339,0,35.017-15.678,35.017-35.017s-15.678-35.017-35.017-35.017h-6.544l-16.818-67.272c7.172-6.412,11.69-15.731,11.69-26.108
	c0-19.339-15.678-35.017-35.017-35.017H145.649L121.242,0L87.271,8.492l63.676,254.704v32.862h0.584L106.758,421.42
	c-26.215-22.763-47.395-51.716-61.263-85.348l-32.372,13.351c19.596,47.52,52.471,87.997,95.07,117.055
	c43.655,29.78,94.767,45.52,147.806,45.52s104.15-15.74,147.806-45.52c42.6-29.06,75.474-69.535,95.07-117.055L466.503,336.073z
	 M303.821,167.661l14.591,58.362H177.749l-14.591-58.362H303.821z M255.999,476.983c-43.403,0-84.619-12.156-119.795-33.893
	l50.426-141.194h138.737l50.426,141.194C340.617,464.827,299.401,476.983,255.999,476.983z"/>
<path style="fill:#B29A7E;" d="M466.503,336.073c-13.869,33.632-35.048,62.586-61.263,85.348l-44.772-125.363h0.585
	c19.339,0,35.017-15.678,35.017-35.017s-15.678-35.017-35.017-35.017h-6.544l-16.818-67.272c7.172-6.412,11.69-15.731,11.69-26.108
	c0-19.339-15.678-35.017-35.017-35.017h-58.362v70.035h47.822l14.591,58.362h-62.413v75.871h69.368l50.426,141.194
	c-35.177,21.738-76.393,33.893-119.795,33.893V512c53.04,0,104.15-15.74,147.806-45.52c42.6-29.06,75.474-69.535,95.07-117.055
	L466.503,336.073z"/>
<g>
</g>
<g>
</g>
<g>
</g>
<g>
</g>
<g>
</g>
<g>
</g>
<g>
</g>
<g>
</g>
<g>
</g>
<g>
</g>
<g>
</g>
<g>
</g>
<g>
</g>
<g>
</g>
<g>
</g>
</svg>
