<?xml version="1.0" encoding="iso-8859-1"?>
<!-- Generator: Adobe Illustrator 19.0.0, SVG Export Plug-In . SVG Version: 6.00 Build 0)  -->
<svg version="1.1" id="Layer_1" xmlns="http://www.w3.org/2000/svg" xmlns:xlink="http://www.w3.org/1999/xlink" x="0px" y="0px"
	 viewBox="0 0 512 512" style="enable-background:new 0 0 512 512;" xml:space="preserve">
<rect x="56.195" y="49.951" style="fill:#A58868;" width="399.61" height="412.098"/>
<rect x="256" y="49.951" style="fill:#947859;" width="199.805" height="412.098"/>
<path style="fill:#BFA993;" d="M437.073,0v31.22H74.927V0H37.463v512h37.463v-31.22h362.146V512h37.463V0H437.073z M437.073,68.683
	v99.902H74.927V68.683H437.073z M437.073,206.049v99.902H74.927v-99.902H437.073z M74.927,443.317v-99.902h362.146v99.902H74.927z"
	/>
<polygon style="fill:#B29A7E;" points="437.073,0 437.073,31.22 255.999,31.22 255.999,68.683 437.073,68.683 437.073,168.585 
	255.999,168.585 255.999,206.049 437.073,206.049 437.073,305.951 255.999,305.951 255.999,343.415 437.073,343.415 
	437.073,443.317 255.999,443.317 255.999,480.78 437.073,480.78 437.073,512 474.537,512 474.537,0 "/>
<g>
</g>
<g>
</g>
<g>
</g>
<g>
</g>
<g>
</g>
<g>
</g>
<g>
</g>
<g>
</g>
<g>
</g>
<g>
</g>
<g>
</g>
<g>
</g>
<g>
</g>
<g>
</g>
<g>
</g>
</svg>
