<?xml version="1.0" encoding="iso-8859-1"?>
<!-- Generator: Adobe Illustrator 19.0.0, SVG Export Plug-In . SVG Version: 6.00 Build 0)  -->
<svg version="1.1" id="Layer_1" xmlns="http://www.w3.org/2000/svg" xmlns:xlink="http://www.w3.org/1999/xlink" x="0px" y="0px"
	 viewBox="0 0 512 512" style="enable-background:new 0 0 512 512;" xml:space="preserve">
<path style="fill:#E07188;" d="M256,0C125.491,0,19.692,105.798,19.692,236.308V512h472.615V236.308
	C492.308,105.798,386.509,0,256,0z"/>
<path style="fill:#E02753;" d="M492.308,236.308C492.308,105.798,386.509,0,256,0v512h236.308V236.308z"/>
<circle style="fill:#F8F8F9;" cx="256" cy="236.308" r="131.282"/>
<path style="fill:#EDEDED;" d="M256,105.026L256,105.026v262.563l0,0c72.504,0,131.282-58.776,131.282-131.281
	C387.282,163.802,328.504,105.026,256,105.026z"/>
<polygon style="fill:#88888F;" points="297.773,305.931 236.308,244.464 236.308,157.538 275.692,157.538 275.692,228.151 
	325.621,278.082 "/>
<g>
</g>
<g>
</g>
<g>
</g>
<g>
</g>
<g>
</g>
<g>
</g>
<g>
</g>
<g>
</g>
<g>
</g>
<g>
</g>
<g>
</g>
<g>
</g>
<g>
</g>
<g>
</g>
<g>
</g>
</svg>
