<?xml version="1.0" encoding="iso-8859-1"?>
<!-- Generator: Adobe Illustrator 19.0.0, SVG Export Plug-In . SVG Version: 6.00 Build 0)  -->
<svg version="1.1" id="Layer_1" xmlns="http://www.w3.org/2000/svg" xmlns:xlink="http://www.w3.org/1999/xlink" x="0px" y="0px"
	 viewBox="0 0 512 512" style="enable-background:new 0 0 512 512;" xml:space="preserve">
<g>
	<rect x="237.714" y="146.286" style="fill:#88888F;" width="36.571" height="359.619"/>
	<path style="fill:#88888F;" d="M85.333,505.905H36.571v-36.571h48.762c43.692,0,79.238-35.546,79.238-79.238V219.429
		c0-16.805-13.672-30.476-30.476-30.476v-36.571c36.97,0,67.048,30.078,67.048,67.048v170.667
		C201.143,453.953,149.191,505.905,85.333,505.905z"/>
</g>
<path style="fill:#797781;" d="M475.429,505.905h-48.762c-63.857,0-115.81-51.952-115.81-115.81V219.429
	c0-36.97,30.078-67.048,67.048-67.048v36.571c-16.805,0-30.476,13.672-30.476,30.476v170.667c0,43.692,35.546,79.238,79.238,79.238
	h48.762V505.905z"/>
<rect y="6.095" style="fill:#E8F4FC;" width="512" height="73.143"/>
<g>
	<rect x="73.143" y="79.238" style="fill:#D1E5F5;" width="365.714" height="73.143"/>
	<rect x="256" y="6.095" style="fill:#D1E5F5;" width="256" height="73.143"/>
</g>
<rect x="256" y="79.238" style="fill:#B4D8F1;" width="182.857" height="73.143"/>
<g>
</g>
<g>
</g>
<g>
</g>
<g>
</g>
<g>
</g>
<g>
</g>
<g>
</g>
<g>
</g>
<g>
</g>
<g>
</g>
<g>
</g>
<g>
</g>
<g>
</g>
<g>
</g>
<g>
</g>
</svg>
