<?xml version="1.0" encoding="iso-8859-1"?>
<!-- Generator: Adobe Illustrator 19.0.0, SVG Export Plug-In . SVG Version: 6.00 Build 0)  -->
<svg version="1.1" id="Layer_1" xmlns="http://www.w3.org/2000/svg" xmlns:xlink="http://www.w3.org/1999/xlink" x="0px" y="0px"
	 viewBox="0 0 512 512" style="enable-background:new 0 0 512 512;" xml:space="preserve">
<path style="fill:#D8D8DA;" d="M380.878,68.683h54.975c6.479,11.195,18.576,18.732,32.44,18.732
	c20.69,0,37.463-16.774,37.463-37.463s-16.774-37.463-37.463-37.463c-13.864,0-25.961,7.536-32.44,18.732h-54.975V68.683z"/>
<path style="fill:#7AB9E8;" d="M93.659,0c-20.69,0-37.463,16.774-37.463,37.463v424.585h37.463v-49.951h62.439V0H93.659z"/>
<path style="fill:#D8D8DA;" d="M131.122,31.22H76.147c-6.479-11.195-18.576-18.732-32.44-18.732
	c-20.69,0-37.463,16.774-37.463,37.463s16.774,37.463,37.463,37.463c13.864,0,25.961-7.536,32.44-18.732h54.975V31.22z"/>
<path style="fill:#98C8ED;" d="M393.366,0H93.659c20.69,0,37.463,16.774,37.463,37.463V512h37.463v-49.951h28.098V512h37.463
	v-49.951h28.098V512h37.463v-49.951h28.098V512h37.463v-49.951h28.098V512h37.463V37.463C430.829,16.774,414.056,0,393.366,0z"/>
<rect x="56.195" y="330.927" style="fill:#61AAE4;" width="74.927" height="37.463"/>
<rect x="118.634" y="368.39" style="fill:#7AB9E8;" width="312.195" height="37.463"/>
<g>
</g>
<g>
</g>
<g>
</g>
<g>
</g>
<g>
</g>
<g>
</g>
<g>
</g>
<g>
</g>
<g>
</g>
<g>
</g>
<g>
</g>
<g>
</g>
<g>
</g>
<g>
</g>
<g>
</g>
</svg>
