<?xml version="1.0" encoding="iso-8859-1"?>
<!-- Generator: Adobe Illustrator 19.0.0, SVG Export Plug-In . SVG Version: 6.00 Build 0)  -->
<svg version="1.1" id="Layer_1" xmlns="http://www.w3.org/2000/svg" xmlns:xlink="http://www.w3.org/1999/xlink" x="0px" y="0px"
	 viewBox="0 0 512 512" style="enable-background:new 0 0 512 512;" xml:space="preserve">
<polygon style="fill:#BFA993;" points="474.607,0 37.393,0 37.393,34.517 71.91,34.517 71.91,396.944 440.09,396.944 440.09,34.517 
	474.607,34.517 "/>
<polygon style="fill:#B29A7E;" points="238.742,0 238.742,34.517 256,34.517 256,396.944 440.09,396.944 440.09,34.517 
	474.607,34.517 474.607,0 "/>
<g>
	<rect x="129.438" y="207.101" style="fill:#947859;" width="69.034" height="34.517"/>
	<rect x="313.528" y="207.101" style="fill:#947859;" width="69.034" height="34.517"/>
</g>
<g>
	<rect x="238.742" y="34.517" style="fill:#A58868;" width="34.517" height="362.427"/>
	<path style="fill:#A58868;" d="M71.91,396.944v80.539V512h34.517v-34.517c0-19.063,66.966-34.517,149.573-34.517
		s149.573,15.454,149.573,34.517V512h34.517v-34.517v-80.539H71.91z"/>
</g>
<path style="fill:#947859;" d="M238.742,396.944v46.253c5.664-0.151,11.42-0.23,17.258-0.23c82.607,0,149.573,15.454,149.573,34.517
	V512h34.517v-34.517v-80.539H238.742z"/>
<g>
</g>
<g>
</g>
<g>
</g>
<g>
</g>
<g>
</g>
<g>
</g>
<g>
</g>
<g>
</g>
<g>
</g>
<g>
</g>
<g>
</g>
<g>
</g>
<g>
</g>
<g>
</g>
<g>
</g>
</svg>
