<?xml version="1.0" encoding="iso-8859-1"?>
<!-- Generator: Adobe Illustrator 19.0.0, SVG Export Plug-In . SVG Version: 6.00 Build 0)  -->
<svg version="1.1" id="Layer_1" xmlns="http://www.w3.org/2000/svg" xmlns:xlink="http://www.w3.org/1999/xlink" x="0px" y="0px"
	 viewBox="0 0 512 512" style="enable-background:new 0 0 512 512;" xml:space="preserve">
<rect style="fill:#F8F8F9;" width="512" height="512"/>
<rect x="256" style="fill:#EDEDED;" width="256" height="512"/>
<rect y="114.526" style="fill:#D8D8DA;" width="512" height="40.421"/>
<rect x="256" y="114.526" style="fill:#C6C5CA;" width="256" height="40.421"/>
<circle style="fill:#D1E5F5;" cx="256" cy="323.368" r="107.789"/>
<path style="fill:#B4D8F1;" d="M309.892,330.105c-26.949,0-26.949-13.474-53.899-13.474c-26.945,0-26.945,13.474-53.891,13.474
	c-26.867,0-26.953-13.392-53.662-13.47c-0.137,2.229-0.23,4.469-0.23,6.733c0,59.531,48.259,107.789,107.789,107.789
	s107.789-48.259,107.789-107.789c0-2.264-0.093-4.504-0.23-6.733C336.848,316.714,336.761,330.105,309.892,330.105z"/>
<g>
	<path style="fill:#D8D8DA;" d="M80.842,94.316c-14.859,0-26.947-12.089-26.947-26.947s12.089-26.947,26.947-26.947
		s26.947,12.089,26.947,26.947S95.701,94.316,80.842,94.316z"/>
	<path style="fill:#D8D8DA;" d="M181.895,94.316c-14.859,0-26.947-12.089-26.947-26.947s12.089-26.947,26.947-26.947
		s26.947,12.089,26.947,26.947S196.754,94.316,181.895,94.316z"/>
</g>
<g>
</g>
<g>
</g>
<g>
</g>
<g>
</g>
<g>
</g>
<g>
</g>
<g>
</g>
<g>
</g>
<g>
</g>
<g>
</g>
<g>
</g>
<g>
</g>
<g>
</g>
<g>
</g>
<g>
</g>
</svg>
