<?xml version="1.0" encoding="iso-8859-1"?>
<!-- Generator: Adobe Illustrator 19.0.0, SVG Export Plug-In . SVG Version: 6.00 Build 0)  -->
<svg version="1.1" id="Layer_1" xmlns="http://www.w3.org/2000/svg" xmlns:xlink="http://www.w3.org/1999/xlink" x="0px" y="0px"
	 viewBox="0 0 512 512" style="enable-background:new 0 0 512 512;" xml:space="preserve">
<rect x="97.524" y="24.381" style="fill:#D1E5F5;" width="316.952" height="365.714"/>
<g>
	<polygon style="fill:#B4D8F1;" points="410.412,377.905 268.19,377.905 410.412,195.048 	"/>
	<polygon style="fill:#B4D8F1;" points="264.126,377.905 121.905,377.905 264.126,195.048 	"/>
</g>
<polygon style="fill:#BFA993;" points="274.286,371.81 274.286,0 237.714,0 237.714,371.81 146.286,371.81 146.286,408.381 
	365.714,408.381 365.714,371.81 "/>
<path style="fill:#E07188;" d="M60.952,512h121.905c0-100.99-39.48-195.048-73.143-195.048C183.774,316.952,256,168.315,256,0
	H60.952V512z"/>
<path style="fill:#E02753;" d="M256,0c0,168.315,72.226,316.952,146.286,316.952c-33.663,0-73.143,94.058-73.143,195.048h121.905V0
	H256z"/>
<g>
	<rect x="365.714" y="298.667" style="fill:#F8E99B;" width="85.333" height="36.571"/>
	<rect x="60.952" y="298.667" style="fill:#F8E99B;" width="85.333" height="36.571"/>
</g>
<g>
</g>
<g>
</g>
<g>
</g>
<g>
</g>
<g>
</g>
<g>
</g>
<g>
</g>
<g>
</g>
<g>
</g>
<g>
</g>
<g>
</g>
<g>
</g>
<g>
</g>
<g>
</g>
<g>
</g>
</svg>
