<?xml version="1.0" encoding="iso-8859-1"?>
<!-- Generator: Adobe Illustrator 19.0.0, SVG Export Plug-In . SVG Version: 6.00 Build 0)  -->
<svg version="1.1" id="Capa_1" xmlns="http://www.w3.org/2000/svg" xmlns:xlink="http://www.w3.org/1999/xlink" x="0px" y="0px"
	 viewBox="0 0 512 512" style="enable-background:new 0 0 512 512;" xml:space="preserve">
<path style="fill:#D3754F;" d="M465,490H26c-2.761,0-5-2.239-5-5V15c0-2.761,2.239-5,5-5h439c2.761,0,5,2.239,5,5v470
	C470,487.761,467.761,490,465,490z"/>
<path style="fill:#B16F52;" d="M320,20v460h-70V20H320z"/>
<path style="fill:#EBC9A0;" d="M330,140H195c-2.761,0-5-2.239-5-5V85c0-2.761,2.239-5,5-5h135V140z"/>
<path style="fill:#D7AF87;" d="M267.5,104.997c0,4.143-3.358,7.5-7.5,7.5h-20c-4.142,0-7.5-3.357-7.5-7.5s3.358-7.5,7.5-7.5h20
	C264.142,97.497,267.5,100.854,267.5,104.997z"/>
<path style="fill:#924A36;" d="M142.5,140c0-4.143,3.821-7.5,8.534-7.5h147.931c4.713,0,8.534,3.357,8.534,7.5s-3.821,7.5-8.534,7.5
	H151.034C146.321,147.5,142.5,144.143,142.5,140z M298.966,172.5h-61.468V170c0-4.143-3.358-7.5-7.5-7.5s-7.5,3.357-7.5,7.5v2.5
	h-71.463c-4.713,0-8.534,3.357-8.534,7.5s3.821,7.5,8.534,7.5h71.463V210c0,4.143,3.358,7.5,7.5,7.5s7.5-3.357,7.5-7.5v-22.5h61.468
	c4.713,0,8.534-3.357,8.534-7.5S303.679,172.5,298.966,172.5z"/>
<path style="fill:#D5DCED;" d="M254.997,230v195c0,2.761-2.239,5-5,5h-40c-2.761,0-5-2.239-5-5V230c0-11.046,8.954-20,20-20h10
	C246.043,210,254.997,218.954,254.997,230z"/>
<path style="fill:#AFB9D2;" d="M249.997,430h-40c-2.761,0-5-2.239-5-5V250h50v175C254.997,427.761,252.758,430,249.997,430z"/>
<path style="fill:#D7AF87;" d="M460,20v460H300V20H460z M21,480h139V20H21V480z"/>
<path style="fill:#57676E;" d="M127.5,236v40c0,4.143-3.358,7.5-7.5,7.5s-7.5-3.357-7.5-7.5v-40c0-4.143,3.358-7.5,7.5-7.5
	S127.5,231.857,127.5,236z"/>
<path style="fill:#BAF6FF;" d="M491,20v460H351V20H491z"/>
<g>
	<path style="fill:#A2DAF9;" d="M491,20v460h-31V20H491z"/>
	<path style="fill:#A2DAF9;" d="M440.303,394.696c2.929,2.93,2.929,7.678,0,10.607c-1.464,1.464-3.384,2.196-5.303,2.196
		s-3.839-0.732-5.303-2.196L351,326.607v-19.032c1.574,0.211,3.094,0.912,4.303,2.121L440.303,394.696z M400,297.5
		c1.919,0,3.839-0.732,5.303-2.196c2.929-2.93,2.929-7.678,0-10.607l-50-50c-1.209-1.209-2.73-1.91-4.303-2.121v19.032
		l43.697,43.697C396.161,296.768,398.081,297.5,400,297.5z M435.697,198.22c-2.929,2.93-2.929,7.678,0,10.607l50,50
		c1.464,1.464,3.384,2.196,5.303,2.196v-18.107l-44.697-44.697C443.375,195.292,438.625,195.292,435.697,198.22z M411.303,88.22
		c-2.929-2.928-7.678-2.928-10.606,0c-2.929,2.93-2.929,7.678,0,10.607l85,85c1.464,1.464,3.384,2.196,5.303,2.196v-18.107
		L411.303,88.22z"/>
</g>
<path style="fill:#EBC9A0;" d="M512,5v30c0,2.761-2.239,5-5,5H5c-2.761,0-5-2.239-5-5V5c0-2.761,2.239-5,5-5h502
	C509.761,0,512,2.239,512,5z M507,472H5c-2.761,0-5,2.239-5,5v30c0,2.761,2.239,5,5,5h502c2.761,0,5-2.239,5-5v-30
	C512,474.239,509.761,472,507,472z"/>
<path style="fill:#D7AF87;" d="M512,5v30c0,2.762-2.239,5-5,5h-30c2.761,0,5-2.238,5-5V5c0-2.761-2.239-5-5-5h30
	C509.761,0,512,2.239,512,5z M507,472h-30c2.761,0,5,2.239,5,5v30c0,2.762-2.239,5-5,5h30c2.761,0,5-2.238,5-5v-30
	C512,474.239,509.761,472,507,472z"/>
<g>
</g>
<g>
</g>
<g>
</g>
<g>
</g>
<g>
</g>
<g>
</g>
<g>
</g>
<g>
</g>
<g>
</g>
<g>
</g>
<g>
</g>
<g>
</g>
<g>
</g>
<g>
</g>
<g>
</g>
</svg>
