<?xml version="1.0" encoding="iso-8859-1"?>
<!-- Generator: Adobe Illustrator 19.0.0, SVG Export Plug-In . SVG Version: 6.00 Build 0)  -->
<svg version="1.1" id="Capa_1" xmlns="http://www.w3.org/2000/svg" xmlns:xlink="http://www.w3.org/1999/xlink" x="0px" y="0px"
	 viewBox="0 0 512 512" style="enable-background:new 0 0 512 512;" xml:space="preserve">
<path style="fill:#8A90A7;" d="M276,200.264v141.342c0,2.761-2.239,5-5,5h-30c-2.761,0-5-2.239-5-5V200.264c0-2.761,2.239-5,5-5h30
	C273.761,195.264,276,197.503,276,200.264z"/>
<path style="fill:#924A36;" d="M93.5,364.528v99.567c0,4.125-3.358,7.468-7.5,7.468s-7.5-3.343-7.5-7.468v-99.567
	c0-4.125,3.358-7.468,7.5-7.468S93.5,360.404,93.5,364.528z M426,357.061c-4.142,0-7.5,3.343-7.5,7.468v99.567
	c0,4.125,3.358,7.468,7.5,7.468s7.5-3.343,7.5-7.468v-99.567C433.5,360.404,430.142,357.061,426,357.061z"/>
<path style="fill:#AFB9D2;" d="M390,424.268v24.892c0,5.499-4.477,9.957-10,9.957h-80c-5.523,0-10-4.458-10-9.957v-24.892
	c0-5.499,4.477-9.957,10-9.957h80C385.523,414.312,390,418.769,390,424.268z M342,344.615v-17.922c0-10.998-8.954-19.913-20-19.913
	H190c-11.046,0-20,8.915-20,19.913v17.922c0,10.998,8.954,19.913,20,19.913h132C333.046,364.528,342,355.613,342,344.615z
	 M477,75.784H35c-2.761,0-5,2.229-5,4.978v179.221c0,2.749,2.239,4.978,5,4.978h442c2.761,0,5-2.229,5-4.978V80.762
	C482,78.013,479.761,75.784,477,75.784z"/>
<path style="fill:#8A90A7;" d="M342,326.693v17.922c0,10.998-8.954,19.913-20,19.913h-32c11.046,0,20-8.915,20-19.913v-17.922
	c0-10.998-8.954-19.913-20-19.913h32C333.046,306.779,342,315.695,342,326.693z M477,75.784h-42c2.761,0,5,2.229,5,4.978v179.221
	c0,2.749-2.239,4.978-5,4.978h42c2.761,0,5-2.229,5-4.978V80.762C482,78.013,479.761,75.784,477,75.784z"/>
<path style="fill:#6A808B;" d="M477,215.177H35c-2.761,0-5-2.239-5-5V31c0-2.761,2.239-5,5-5h442c2.761,0,5,2.239,5,5v179.177
	C482,212.939,479.761,215.177,477,215.177z"/>
<path style="fill:#57676E;" d="M477,215.177h-37V26h37c2.761,0,5,2.239,5,5v179.177C482,212.939,479.761,215.177,477,215.177z"/>
<path style="fill:#8A90A7;" d="M273.5,240.072c0,4.125-3.358,7.468-7.5,7.468h-20c-4.142,0-7.5-3.343-7.5-7.468
	s3.358-7.468,7.5-7.468h20C270.142,232.605,273.5,235.948,273.5,240.072z"/>
<path style="fill:#D3754F;" d="M512,341.628v29.87c0,2.749-2.239,4.978-5,4.978H5c-2.761,0-5-2.229-5-4.978v-29.87
	c0-2.749,2.239-4.978,5-4.978h502C509.761,336.649,512,338.878,512,341.628z M507,446.173H5c-2.761,0-5,2.229-5,4.978v29.87
	C0,483.771,2.239,486,5,486h502c2.761,0,5-2.229,5-4.978v-29.87C512,448.402,509.761,446.173,507,446.173z"/>
<path style="fill:#B16F52;" d="M512,341.628v29.87c0,2.749-2.239,4.978-5,4.978h-30c2.761,0,5-2.229,5-4.978v-29.87
	c0-2.749-2.239-4.978-5-4.978h30C509.761,336.649,512,338.878,512,341.628z M507,446.173h-30c2.761,0,5,2.229,5,4.978v29.87
	c0,2.749-2.239,4.978-5,4.978h30c2.761,0,5-2.229,5-4.978v-29.87C512,448.402,509.761,446.173,507,446.173z"/>
<g>
</g>
<g>
</g>
<g>
</g>
<g>
</g>
<g>
</g>
<g>
</g>
<g>
</g>
<g>
</g>
<g>
</g>
<g>
</g>
<g>
</g>
<g>
</g>
<g>
</g>
<g>
</g>
<g>
</g>
</svg>
