<?xml version="1.0" encoding="iso-8859-1"?>
<!-- Generator: Adobe Illustrator 19.0.0, SVG Export Plug-In . SVG Version: 6.00 Build 0)  -->
<svg version="1.1" id="Capa_1" xmlns="http://www.w3.org/2000/svg" xmlns:xlink="http://www.w3.org/1999/xlink" x="0px" y="0px"
	 viewBox="0 0 512 512" style="enable-background:new 0 0 512 512;" xml:space="preserve">
<path style="fill:#EBC9A0;" d="M80,167.301v231.216c0,2.752-2.239,4.983-5,4.983H45c-2.761,0-5-2.231-5-4.983V167.301
	c0-2.752,2.239-4.983,5-4.983h30C77.761,162.318,80,164.549,80,167.301z M467,162.318h-30c-2.761,0-5,2.231-5,4.983v231.216
	c0,2.752,2.239,4.983,5,4.983h30c2.761,0,5-2.231,5-4.983V167.301C472,164.549,469.761,162.318,467,162.318z"/>
<path style="fill:#D7AF87;" d="M467,182.25H45c-2.761,0-5-2.239-5-5v-29.865c0-2.761,2.239-5,5-5h422c2.761,0,5,2.239,5,5v29.865
	C472,180.011,469.761,182.25,467,182.25z"/>
<path style="fill:#C49D7A;" d="M472,147.368v29.899c0,2.752-2.239,4.983-5,4.983h-35v-39.865h35
	C469.761,142.385,472,144.616,472,147.368z"/>
<path style="fill:#EBC9A0;" d="M507,148.365H5c-2.761,0-5-2.239-5-5V113.5c0-2.761,2.239-5,5-5h502c2.761,0,5,2.239,5,5v29.865
	C512,146.126,509.761,148.365,507,148.365z"/>
<path style="fill:#D7AF87;" d="M90,376.591v21.926c0,2.752-2.239,4.983-5,4.983H35c-2.761,0-5-2.231-5-4.983v-21.926
	c0-2.752,2.239-4.983,5-4.983h50C87.761,371.608,90,373.839,90,376.591z M477,371.608h-50c-2.761,0-5,2.231-5,4.983v21.926
	c0,2.752,2.239,4.983,5,4.983h50c2.761,0,5-2.231,5-4.983v-21.926C482,373.839,479.761,371.608,477,371.608z M507,108.5h-30
	c2.761,0,5,2.231,5,4.983v29.899c0,2.752-2.239,4.983-5,4.983h30c2.761,0,5-2.231,5-4.983v-29.899
	C512,110.731,509.761,108.5,507,108.5z"/>
<g>
</g>
<g>
</g>
<g>
</g>
<g>
</g>
<g>
</g>
<g>
</g>
<g>
</g>
<g>
</g>
<g>
</g>
<g>
</g>
<g>
</g>
<g>
</g>
<g>
</g>
<g>
</g>
<g>
</g>
</svg>
