<?xml version="1.0" encoding="iso-8859-1"?>
<!-- Generator: Adobe Illustrator 19.0.0, SVG Export Plug-In . SVG Version: 6.00 Build 0)  -->
<svg version="1.1" id="Capa_1" xmlns="http://www.w3.org/2000/svg" xmlns:xlink="http://www.w3.org/1999/xlink" x="0px" y="0px"
	 viewBox="0 0 512 512" style="enable-background:new 0 0 512 512;" xml:space="preserve">
<path style="fill:#D7AF87;" d="M387.793,230H124.207c-2.761,0-5-2.239-5-5V40c0-22.091,17.909-40,40-40h193.586
	c22.091,0,40,17.909,40,40v185C392.793,227.761,390.554,230,387.793,230z"/>
<path style="fill:#C49D7A;" d="M392.793,40v185c0,2.761-2.252,5-5.029,5h-30.175c2.778,0,5.029-2.239,5.029-5V40
	c0-22.091-18.013-40-40.233-40h30.175C374.78,0,392.793,17.909,392.793,40z"/>
<path style="fill:#FAEDE0;" d="M344.01,151.94H167.99V40.476c0-4.065,4.303-6.709,7.961-4.891l29.076,14.454
	c4.583,2.278,9.636,3.464,14.76,3.464h72.428c5.124,0,10.177-1.186,14.76-3.464l29.076-14.454c3.657-1.818,7.961,0.826,7.961,4.891
	V151.94H344.01z"/>
<path style="fill:#FEF0FF;" d="M226.668,119.999c-32.509-0.136-58.679-26.642-58.679-58.963v-20.56c0-4.065,4.303-6.709,7.961-4.891
	l29.076,14.454c4.583,2.278,9.636,3.464,14.76,3.464h72.428c5.124,0,10.177-1.186,14.76-3.464l18.537-9.215
	c1.571,4.564,2.406,9.307,2.406,14.177c0,35.898-45.033,65-100.583,65C227.112,120,226.89,120,226.668,119.999z"/>
<path style="fill:#E89A6A;" d="M397.319,335v172c0,2.761-2.252,5-5.029,5h-30.175c-2.778,0-5.029-2.239-5.029-5v-27H154.914v27
	c0,2.761-2.252,5-5.029,5H119.71c-2.778,0-5.029-2.239-5.029-5V335c0-2.761,2.252-5,5.029-5h29.169h1.006h212.23h1.006h29.169
	C395.068,330,397.319,332.239,397.319,335z"/>
<path style="fill:#D3754F;" d="M149.885,330h10.07c-2.778,0-5.029,2.239-5.029,5v145h-0.012v27c0,2.761-2.252,5-5.029,5H119.71
	c-2.778,0-5.029-2.239-5.029-5V335c0-2.761,2.252-5,5.029-5h29.169H149.885z M392.29,330h-29.169h-1.006h-10.07
	c2.778,0,5.029,2.239,5.029,5v145h0.012v27c0,2.761,2.252,5,5.029,5h30.175c2.778,0,5.029-2.239,5.029-5V335
	C397.319,332.239,395.068,330,392.29,330z"/>
<path style="fill:#F8DBB8;" d="M397.319,445H217.68c-14.996,0-29.967-1.232-44.759-3.683l-15.898-2.634
	c-14.792-2.451-29.762-3.683-44.759-3.683h2.416c-5.555,0-10.058-4.477-10.058-10v-60h302.755v70
	C407.378,440.523,402.874,445,397.319,445z"/>
<path style="fill:#EBC9A0;" d="M407.378,365v70c0,5.523-4.503,10-10.058,10h-36.713c5.555,0,10.058-4.477,10.058-10v-70H407.378z"/>
<path style="fill:#70B5E8;" d="M418.442,185v190c0,11.046-8.954,20-20,20H113.558c-11.046,0-20-8.954-20-20V185
	c0-27.614,22.386-50,50-50h224.884C396.056,135,418.442,157.386,418.442,185z"/>
<g>
	<path style="fill:#52A5D8;" d="M380.723,147.5c0,70.874-17.128,137.577-48.228,187.822c-16.133,26.064-35.075,46.174-55.791,59.678
		h-34.023c70.05-23.305,122.954-125.42,122.954-247.5c0-4.142,3.377-7.5,7.544-7.5C377.346,140,380.723,143.358,380.723,147.5z
		 M360.606,167.5c0-4.142-3.377-7.5-7.544-7.5s-7.544,3.358-7.544,7.5c0,33.376-21.547,65.208-62.311,92.054
		c-40.73,26.823-98.445,46.408-162.511,55.149c-4.127,0.563-7.014,4.346-6.449,8.45c0.519,3.758,3.753,6.481,7.464,6.481
		c0.342,0,0.688-0.023,1.035-0.071c66.266-9.041,126.211-29.462,168.792-57.504C336.723,242.303,360.606,206.147,360.606,167.5z"/>
	<path style="fill:#52A5D8;" d="M418.191,180c0.164,1.645,0.251,3.312,0.251,5v10v35v145c0,11.046-9.007,20-20.117,20h-34.701
		c11.11,0,20.117-8.954,20.117-20V270c0-22.091-18.013-40-40.233-40H93.558v-35c0-5.231,0.833-10.263,2.336-15H418.191z"/>
</g>
<path style="fill:#84C5FA;" d="M408.5,194.667h-305c-11.046,0-20-8.954-20-20V155c0-11.046,8.954-20,20-20h305
	c11.046,0,20,8.954,20,20v19.667C428.5,185.712,419.546,194.667,408.5,194.667z"/>
<path style="fill:#A2DAF9;" d="M373.682,194.667H103.617c-11.11,0-20.117-8.954-20.117-20V155c0-11.046,9.007-20,20.117-20h270.066
	c11.11,0,20.117,8.954,20.117,20v19.667C393.799,185.712,384.792,194.667,373.682,194.667z"/>
<g>
</g>
<g>
</g>
<g>
</g>
<g>
</g>
<g>
</g>
<g>
</g>
<g>
</g>
<g>
</g>
<g>
</g>
<g>
</g>
<g>
</g>
<g>
</g>
<g>
</g>
<g>
</g>
<g>
</g>
</svg>
