<?xml version="1.0" encoding="iso-8859-1"?>
<!-- Generator: Adobe Illustrator 19.0.0, SVG Export Plug-In . SVG Version: 6.00 Build 0)  -->
<svg version="1.1" id="Capa_1" xmlns="http://www.w3.org/2000/svg" xmlns:xlink="http://www.w3.org/1999/xlink" x="0px" y="0px"
	 viewBox="0 0 512 512" style="enable-background:new 0 0 512 512;" xml:space="preserve">
<path style="fill:#D3754F;" d="M146,43.536v52.689H66V43.536C66,37.993,70.477,33.5,76,33.5h60C141.523,33.5,146,37.993,146,43.536z
	 M286,33.5h-60c-5.523,0-10,4.493-10,10.036v52.689h80V43.536C296,37.993,291.523,33.5,286,33.5z M436,33.5h-60
	c-5.523,0-10,4.493-10,10.036v52.689h80V43.536C446,37.993,441.523,33.5,436,33.5z"/>
<path style="fill:#D5DCED;" d="M512,175.813v13.949H0v-13.949c0-2.771,2.239-5.018,5-5.018h61c-5.523,0-10-4.493-10-10.036V83.68
	c0-5.543,4.477-10.036,10-10.036h80c5.523,0,10,4.493,10,10.036v77.079c0,5.543-4.477,10.036-10,10.036h70
	c-5.523,0-10-4.493-10-10.036V83.68c0-5.543,4.477-10.036,10-10.036h80c5.523,0,10,4.493,10,10.036v77.079
	c0,5.543-4.477,10.036-10,10.036h70c-5.523,0-10-4.493-10-10.036V83.68c0-5.543,4.477-10.036,10-10.036h80
	c5.523,0,10,4.493,10,10.036v77.079c0,5.543-4.477,10.036-10,10.036h61C509.761,170.795,512,173.042,512,175.813z M507,408.248
	h-86.5c11.046,0,20-8.987,20-20.072v-65.234c0-2.771-2.239-5.018-5-5.018h-50c-2.761,0-5,2.247-5,5.018v65.234
	c0,11.086,8.954,20.072,20,20.072h-80c11.046,0,20-8.987,20-20.072v-65.234c0-2.771-2.239-5.018-5-5.018h-50
	c-2.761,0-5,2.247-5,5.018v65.234c0,11.086,8.954,20.072,20,20.072H179.219c24.853,0,45-20.22,45-45.162l0,0
	c0-2.771-2.239-5.018-5-5.018h-11.727c10.2-8.279,16.727-20.935,16.727-35.126l0,0c0-2.771-2.239-5.018-5-5.018H76.5
	c-2.761,0-5,2.247-5,5.018l0,0c0,14.191,6.527,26.847,16.727,35.126H76.5c-2.761,0-5,2.247-5,5.018l0,0
	c0,24.942,20.147,45.162,45,45.162H5c-2.761,0-5,2.247-5,5.018v17.362h512v-17.362C512,410.494,509.761,408.248,507,408.248z"/>
<path style="fill:#B7C0DC;" d="M125.003,160.759V83.68c0-5.543-4.477-10.036-10-10.036H146c5.523,0,10,4.493,10,10.036v77.079
	c0,5.543-4.477,10.036-10,10.036h-30.997C120.526,170.795,125.003,166.302,125.003,160.759z M219.219,358.067H76.5
	c-2.761,0-5,2.247-5,5.018l0,0c0,24.942,20.147,45.162,45,45.162h62.719c24.853,0,45-20.22,45-45.162l0,0
	C224.219,360.314,221.98,358.067,219.219,358.067z M435.5,317.923H405c2.761,0,5,2.247,5,5.018v65.234
	c0,9.259-6.255,17.032-14.75,19.35c1.676,0.457,3.43,0.722,5.25,0.722h20c11.046,0,20-8.987,20-20.072v-65.234
	C440.5,320.17,438.261,317.923,435.5,317.923z M335.5,317.923H305c2.761,0,5,2.247,5,5.018v65.234c0,9.259-6.255,17.032-14.75,19.35
	c1.676,0.457,3.43,0.722,5.25,0.722h20c11.046,0,20-8.987,20-20.072v-65.234C340.5,320.17,338.261,317.923,335.5,317.923z
	 M265.003,170.795H296c5.523,0,10-4.493,10-10.036V83.68c0-5.543-4.477-10.036-10-10.036h-30.997c5.523,0,10,4.493,10,10.036v77.079
	C275.003,166.302,270.526,170.795,265.003,170.795z M446,73.644h-30.997c5.523,0,10,4.493,10,10.036v77.079
	c0,5.543-4.477,10.036-10,10.036H446c5.523,0,10-4.493,10-10.036V83.68C456,78.138,451.523,73.644,446,73.644z"/>
<path style="fill:#D7AF87;" d="M77,423.302v50.18c0,2.771-2.239,5.018-5,5.018H50c-2.761,0-5-2.247-5-5.018v-50.18
	c0-2.771,2.239-5.018,5-5.018h22C74.761,418.284,77,420.53,77,423.302z M462,418.284h-22c-2.761,0-5,2.247-5,5.018v50.18
	c0,2.771,2.239,5.018,5,5.018h22c2.761,0,5-2.247,5-5.018v-50.18C467,420.53,464.761,418.284,462,418.284z M72,180.831H50
	c-2.761,0-5,2.247-5,5.018v50.18c0,2.771,2.239,5.018,5,5.018h22c2.761,0,5-2.247,5-5.018v-50.18
	C77,183.078,74.761,180.831,72,180.831z M462,180.831h-22c-2.761,0-5,2.247-5,5.018v50.18c0,2.771,2.239,5.018,5,5.018h22
	c2.761,0,5-2.247,5-5.018v-50.18C467,183.078,464.761,180.831,462,180.831z"/>
<path style="fill:#EBC9A0;" d="M512,413.266v30.108c0,2.771-2.239,5.018-5,5.018H5c-2.761,0-5-2.247-5-5.018v-30.108
	c0-2.771,2.239-5.018,5-5.018h502C509.761,408.248,512,410.494,512,413.266z M507,170.795H5c-2.761,0-5,2.247-5,5.018v30.108
	c0,2.771,2.239,5.018,5,5.018h502c2.761,0,5-2.247,5-5.018v-30.108C512,173.042,509.761,170.795,507,170.795z"/>
<path style="fill:#D7AF87;" d="M512,175.813v30.108c0,2.771-2.239,5.018-5,5.018h-30c2.761,0,5-2.247,5-5.018v-30.108
	c0-2.771-2.239-5.018-5-5.018h30C509.761,170.795,512,173.042,512,175.813z M507,408.248h-30c2.761,0,5,2.247,5,5.018v30.108
	c0,2.771-2.239,5.018-5,5.018h30c2.761,0,5-2.247,5-5.018v-30.108C512,410.494,509.761,408.248,507,408.248z"/>
<path style="fill:#FF5050;" d="M156,160.759c0,5.543-4.477,10.036-10,10.036H66c-5.523,0-10-4.493-10-10.036v-44.263
	c3.68-1.712,7.941-2.707,12.5-2.707c7.477,0,14.169,2.649,18.75,6.826c4.581-4.177,11.273-6.826,18.75-6.826
	s14.169,2.649,18.75,6.826c4.581-4.177,11.273-6.826,18.75-6.826c4.559,0,8.82,0.996,12.5,2.707V160.759z"/>
<path style="fill:#E95050;" d="M156,116.496v44.263c0,5.543-4.477,10.036-10,10.036h-30.997c5.523,0,10-4.493,10-10.036v-40.363
	c4.573-4.048,11.154-6.607,18.497-6.607C148.059,113.789,152.32,114.784,156,116.496z"/>
<path style="fill:#A0D755;" d="M306,160.759c0,5.543-4.477,10.036-10,10.036h-80c-5.523,0-10-4.493-10-10.036v-44.263
	c3.68-1.712,7.941-2.707,12.5-2.707c7.477,0,14.169,2.649,18.75,6.826c4.581-4.177,11.273-6.826,18.75-6.826
	c7.477,0,14.169,2.649,18.75,6.826c4.581-4.177,11.273-6.826,18.75-6.826c4.559,0,8.82,0.996,12.5,2.707V160.759z"/>
<path style="fill:#94C449;" d="M306,116.496v44.263c0,5.543-4.477,10.036-10,10.036h-30.997c5.523,0,10-4.493,10-10.036v-40.363
	c4.573-4.048,11.154-6.607,18.497-6.607C298.059,113.789,302.32,114.784,306,116.496z"/>
<path style="fill:#FFC850;" d="M456,160.759c0,5.543-4.477,10.036-10,10.036h-80c-5.523,0-10-4.493-10-10.036v-44.263
	c3.68-1.712,7.941-2.707,12.5-2.707c7.477,0,14.169,2.649,18.75,6.826c4.581-4.177,11.273-6.826,18.75-6.826
	s14.169,2.649,18.75,6.826c4.581-4.177,11.273-6.826,18.75-6.826c4.559,0,8.82,0.996,12.5,2.707V160.759z"/>
<path style="fill:#FFB446;" d="M456,116.496v44.263c0,5.543-4.477,10.036-10,10.036h-30.997c5.523,0,10-4.493,10-10.036v-40.363
	c4.573-4.048,11.154-6.607,18.497-6.607C448.059,113.789,452.32,114.784,456,116.496z"/>
<g>
</g>
<g>
</g>
<g>
</g>
<g>
</g>
<g>
</g>
<g>
</g>
<g>
</g>
<g>
</g>
<g>
</g>
<g>
</g>
<g>
</g>
<g>
</g>
<g>
</g>
<g>
</g>
<g>
</g>
</svg>
