<?xml version="1.0" encoding="iso-8859-1"?>
<!-- Generator: Adobe Illustrator 19.0.0, SVG Export Plug-In . SVG Version: 6.00 Build 0)  -->
<svg version="1.1" id="Capa_1" xmlns="http://www.w3.org/2000/svg" xmlns:xlink="http://www.w3.org/1999/xlink" x="0px" y="0px"
	 viewBox="0 0 512 512" style="enable-background:new 0 0 512 512;" xml:space="preserve">
<path style="fill:#EBC9A0;" d="M215,330H33c-2.761,0-5-2.239-5-5v-70c0-2.761,2.239-5,5-5h182c2.761,0,5,2.239,5,5v70
	C220,327.761,217.761,330,215,330z"/>
<path style="fill:#D7AF87;" d="M215,268H33c-2.761,0-5-2.239-5-5v-70c0-2.761,2.239-5,5-5h182c2.761,0,5,2.239,5,5v70
	C220,265.761,217.761,268,215,268z"/>
<path style="fill:#C49D7A;" d="M220,193v70c0,2.761-2.239,5-5,5h-38c2.761,0,5-2.239,5-5v-70c0-2.761-2.239-5-5-5h38
	C217.761,188,220,190.239,220,193z"/>
<path style="fill:#EBC9A0;" d="M215,208H33c-2.761,0-5-2.239-5-5v-70c0-2.761,2.239-5,5-5h182c2.761,0,5,2.239,5,5v70
	C220,205.761,217.761,208,215,208z"/>
<path style="fill:#D7AF87;" d="M220,133v70c0,2.761-2.239,5-5,5h-33v-5v-42.167V133c0-2.761-2.239-5-5-5h38
	C217.761,128,220,130.239,220,133z"/>
<path style="fill:#AFB9D2;" d="M450,5v60c0,2.761-2.239,5-5,5H341c-2.761,0-5-2.239-5-5V5c0-2.761,2.239-5,5-5h104
	C447.761,0,450,2.239,450,5z"/>
<path style="fill:#959CB5;" d="M450,5v60c0,2.761-2.239,5-5,5h-36c2.761,0,5-2.239,5-5V5c0-2.761-2.239-5-5-5h36
	C447.761,0,450,2.239,450,5z"/>
<path style="fill:#D7AF87;" d="M215,148H33c-2.761,0-5-2.239-5-5V73c0-2.761,2.239-5,5-5h182c2.761,0,5,2.239,5,5v70
	C220,145.761,217.761,148,215,148z"/>
<path style="fill:#C49D7A;" d="M220,73v75h-38v-5v-34.25V73c0-2.761-2.239-5-5-5h38C217.761,68,220,70.239,220,73z"/>
<path style="fill:#D7AF87;" d="M482,65v260c0,2.761-2.239,5-5,5h-30c-2.761,0-5-2.239-5-5V65c0-2.761,2.239-5,5-5h30
	C479.761,60,482,62.239,482,65z"/>
<path style="fill:#EBC9A0;" d="M507,88H5c-2.761,0-5-2.239-5-5V53c0-2.761,2.239-5,5-5h502c2.761,0,5,2.239,5,5v30
	C512,85.761,509.761,88,507,88z"/>
<path style="fill:#D7AF87;" d="M512,53v30c0,2.761-2.239,5-5,5h-30c2.761,0,5-2.239,5-5V53c0-2.761-2.239-5-5-5h30
	C509.761,48,512,50.239,512,53z"/>
<path style="fill:#57676E;" d="M146.738,300c0,4.142-3.358,7.5-7.5,7.5h-30.477c-4.142,0-7.5-3.358-7.5-7.5s3.358-7.5,7.5-7.5
	h30.477C143.38,292.5,146.738,295.858,146.738,300z M139.238,230.5h-30.477c-4.142,0-7.5,3.358-7.5,7.5s3.358,7.5,7.5,7.5h30.477
	c4.142,0,7.5-3.358,7.5-7.5S143.38,230.5,139.238,230.5z M139.238,170.5h-30.477c-4.142,0-7.5,3.358-7.5,7.5s3.358,7.5,7.5,7.5
	h30.477c4.142,0,7.5-3.358,7.5-7.5S143.38,170.5,139.238,170.5z M108.762,125.5h30.477c4.142,0,7.5-3.358,7.5-7.5
	s-3.358-7.5-7.5-7.5h-30.477c-4.142,0-7.5,3.358-7.5,7.5S104.62,125.5,108.762,125.5z"/>
<path style="fill:#EBC9A0;" d="M265.103,312.267l-53.639,196.56c-0.511,1.874-2.213,3.173-4.155,3.173h-20.342
	c-2.722,0-4.761-2.494-4.221-5.162l39.797-196.56c0.407-2.009,2.172-3.452,4.221-3.452h34.185
	C263.788,306.826,265.85,309.527,265.103,312.267z M369.255,506.838l-39.797-196.56c-0.407-2.009-2.172-3.452-4.221-3.452h-34.185
	c-2.84,0-4.903,2.701-4.155,5.441l53.639,196.56c0.511,1.874,2.213,3.173,4.155,3.173h20.342
	C367.755,512,369.795,509.506,369.255,506.838z"/>
<path style="fill:#FFB446;" d="M236.613,272.98V370h-54.887c-16.569,0-30-13.431-30-30v-67.02c0-16.569,13.431-30,30-30h24.887
	C223.181,242.98,236.613,256.412,236.613,272.98z M370.274,242.98h-21.275c-16.569,0-30,13.431-30,30V370h51.275
	c16.568,0,30-13.431,30-30v-67.02C400.274,256.412,386.843,242.98,370.274,242.98z"/>
<path style="fill:#FFDC64;" d="M348.967,370H203.033c-1.995,0-3.612-1.617-3.612-3.612V224.295
	c0-42.293,34.286-76.579,76.579-76.579l0,0c42.293,0,76.579,34.286,76.579,76.579v142.093C352.579,368.383,350.962,370,348.967,370z
	"/>
<path style="fill:#FFF082;" d="M199.421,340.29V224.295c0-42.293,34.286-76.579,76.579-76.579l0,0c1.347,0,2.686,0.037,4.016,0.105
	c25.379,12.473,42.852,38.57,42.852,68.758v63.711c0,33.137-26.863,60-60,60H199.421z"/>
<g>
</g>
<g>
</g>
<g>
</g>
<g>
</g>
<g>
</g>
<g>
</g>
<g>
</g>
<g>
</g>
<g>
</g>
<g>
</g>
<g>
</g>
<g>
</g>
<g>
</g>
<g>
</g>
<g>
</g>
</svg>
