<?xml version="1.0" encoding="iso-8859-1"?>
<!-- Generator: Adobe Illustrator 19.0.0, SVG Export Plug-In . SVG Version: 6.00 Build 0)  -->
<svg version="1.1" id="Capa_1" xmlns="http://www.w3.org/2000/svg" xmlns:xlink="http://www.w3.org/1999/xlink" x="0px" y="0px"
	 viewBox="0 0 512 512" style="enable-background:new 0 0 512 512;" xml:space="preserve">
<path style="fill:#FFF082;" d="M317,451c0,33.689-27.311,61-61,61s-61-27.311-61-61s27.311-61,61-61S317,417.311,317,451z"/>
<path style="fill:#F7A676;" d="M278.5,470c0,4.142-3.357,7.5-7.5,7.5h-30c-4.143,0-7.5-3.358-7.5-7.5s3.357-7.5,7.5-7.5h7.5V420
	c0-4.142,3.357-7.5,7.5-7.5s7.5,3.358,7.5,7.5v42.5h7.5C275.143,462.5,278.5,465.858,278.5,470z"/>
<path style="fill:#57676E;" d="M263.5,30v180c0,4.142-3.357,7.5-7.5,7.5s-7.5-3.358-7.5-7.5V30c0-4.142,3.357-7.5,7.5-7.5
	S263.5,25.858,263.5,30z"/>
<path style="fill:#959CB5;" d="M300,190v100c0,11.046-8.954,20-20,20h-50c-11.046,0-20-8.954-20-20V190c0-11.046,8.954-20,20-20h50
	C291.046,170,300,178.954,300,190z M305,0H205c-2.761,0-5,2.239-5,5v30c0,2.761,2.239,5,5,5h100c2.761,0,5-2.239,5-5V5
	C310,2.239,307.762,0,305,0z"/>
<path style="fill:#8A90A7;" d="M301,190v100c0,11.046-8.954,20-20,20h-24.75c11.046,0,20-8.954,20-20V190c0-11.046-8.954-20-20-20
	H281C292.046,170,301,178.954,301,190z M306,0h-25.333c2.761,0,5,2.239,5,5v30c0,2.761-2.239,5-5,5H306c2.761,0,5-2.239,5-5V5
	C311,2.239,308.762,0,306,0z"/>
<path style="fill:#AFB9D2;" d="M376,370v60c0,5.523-4.477,10-10,10H146c-5.523,0-10-4.477-10-10v-60c0-66.274,53.726-120,120-120
	l0,0C322.274,250,376,303.726,376,370z"/>
<path style="fill:#D5DCED;" d="M344,370v70H146c-5.523,0-10-4.477-10-10v-60c0-60.848,45.291-111.112,104-118.936
	C298.709,258.888,344,309.151,344,370z"/>
<g>
</g>
<g>
</g>
<g>
</g>
<g>
</g>
<g>
</g>
<g>
</g>
<g>
</g>
<g>
</g>
<g>
</g>
<g>
</g>
<g>
</g>
<g>
</g>
<g>
</g>
<g>
</g>
<g>
</g>
</svg>
