<?xml version="1.0" encoding="iso-8859-1"?>
<!-- Generator: Adobe Illustrator 19.0.0, SVG Export Plug-In . SVG Version: 6.00 Build 0)  -->
<svg version="1.1" id="Capa_1" xmlns="http://www.w3.org/2000/svg" xmlns:xlink="http://www.w3.org/1999/xlink" x="0px" y="0px"
	 viewBox="0 0 512 512" style="enable-background:new 0 0 512 512;" xml:space="preserve">
<path style="fill:#D7AF87;" d="M359.235,365v22c0,2.761-2.222,5-4.963,5H155.743c-2.741,0-4.963-2.239-4.963-5v-22
	c0-2.761,2.222-5,4.963-5h198.529C357.013,360,359.235,362.239,359.235,365z"/>
<path style="fill:#EBC9A0;" d="M151.772,38h59.559l-49.164,469.525c-0.266,2.544-2.396,4.475-4.936,4.475H127.28
	c-2.864,0-5.134-2.436-4.953-5.316L151.772,38z M389.673,506.684L360.228,38h-59.559l49.164,469.525
	c0.266,2.544,2.396,4.475,4.936,4.475h29.951C387.585,512,389.854,509.564,389.673,506.684z"/>
<path style="fill:#D7AF87;" d="M366.147,98H145.853c-2.761,0-5-2.239-5-5V53c0-2.761,2.239-5,5-5h220.294c2.761,0,5,2.239,5,5v40
	C371.147,95.761,368.908,98,366.147,98z"/>
<path style="fill:#C49D7A;" d="M371.147,53v40c0,2.761-2.222,5-4.963,5h-39.706c2.741,0,4.963-2.239,4.963-5V53
	c0-2.761-2.222-5-4.963-5h39.706C368.925,48,371.147,50.239,371.147,53z"/>
<path style="fill:#57676E;" d="M371,58H141c-11.046,0-20-8.954-20-20V20c0-11.046,8.954-20,20-20h230c11.046,0,20,8.954,20,20v18
	C391,49.046,382.046,58,371,58z"/>
<path style="fill:#6A808B;" d="M331.441,58H140.853C129.888,58,121,49.046,121,38V20c0-11.046,8.888-20,19.853-20h190.588
	c10.965,0,19.853,8.954,19.853,20v18C351.294,49.046,342.406,58,331.441,58z"/>
<g>
</g>
<g>
</g>
<g>
</g>
<g>
</g>
<g>
</g>
<g>
</g>
<g>
</g>
<g>
</g>
<g>
</g>
<g>
</g>
<g>
</g>
<g>
</g>
<g>
</g>
<g>
</g>
<g>
</g>
</svg>
