<?xml version="1.0" encoding="iso-8859-1"?>
<!-- Generator: Adobe Illustrator 19.0.0, SVG Export Plug-In . SVG Version: 6.00 Build 0)  -->
<svg version="1.1" id="Capa_1" xmlns="http://www.w3.org/2000/svg" xmlns:xlink="http://www.w3.org/1999/xlink" x="0px" y="0px"
	 viewBox="0 0 512 512" style="enable-background:new 0 0 512 512;" xml:space="preserve">
<path style="fill:#AFB9D2;" d="M397.258,38.622l-238.1,463.207c-2.376,4.624-6.832,7.496-11.651,8.066
	c-2.868,0.339-5.865-0.137-8.629-1.544c-7.41-3.773-10.343-12.811-6.552-20.186l238.1-463.207
	c3.791-7.375,12.872-10.294,20.28-6.521C398.116,22.209,401.049,31.248,397.258,38.622z"/>
<path style="fill:#D5DCED;" d="M373.122,508.351c-2.765,1.408-5.761,1.884-8.629,1.544c-4.819-0.57-9.275-3.442-11.651-8.066
	l-238.1-463.207c-3.791-7.375-0.858-16.413,6.552-20.186c7.409-3.772,16.489-0.854,20.28,6.521l238.1,463.207
	C383.465,495.54,380.532,504.578,373.122,508.351z"/>
<path style="fill:#959CB5;" d="M418.406,98H93.594c-2.761,0-5-2.239-5-5V53c0-2.761,2.239-5,5-5h324.812c2.761,0,5,2.239,5,5v40
	C423.406,95.761,421.168,98,418.406,98z"/>
<path style="fill:#8A90A7;" d="M418.406,98h-17.731V53c0-2.761,2.239-5,5-5h12.731c2.761,0,5,2.239,5,5v40
	C423.406,95.761,421.168,98,418.406,98z"/>
<path style="fill:#E95050;" d="M423.5,58h-335c-11.046,0-20-8.954-20-20V20c0-11.046,8.954-20,20-20h335c11.046,0,20,8.954,20,20v18
	C443.5,49.046,434.546,58,423.5,58z"/>
<path style="fill:#FF5050;" d="M390.628,38H68.5V20c0-11.046,8.996-20,20.094-20h322.128v18C410.722,29.046,401.726,38,390.628,38z"
	/>
<path style="fill:#57676E;" d="M183.412,500v7c0,2.761-2.249,5-5.023,5h-60.281c-2.774,0-5.023-2.239-5.023-5v-7
	c0-11.046,8.996-20,20.094-20h30.141C174.416,480,183.412,488.954,183.412,500z M378.822,480h-30.141
	c-11.097,0-20.094,8.954-20.094,20v7c0,2.761,2.249,5,5.023,5h60.281c2.774,0,5.023-2.239,5.023-5v-7
	C398.916,488.954,389.919,480,378.822,480z"/>
<path style="fill:#414D53;" d="M183.412,500v7c0,2.761-2.249,5-5.023,5h-25.117c2.774,0,5.023-2.239,5.023-5v-7
	c0-11.046-8.996-20-20.094-20h25.117C174.416,480,183.412,488.954,183.412,500z M378.822,480h-25.117
	c11.097,0,20.094,8.954,20.094,20v7c0,2.761-2.249,5-5.023,5h25.117c2.774,0,5.023-2.239,5.023-5v-7
	C398.916,488.954,389.919,480,378.822,480z M256,240c-16.646,0-30.141,13.432-30.141,30s13.494,30,30.141,30
	c16.646,0,30.141-13.432,30.141-30S272.646,240,256,240z"/>
<path style="fill:#57676E;" d="M262.028,270c0,12.301-7.441,22.867-18.084,27.497c-10.643-4.63-18.084-15.196-18.084-27.497
	s7.441-22.867,18.084-27.497C254.587,247.133,262.028,257.699,262.028,270z"/>
<g>
</g>
<g>
</g>
<g>
</g>
<g>
</g>
<g>
</g>
<g>
</g>
<g>
</g>
<g>
</g>
<g>
</g>
<g>
</g>
<g>
</g>
<g>
</g>
<g>
</g>
<g>
</g>
<g>
</g>
</svg>
