<?xml version="1.0" encoding="iso-8859-1"?>
<!-- Generator: Adobe Illustrator 19.0.0, SVG Export Plug-In . SVG Version: 6.00 Build 0)  -->
<svg version="1.1" id="Capa_1" xmlns="http://www.w3.org/2000/svg" xmlns:xlink="http://www.w3.org/1999/xlink" x="0px" y="0px"
	 viewBox="0 0 512 512" style="enable-background:new 0 0 512 512;" xml:space="preserve">
<path style="fill:#57676E;" d="M427.737,483v3c0,14.359-11.589,26-25.885,26h-2.987c-14.296,0-25.885-11.641-25.885-26v-3
	c0-14.359,11.589-26,25.885-26h2.987C416.148,457,427.737,468.641,427.737,483z M113.135,457h-2.987
	c-14.296,0-25.885,11.641-25.885,26v3c0,14.359,11.589,26,25.885,26h2.987c14.296,0,25.885-11.641,25.885-26v-3
	C139.02,468.641,127.431,457,113.135,457z"/>
<path style="fill:#AFB9D2;" d="M451,461.404H61c-2.761,0-5-2.239-5-5V25c0-2.761,2.239-5,5-5h390c2.761,0,5,2.239,5,5v431.404
	C456,459.165,453.761,461.404,451,461.404z"/>
<path style="fill:#A5AFD3;" d="M456,25v431.404c0,2.762-2.229,5-4.978,5h-54.867c2.749,0,4.978-2.238,4.978-5V25
	c0-2.761-2.229-5-4.978-5h54.867C453.771,20,456,22.239,456,25z"/>
<path style="fill:#D5DCED;" d="M56,154.78h400v101.085H56V154.78z"/>
<path style="fill:#B7C0DC;" d="M456,154.78v101.085h-54.867V154.78H456z"/>
<path style="fill:#959CB5;" d="M476,40H36c-2.761,0-5-2.239-5-5V5c0-2.761,2.239-5,5-5h440c2.761,0,5,2.239,5,5v30
	C481,37.761,478.761,40,476,40z"/>
<path style="fill:#737AA0;" d="M481,5v30c0,2.761-2.229,5-4.978,5h-34.845c2.749,0,4.978-2.239,4.978-5V5c0-2.761-2.229-5-4.978-5
	h34.845C478.771,0,481,2.239,481,5z"/>
<path style="fill:#8A90A7;" d="M295.212,292.17c0,4.142-3.343,7.5-7.467,7.5h-63.491c-4.124,0-7.467-3.358-7.467-7.5
	s3.343-7.5,7.467-7.5h63.491C291.87,284.67,295.212,288.028,295.212,292.17z M287.746,183.585h-63.491
	c-4.124,0-7.467,3.358-7.467,7.5s3.343,7.5,7.467,7.5h63.491c4.124,0,7.467-3.358,7.467-7.5S291.87,183.585,287.746,183.585z
	 M224.254,87.5h63.491c4.124,0,7.467-3.358,7.467-7.5s-3.343-7.5-7.467-7.5h-63.491c-4.124,0-7.467,3.358-7.467,7.5
	S220.13,87.5,224.254,87.5z"/>
<g>
</g>
<g>
</g>
<g>
</g>
<g>
</g>
<g>
</g>
<g>
</g>
<g>
</g>
<g>
</g>
<g>
</g>
<g>
</g>
<g>
</g>
<g>
</g>
<g>
</g>
<g>
</g>
<g>
</g>
</svg>
