<?xml version="1.0" encoding="iso-8859-1"?>
<!-- Generator: Adobe Illustrator 19.0.0, SVG Export Plug-In . SVG Version: 6.00 Build 0)  -->
<svg version="1.1" id="Capa_1" xmlns="http://www.w3.org/2000/svg" xmlns:xlink="http://www.w3.org/1999/xlink" x="0px" y="0px"
	 viewBox="0 0 512 512" style="enable-background:new 0 0 512 512;" xml:space="preserve">
<path style="fill:#FFB446;" d="M170,160c0,16.568-13.431,30-30,30c-15.386,0-28.059-11.584-29.791-26.505
	c-0.07,0-0.139,0.005-0.209,0.005c-16.569,0-30-13.432-30-30s13.431-30,30-30c15.386,0,28.059,11.584,29.791,26.505
	c0.07,0,0.139-0.005,0.209-0.005C156.569,130,170,143.432,170,160z"/>
<path style="fill:#FFDC64;" d="M200,133.5c0,16.569-13.431,30-30,30s-30-13.431-30-30s13.431-30,30-30S200,116.931,200,133.5z"/>
<path style="fill:#D5DCED;" d="M210,148.5L210,148.5c0,24.853-20.147,45-45,45v22.833h-50V193.5c-24.853,0-45-20.147-45-45l0,0
	c0-2.761,2.239-5,5-5h130C207.761,143.5,210,145.739,210,148.5z"/>
<path style="fill:#C84146;" d="M395.146,313.485c2.692,0.079,4.854,2.274,4.854,4.985v20c0,2.761-2.239,5-5,5H295
	c-2.761,0-5-2.239-5-5v-20c0-2.711,2.162-4.907,4.854-4.985c-2.693-0.079-4.854-2.274-4.854-4.985v-20c0-2.761,2.239-5,5-5h100
	c2.761,0,5,2.239,5,5v20C400,311.211,397.838,313.406,395.146,313.485z"/>
<path style="fill:#D3754F;" d="M477,353.5H35c-2.761,0-5-2.239-5-5v-30c0-2.761,2.239-5,5-5h442c2.761,0,5,2.239,5,5v30
	C482,351.261,479.761,353.5,477,353.5z"/>
<path style="fill:#B16F52;" d="M92,353.5H30v-40h62V353.5z"/>
<path style="fill:#F7A676;" d="M492,203.5v19.988V403.5c0,2.761-2.239,5-5,5h-30c-2.761,0-5-2.239-5-5V228.488H60V403.5
	c0,2.761-2.239,5-5,5H25c-2.761,0-5-2.239-5-5V223.488V203.5c0-2.761,2.239-5,5-5h462C489.761,198.5,492,200.739,492,203.5z"/>
<path style="fill:#D3754F;" d="M507,233.5H5c-2.761,0-5-2.239-5-5v-30c0-2.761,2.239-5,5-5h502c2.761,0,5,2.239,5,5v30
	C512,231.261,509.761,233.5,507,233.5z"/>
<path style="fill:#B16F52;" d="M512,198.5v30c0,2.761-2.239,5-5,5h-30c2.761,0,5-2.239,5-5v-30c0-2.761-2.239-5-5-5h30
	C509.761,193.5,512,195.739,512,198.5z"/>
<g>
</g>
<g>
</g>
<g>
</g>
<g>
</g>
<g>
</g>
<g>
</g>
<g>
</g>
<g>
</g>
<g>
</g>
<g>
</g>
<g>
</g>
<g>
</g>
<g>
</g>
<g>
</g>
<g>
</g>
</svg>
