<?xml version="1.0" encoding="iso-8859-1"?>
<!-- Generator: Adobe Illustrator 19.0.0, SVG Export Plug-In . SVG Version: 6.00 Build 0)  -->
<svg version="1.1" id="Capa_1" xmlns="http://www.w3.org/2000/svg" xmlns:xlink="http://www.w3.org/1999/xlink" x="0px" y="0px"
	 viewBox="0 0 512 512" style="enable-background:new 0 0 512 512;" xml:space="preserve">
<path style="fill:#8A90A7;" d="M459.5,20c0,37.22-30.28,67.5-67.5,67.5h-91h-90h-89c-37.22,0-67.5-30.28-67.5-67.5
	c0-4.143,3.358-7.5,7.5-7.5s7.5,3.357,7.5,7.5c0,28.948,23.551,52.5,52.5,52.5h46.639C153.32,60.116,143.5,41.187,143.5,20
	c0-4.143,3.358-7.5,7.5-7.5s7.5,3.357,7.5,7.5c0,28.948,23.551,52.5,52.5,52.5h90c28.949,0,52.5-23.552,52.5-52.5
	c0-4.143,3.358-7.5,7.5-7.5s7.5,3.357,7.5,7.5c0,21.187-9.82,40.116-25.139,52.5H392c28.949,0,52.5-23.552,52.5-52.5
	c0-4.143,3.358-7.5,7.5-7.5S459.5,15.857,459.5,20z M361,192.5c-4.142,0-7.5,3.357-7.5,7.5c0,28.948-23.551,52.5-52.5,52.5h-90
	c-28.949,0-52.5-23.552-52.5-52.5c0-4.143-3.358-7.5-7.5-7.5s-7.5,3.357-7.5,7.5c0,37.22,30.28,67.5,67.5,67.5h90
	c37.22,0,67.5-30.28,67.5-67.5C368.5,195.857,365.142,192.5,361,192.5z"/>
<path style="fill:#959CB5;" d="M272,5v502c0,2.761-2.239,5-5,5h-20c-2.761,0-5-2.239-5-5V5c0-2.761,2.239-5,5-5h20
	C269.761,0,272,2.239,272,5z"/>
<path style="fill:#8A90A7;" d="M272,5v502c0,2.761-2.239,5-5,5h-6c-2.761,0-5-2.239-5-5V5c0-2.761,2.239-5,5-5h6
	C269.761,0,272,2.239,272,5z"/>
<path style="fill:#414D53;" d="M343,485v22c0,2.761-2.239,5-5,5h-70h-22h-70c-2.761,0-5-2.239-5-5v-22c0-2.761,2.239-5,5-5h65v-45
	c0-2.761,2.239-5,5-5h22c2.761,0,5,2.239,5,5v45h65C340.761,480,343,482.239,343,485z"/>
<path style="fill:#57676E;" d="M175.327,20.833c0,11.506-9.327,20.833-20.833,20.833s-20.833-9.327-20.833-20.833
	C133.661,9.327,142.988,0,154.494,0S175.327,9.327,175.327,20.833z M61.833,0C50.327,0,41,9.327,41,20.833
	s9.327,20.833,20.833,20.833s20.833-9.327,20.833-20.833C82.667,9.327,73.339,0,61.833,0z M450.167,0
	c-11.506,0-20.833,9.327-20.833,20.833s9.327,20.833,20.833,20.833S471,32.339,471,20.833S461.673,0,450.167,0z M359.506,0
	C348,0,338.673,9.327,338.673,20.833S348,41.666,359.506,41.666s20.833-9.327,20.833-20.833C380.339,9.327,371.012,0,359.506,0z
	 M154.494,180c-11.506,0-20.833,9.327-20.833,20.833c0,11.506,9.327,20.833,20.833,20.833s20.833-9.327,20.833-20.833
	C175.327,189.327,166,180,154.494,180z M359.506,180c-11.506,0-20.833,9.327-20.833,20.833c0,11.506,9.327,20.833,20.833,20.833
	s20.833-9.327,20.833-20.833C380.339,189.327,371.012,180,359.506,180z"/>
<g>
</g>
<g>
</g>
<g>
</g>
<g>
</g>
<g>
</g>
<g>
</g>
<g>
</g>
<g>
</g>
<g>
</g>
<g>
</g>
<g>
</g>
<g>
</g>
<g>
</g>
<g>
</g>
<g>
</g>
</svg>
