<?xml version="1.0" encoding="iso-8859-1"?>
<!-- Generator: Adobe Illustrator 19.0.0, SVG Export Plug-In . SVG Version: 6.00 Build 0)  -->
<svg version="1.1" id="Capa_1" xmlns="http://www.w3.org/2000/svg" xmlns:xlink="http://www.w3.org/1999/xlink" x="0px" y="0px"
	 viewBox="0 0 512 512" style="enable-background:new 0 0 512 512;" xml:space="preserve">
<path style="fill:#57676E;" d="M100.869,486.877L100.869,486.877c0,13.875-11.221,25.123-25.063,25.123h-4.744
	C57.221,512,46,500.752,46,486.878l0,0c0-13.875,11.221-25.122,25.063-25.122h4.744C89.649,461.755,100.869,473.003,100.869,486.877
	z M440.062,460h-2.993c-14.325,0-25.938,11.641-25.938,26l0,0c0,14.359,11.613,26,25.938,26h2.993C454.387,512,466,500.359,466,486
	l0,0C466,471.641,454.387,460,440.062,460z"/>
<path style="fill:#8A90A7;" d="M398.66,0H113.34C87.21,0,65.952,21.309,65.952,47.5v440c0,4.143,3.349,7.5,7.482,7.5
	s7.482-3.357,7.482-7.5V95h194.537v15c0,4.143,3.35,7.5,7.482,7.5s7.482-3.357,7.482-7.5V95h74.822v15c0,4.143,3.35,7.5,7.482,7.5
	s7.482-3.357,7.482-7.5V95h50.879v392.5c0,4.143,3.349,7.5,7.482,7.5s7.482-3.357,7.482-7.5v-440C446.048,21.309,424.79,0,398.66,0z
	 M380.205,80V70c0-4.143-3.35-7.5-7.482-7.5s-7.482,3.357-7.482,7.5v10h-74.822V70c0-4.143-3.35-7.5-7.482-7.5
	s-7.482,3.357-7.482,7.5v10H80.917V47.5c0-17.921,14.544-32.5,32.423-32.5h285.32c17.878,0,32.423,14.579,32.423,32.5V80H380.205z"
	/>
<path style="fill:#959CB5;" d="M454.515,420H57.485c-2.761,0-5-2.239-5-5v-30c0-2.761,2.239-5,5-5h397.031c2.761,0,5,2.239,5,5v30
	C459.515,417.761,457.277,420,454.515,420z"/>
<path style="fill:#AFB9D2;" d="M257.995,325V130c0-11.046,8.933-20,19.953-20h9.976c11.019,0,19.953,8.954,19.953,20v195
	c0,2.761-2.233,5-4.988,5h-39.905C260.228,330,257.995,327.761,257.995,325z M352.77,330h39.905c2.755,0,4.988-2.239,4.988-5V130
	c0-11.046-8.933-20-19.953-20h-9.976c-11.019,0-19.953,8.954-19.953,20v195C347.781,327.761,350.015,330,352.77,330z M414.622,380
	H57.473c-2.755,0-4.988,2.239-4.988,5v30c0,2.761,2.233,5,4.988,5h357.15c2.755,0,4.988-2.239,4.988-5v-30
	C419.61,382.239,417.377,380,414.622,380z"/>
<path style="fill:#FF9476;" d="M112.795,120h95.864v8.736v72.414v61.149v43.678c0,13.246-10.751,24.023-23.966,24.023h-47.932
	c-13.214,0-23.966-10.777-23.966-24.023v-43.678V201.15v-72.414L112.795,120L112.795,120z"/>
<path style="fill:#FFAF91;" d="M146.238,330h-9.477c-13.215,0-23.966-10.777-23.966-24.023v-43.678V201.15v-72.414V120h57.409v8.735
	v72.414v61.149v43.678C170.204,319.223,159.453,330,146.238,330z"/>
<path style="fill:#57676E;" d="M397.663,150v175c0,2.761-2.233,5-4.988,5H352.77c-2.755,0-4.988-2.239-4.988-5V150H397.663z
	 M168.209,160h-14.964c-8.265,0-14.964,6.716-14.964,15s6.7,15,14.964,15h14.964c8.264,0,14.964-6.716,14.964-15
	S176.474,160,168.209,160z"/>
<path style="fill:#FF5050;" d="M307.876,150v175c0,2.761-2.233,5-4.988,5h-39.905c-2.755,0-4.988-2.239-4.988-5V150H307.876z
	 M168.209,230h-14.964c-8.265,0-14.964,6.716-14.964,15s6.7,15,14.964,15h14.964c8.264,0,14.964-6.716,14.964-15
	S176.474,230,168.209,230z"/>
<path style="fill:#FF8269;" d="M208.114,62.5c-4.133,0-7.482,3.357-7.482,7.5v42.5h-79.81V70c0-4.143-3.349-7.5-7.482-7.5
	s-7.482,3.357-7.482,7.5v50v10v60v70v50c0,15.163,12.308,27.5,27.435,27.5h54.869c15.127,0,27.435-12.337,27.435-27.5v-50v-70v-60
	v-10V70C215.596,65.857,212.247,62.5,208.114,62.5z M200.632,310c0,6.893-5.594,12.5-12.47,12.5h-54.869
	c-6.876,0-12.47-5.607-12.47-12.5v-42.5h79.81L200.632,310L200.632,310z M200.632,252.5h-79.81v-55h79.81V252.5z M200.632,130v52.5
	h-79.81V130v-2.5h79.81V130z"/>
<g>
</g>
<g>
</g>
<g>
</g>
<g>
</g>
<g>
</g>
<g>
</g>
<g>
</g>
<g>
</g>
<g>
</g>
<g>
</g>
<g>
</g>
<g>
</g>
<g>
</g>
<g>
</g>
<g>
</g>
</svg>
