<?xml version="1.0" encoding="iso-8859-1"?>
<!-- Generator: Adobe Illustrator 19.0.0, SVG Export Plug-In . SVG Version: 6.00 Build 0)  -->
<svg version="1.1" id="Capa_1" xmlns="http://www.w3.org/2000/svg" xmlns:xlink="http://www.w3.org/1999/xlink" x="0px" y="0px"
	 viewBox="0 0 512 512" style="enable-background:new 0 0 512 512;" xml:space="preserve">
<path style="fill:#FFF082;" d="M45,93.5c0,4.143-3.357,7.5-7.5,7.5h-30C3.357,101,0,97.643,0,93.5S3.357,86,7.5,86h30
	C41.643,86,45,89.357,45,93.5z M37.5,411h-30c-4.143,0-7.5,3.357-7.5,7.5s3.357,7.5,7.5,7.5h30c4.143,0,7.5-3.357,7.5-7.5
	S41.643,411,37.5,411z M37.5,374.889h-30c-4.143,0-7.5,3.357-7.5,7.5s3.357,7.5,7.5,7.5h30c4.143,0,7.5-3.357,7.5-7.5
	S41.643,374.889,37.5,374.889z M37.5,338.778h-30c-4.143,0-7.5,3.357-7.5,7.5s3.357,7.5,7.5,7.5h30c4.143,0,7.5-3.357,7.5-7.5
	S41.643,338.778,37.5,338.778z M37.5,302.667h-30c-4.143,0-7.5,3.357-7.5,7.5s3.357,7.5,7.5,7.5h30c4.143,0,7.5-3.357,7.5-7.5
	S41.643,302.667,37.5,302.667z M37.5,266.556h-30c-4.143,0-7.5,3.357-7.5,7.5s3.357,7.5,7.5,7.5h30c4.143,0,7.5-3.357,7.5-7.5
	S41.643,266.556,37.5,266.556z M37.5,230.445h-30c-4.143,0-7.5,3.357-7.5,7.5s3.357,7.5,7.5,7.5h30c4.143,0,7.5-3.357,7.5-7.5
	S41.643,230.445,37.5,230.445z M37.5,194.333h-30c-4.143,0-7.5,3.357-7.5,7.5s3.357,7.5,7.5,7.5h30c4.143,0,7.5-3.357,7.5-7.5
	S41.643,194.333,37.5,194.333z M37.5,158.222h-30c-4.143,0-7.5,3.357-7.5,7.5s3.357,7.5,7.5,7.5h30c4.143,0,7.5-3.357,7.5-7.5
	S41.643,158.222,37.5,158.222z M37.5,122.111h-30c-4.143,0-7.5,3.357-7.5,7.5c0,4.143,3.357,7.5,7.5,7.5h30
	c4.143,0,7.5-3.357,7.5-7.5C45,125.468,41.643,122.111,37.5,122.111z M474.5,101h30c4.143,0,7.5-3.357,7.5-7.5s-3.357-7.5-7.5-7.5
	h-30c-4.143,0-7.5,3.357-7.5,7.5S470.357,101,474.5,101z M504.5,411h-30c-4.143,0-7.5,3.357-7.5,7.5s3.357,7.5,7.5,7.5h30
	c4.143,0,7.5-3.357,7.5-7.5S508.643,411,504.5,411z M504.5,374.889h-30c-4.143,0-7.5,3.357-7.5,7.5s3.357,7.5,7.5,7.5h30
	c4.143,0,7.5-3.357,7.5-7.5S508.643,374.889,504.5,374.889z M504.5,338.778h-30c-4.143,0-7.5,3.357-7.5,7.5s3.357,7.5,7.5,7.5h30
	c4.143,0,7.5-3.357,7.5-7.5S508.643,338.778,504.5,338.778z M504.5,302.667h-30c-4.143,0-7.5,3.357-7.5,7.5s3.357,7.5,7.5,7.5h30
	c4.143,0,7.5-3.357,7.5-7.5S508.643,302.667,504.5,302.667z M504.5,266.556h-30c-4.143,0-7.5,3.357-7.5,7.5s3.357,7.5,7.5,7.5h30
	c4.143,0,7.5-3.357,7.5-7.5S508.643,266.556,504.5,266.556z M504.5,230.445h-30c-4.143,0-7.5,3.357-7.5,7.5s3.357,7.5,7.5,7.5h30
	c4.143,0,7.5-3.357,7.5-7.5S508.643,230.445,504.5,230.445z M504.5,194.333h-30c-4.143,0-7.5,3.357-7.5,7.5s3.357,7.5,7.5,7.5h30
	c4.143,0,7.5-3.357,7.5-7.5S508.643,194.333,504.5,194.333z M504.5,158.222h-30c-4.143,0-7.5,3.357-7.5,7.5s3.357,7.5,7.5,7.5h30
	c4.143,0,7.5-3.357,7.5-7.5S508.643,158.222,504.5,158.222z M504.5,122.111h-30c-4.143,0-7.5,3.357-7.5,7.5
	c0,4.143,3.357,7.5,7.5,7.5h30c4.143,0,7.5-3.357,7.5-7.5C512,125.468,508.643,122.111,504.5,122.111z"/>
<path style="fill:#FFB446;" d="M482,426H30V86h452V426z"/>
<path style="fill:#FF9541;" d="M482,426h-22V86h22V426z"/>
<path style="fill:#FFC850;" d="M442,386H70V126h372V386z"/>
<path style="fill:#FFDC64;" d="M138.912,126c1.35,4.77,2.088,9.798,2.088,15c0,30.376-24.624,55-55,55
	c-5.566,0-10.936-0.834-16-2.372V126H138.912z M373.088,126c-1.35,4.77-2.088,9.798-2.088,15c0,30.376,24.624,55,55,55
	c5.566,0,10.936-0.834,16-2.372V126H373.088z M86,316c-5.566,0-10.936,0.834-16,2.372V386h68.912c1.35-4.77,2.088-9.798,2.088-15
	C141,340.624,116.376,316,86,316z M371,371c0,5.202,0.738,10.23,2.088,15H442v-67.628c-5.064-1.538-10.434-2.372-16-2.372
	C395.624,316,371,340.624,371,371z"/>
<path style="fill:#FFF082;" d="M336,256c0,19.33-15.67,35-35,35c-1.792,0-3.552-0.136-5.272-0.396
	C293.444,310.526,276.533,326,256,326s-37.444-15.474-39.728-35.396c-1.72,0.26-3.48,0.396-5.272,0.396c-19.33,0-35-15.67-35-35
	s15.67-35,35-35c1.792,0,3.552,0.136,5.272,0.396C218.556,201.474,235.467,186,256,186s37.444,15.474,39.728,35.396
	c1.72-0.26,3.48-0.396,5.272-0.396C320.33,221,336,236.67,336,256z M121,236c-11.046,0-20,8.954-20,20c0,11.046,8.954,20,20,20
	s20-8.954,20-20C141,244.954,132.046,236,121,236z M391,236c-11.046,0-20,8.954-20,20c0,11.046,8.954,20,20,20s20-8.954,20-20
	C411,244.954,402.046,236,391,236z"/>
<path style="fill:#FFDC64;" d="M281,256c0,13.807-11.193,25-25,25s-25-11.193-25-25s11.193-25,25-25S281,242.193,281,256z"/>
<g>
</g>
<g>
</g>
<g>
</g>
<g>
</g>
<g>
</g>
<g>
</g>
<g>
</g>
<g>
</g>
<g>
</g>
<g>
</g>
<g>
</g>
<g>
</g>
<g>
</g>
<g>
</g>
<g>
</g>
</svg>
