<?xml version="1.0" encoding="iso-8859-1"?>
<!-- Generator: Adobe Illustrator 19.0.0, SVG Export Plug-In . SVG Version: 6.00 Build 0)  -->
<svg version="1.1" id="Capa_1" xmlns="http://www.w3.org/2000/svg" xmlns:xlink="http://www.w3.org/1999/xlink" x="0px" y="0px"
	 viewBox="0 0 512 512" style="enable-background:new 0 0 512 512;" xml:space="preserve">
<path style="fill:#F7A676;" d="M492,182.999v36.777c0,2.761-2.239,5-5,5H25c-2.761,0-5-2.239-5-5v-36.777c0-2.761,2.239-5,5-5h462
	C489.761,177.999,492,180.237,492,182.999z M487,390H25c-2.761,0-5,2.239-5,5v80c0,2.761,2.239,5,5,5h462c2.761,0,5-2.239,5-5v-80
	C492,392.239,489.761,390,487,390z"/>
<path style="fill:#E89A6A;" d="M492,177.999v46.777h-52v-46.777H492z M440,480h52v-90h-52V480z"/>
<path style="fill:#D3754F;" d="M40,5v502c0,2.761-2.239,5-5,5H5c-2.761,0-5-2.239-5-5V5c0-2.761,2.239-5,5-5h30
	C37.761,0,40,2.239,40,5z M507,0h-30c-2.761,0-5,2.239-5,5v502c0,2.761,2.239,5,5,5h30c2.761,0,5-2.239,5-5V5
	C512,2.239,509.761,0,507,0z"/>
<path style="fill:#A2DAF9;" d="M430,390.217H282.502V278.753c0-4.065,4.278-6.71,7.914-4.891l28.907,14.454
	c4.556,2.278,9.58,3.464,14.674,3.464h44.506c5.094,0,10.118-1.186,14.674-3.464l28.907-14.454c3.636-1.818,7.914,0.826,7.914,4.891
	v111.464H430z"/>
<path style="fill:#BAF6FF;" d="M324.536,343.276c-23.297-0.088-42.033-19.243-42.033-42.54v-21.983c0-4.065,4.278-6.709,7.914-4.891
	l28.907,14.454c4.556,2.278,9.58,3.464,14.674,3.464h44.506c5.094,0,10.118-1.186,14.674-3.464l16.688-8.344
	c0.084,1.095,0.134,2.196,0.134,3.306c0,33.137-38.056,60-85,60C324.845,343.277,324.69,343.277,324.536,343.276z"/>
<path style="fill:#FF9476;" d="M430,166.94H282.502V55.476c0-4.065,4.278-6.709,7.914-4.891l28.907,14.454
	c4.556,2.278,9.58,3.464,14.674,3.464h44.506c5.094,0,10.118-1.186,14.674-3.464l28.907-14.454c3.636-1.818,7.914,0.826,7.914,4.891
	V166.94H430z"/>
<path style="fill:#FF5050;" d="M462,198H50c-11.046,0-20-8.954-20-20v-18c0-11.046,8.954-20,20-20h412c11.046,0,20,8.954,20,20v18
	C482,189.046,473.046,198,462,198z"/>
<path style="fill:#E95050;" d="M482,160v18c0,11.046-8.954,20-20,20h-32c11.046,0,20-8.954,20-20v-18c0-11.046-8.954-20-20-20h32
	C473.046,140,482,148.954,482,160z"/>
<path style="fill:#70B5E8;" d="M482,380v18c0,11.046-8.954,20-20,20H201.5v13.5H103V418H50c-11.046,0-20-8.954-20-20v-18
	c0-11.046,8.954-20,20-20h412C473.046,360,482,368.954,482,380z"/>
<path style="fill:#52A5D8;" d="M482,380v18c0,11.046-8.954,20-20,20h-32c11.046,0,20-8.954,20-20v-18c0-11.046-8.954-20-20-20h32
	C473.046,360,482,368.954,482,380z"/>
<path style="fill:#924A36;" d="M215,70h-20c-2.761,0-5,2.239-5,5v45h-75V75c0-2.761-2.239-5-5-5H90c-2.761,0-5,2.239-5,5v432
	c0,2.761,2.239,5,5,5h20c2.761,0,5-2.239,5-5v-57h75v57c0,2.761,2.239,5,5,5h20c2.761,0,5-2.239,5-5V75
	C220,72.239,217.761,70,215,70z M190,420h-75v-45h75V420z M190,345h-75v-45h75V345z M190,270h-75v-45h75V270z M190,195h-75v-45h75
	V195z"/>
<path style="fill:#FFAF91;" d="M324.536,119.999c-23.297-0.088-42.033-19.243-42.033-42.54V55.476c0-4.065,4.278-6.709,7.914-4.891
	l28.907,14.454c4.556,2.278,9.58,3.464,14.674,3.464h44.506c5.094,0,10.118-1.186,14.674-3.464l16.688-8.344
	C409.95,57.789,410,58.89,410,60c0,33.137-38.056,60-85,60C324.845,120,324.69,120,324.536,119.999z"/>
<g>
</g>
<g>
</g>
<g>
</g>
<g>
</g>
<g>
</g>
<g>
</g>
<g>
</g>
<g>
</g>
<g>
</g>
<g>
</g>
<g>
</g>
<g>
</g>
<g>
</g>
<g>
</g>
<g>
</g>
</svg>
