<?xml version="1.0" encoding="iso-8859-1"?>
<!-- Generator: Adobe Illustrator 19.0.0, SVG Export Plug-In . SVG Version: 6.00 Build 0)  -->
<svg version="1.1" id="Capa_1" xmlns="http://www.w3.org/2000/svg" xmlns:xlink="http://www.w3.org/1999/xlink" x="0px" y="0px"
	 viewBox="0 0 512 512" style="enable-background:new 0 0 512 512;" xml:space="preserve">
<path style="fill:#FF5050;" d="M512,287.576L512,287.576C512,350.218,461.218,401,398.576,401H113.424
	C50.782,401,0,350.218,0,287.576v-63.152C0,161.782,50.782,111,113.424,111l0,0c77.201,0,153.885,12.587,227.035,37.265
	l94.374,31.838C480.95,195.661,512,238.906,512,287.576z"/>
<path style="fill:#E95050;" d="M510.079,266.872c1.254,6.744,1.921,13.665,1.921,20.704l0,0C512,350.218,461.218,401,398.576,401
	H113.424c-47.736,0-88.576-29.492-105.313-71.247C29.544,348.516,58.229,360,89.767,360h302.077
	C450.865,360,499.944,319.829,510.079,266.872z"/>
<path style="fill:#FF8269;" d="M88.215,113.816c8.108-1.84,16.544-2.816,25.208-2.816l0,0c77.201,0,153.886,12.587,227.036,37.265
	l94.373,31.838c16.263,5.487,30.649,14.418,42.461,25.817c13.351,12.884,3.384,35.595-15.13,34.376
	c-0.133-0.009-0.266-0.018-0.399-0.027C175,220.5,99.5,191.5,88.215,113.816z"/>
<g>
</g>
<g>
</g>
<g>
</g>
<g>
</g>
<g>
</g>
<g>
</g>
<g>
</g>
<g>
</g>
<g>
</g>
<g>
</g>
<g>
</g>
<g>
</g>
<g>
</g>
<g>
</g>
<g>
</g>
</svg>
