<?xml version="1.0" encoding="iso-8859-1"?>
<!-- Generator: Adobe Illustrator 19.0.0, SVG Export Plug-In . SVG Version: 6.00 Build 0)  -->
<svg version="1.1" id="Layer_1" xmlns="http://www.w3.org/2000/svg" xmlns:xlink="http://www.w3.org/1999/xlink" x="0px" y="0px"
	 viewBox="0 0 512 512" style="enable-background:new 0 0 512 512;" xml:space="preserve">
<path style="fill:#BFA993;" d="M121.905,36.571c-40.396,0-73.143,32.747-73.143,73.143V243.81h414.476V109.714
	c0-40.396-32.747-73.143-73.143-73.143H121.905z"/>
<path style="fill:#B29A7E;" d="M463.238,109.714c0-40.396-32.747-73.143-73.143-73.143H256V243.81h207.238V109.714z"/>
<rect y="231.619" style="fill:#B4D8F1;" width="512" height="97.524"/>
<rect x="256" y="231.619" style="fill:#98C8ED;" width="256" height="97.524"/>
<polygon style="fill:#BFA993;" points="0,316.952 0,475.429 36.571,475.429 36.571,353.524 475.429,353.524 475.429,475.429 
	512,475.429 512,316.952 "/>
<rect x="146.286" y="109.714" style="fill:#F8F8F9;" width="219.429" height="121.905"/>
<rect x="256" y="109.714" style="fill:#EDEDED;" width="109.714" height="121.905"/>
<polygon style="fill:#B29A7E;" points="256,316.952 256,353.524 475.429,353.524 475.429,475.429 512,475.429 512,316.952 "/>
<g>
</g>
<g>
</g>
<g>
</g>
<g>
</g>
<g>
</g>
<g>
</g>
<g>
</g>
<g>
</g>
<g>
</g>
<g>
</g>
<g>
</g>
<g>
</g>
<g>
</g>
<g>
</g>
<g>
</g>
</svg>
