<?xml version="1.0" encoding="iso-8859-1"?>
<!-- Generator: Adobe Illustrator 19.0.0, SVG Export Plug-In . SVG Version: 6.00 Build 0)  -->
<svg version="1.1" id="Layer_1" xmlns="http://www.w3.org/2000/svg" xmlns:xlink="http://www.w3.org/1999/xlink" x="0px" y="0px"
	 viewBox="0 0 512 512" style="enable-background:new 0 0 512 512;" xml:space="preserve">
<rect x="17.861" y="74.418" style="fill:#A58868;" width="476.28" height="333.396"/>
<rect x="256.001" y="74.418" style="fill:#947859;" width="238.14" height="333.396"/>
<rect x="65.489" y="288.744" style="fill:#B4D8F1;" width="35.721" height="71.442"/>
<rect x="119.07" y="288.744" style="fill:#80CB93;" width="35.721" height="71.442"/>
<rect x="172.652" y="288.744" style="fill:#E02753;" width="35.721" height="71.442"/>
<rect x="226.233" y="288.744" style="fill:#EFC27B;" width="35.721" height="71.442"/>
<rect x="279.815" y="324.465" style="fill:#61AAE4;" width="71.442" height="35.721"/>
<rect x="410.792" y="122.046" style="fill:#95D5A7;" width="35.721" height="71.442"/>
<rect x="357.21" y="122.046" style="fill:#98C8ED;" width="35.721" height="71.442"/>
<rect x="303.629" y="122.046" style="fill:#DC4161;" width="35.721" height="71.442"/>
<rect x="214.326" y="157.767" style="fill:#95D5A7;" width="71.442" height="35.721"/>
<path style="fill:#BFA993;" d="M512,56.558H0v369.117h71.442v29.768h35.721v-29.768h297.675v29.768h35.721v-29.768H512V56.558z
	 M476.279,92.277v130.977H35.721V92.277C35.721,92.277,476.279,92.277,476.279,92.277z M35.721,389.954V258.977h440.558v130.977
	H35.721z"/>
<polygon style="fill:#B29A7E;" points="256.001,56.558 256.001,92.277 476.279,92.277 476.279,223.255 256.001,223.255 
	256.001,258.976 476.279,258.976 476.279,389.954 256.001,389.954 256.001,425.675 404.838,425.675 404.838,455.442 
	440.559,455.442 440.559,425.675 512,425.675 512,56.558 "/>
<g>
</g>
<g>
</g>
<g>
</g>
<g>
</g>
<g>
</g>
<g>
</g>
<g>
</g>
<g>
</g>
<g>
</g>
<g>
</g>
<g>
</g>
<g>
</g>
<g>
</g>
<g>
</g>
<g>
</g>
</svg>
