<?xml version="1.0" encoding="iso-8859-1"?>
<!-- Generator: Adobe Illustrator 19.0.0, SVG Export Plug-In . SVG Version: 6.00 Build 0)  -->
<svg version="1.1" id="Layer_1" xmlns="http://www.w3.org/2000/svg" xmlns:xlink="http://www.w3.org/1999/xlink" x="0px" y="0px"
	 viewBox="0 0 512 512" style="enable-background:new 0 0 512 512;" xml:space="preserve">
<rect x="39.822" y="102.4" style="fill:#B4D8F1;" width="432.356" height="91.022"/>
<rect x="39.822" y="375.467" style="fill:#95D5A7;" width="432.356" height="91.022"/>
<rect x="256" y="102.4" style="fill:#98C8ED;" width="216.178" height="91.022"/>
<rect x="256" y="375.467" style="fill:#80CB93;" width="216.178" height="91.022"/>
<g>
	<path style="fill:#EDEDED;" d="M56.889,307.2c0-18.851,15.283-34.133,34.133-34.133c37.704,0,68.267,30.564,68.267,68.267
		c0,18.851-15.283,34.133-34.133,34.133H91.022c-18.851,0-34.133-15.283-34.133-34.133V307.2z"/>
	<path style="fill:#EDEDED;" d="M125.156,102.4c18.851,0,34.133-15.283,34.133-34.133C159.289,30.564,128.726,0,91.022,0
		C72.172,0,56.889,15.283,56.889,34.133v34.133c0,18.851,15.283,34.133,34.133,34.133H125.156z"/>
</g>
<g>
	<rect x="22.756" y="56.889" style="fill:#BFA993;" width="34.133" height="455.111"/>
	<path style="fill:#BFA993;" d="M455.111,56.889v28.444h-102.4V56.889h-34.133V512h34.133v-28.444h102.4V512h34.133V56.889H455.111z
		 M455.111,119.467v56.889h-102.4v-56.889H455.111z M352.711,267.378v-56.889h102.4v56.889H352.711z M455.111,301.511V358.4h-102.4
		v-56.889H455.111z M352.711,449.422v-56.889h102.4v56.889H352.711z"/>
</g>
<g>
</g>
<g>
</g>
<g>
</g>
<g>
</g>
<g>
</g>
<g>
</g>
<g>
</g>
<g>
</g>
<g>
</g>
<g>
</g>
<g>
</g>
<g>
</g>
<g>
</g>
<g>
</g>
<g>
</g>
</svg>
