<?xml version="1.0" encoding="iso-8859-1"?>
<!-- Generator: Adobe Illustrator 19.0.0, SVG Export Plug-In . SVG Version: 6.00 Build 0)  -->
<svg version="1.1" id="Layer_1" xmlns="http://www.w3.org/2000/svg" xmlns:xlink="http://www.w3.org/1999/xlink" x="0px" y="0px"
	 viewBox="0 0 512 512" style="enable-background:new 0 0 512 512;" xml:space="preserve">
<path style="fill:#95D5A7;" d="M377.905,207.241c0-67.326-54.579-121.905-121.905-121.905c-67.327,0-121.905,54.579-121.905,121.905
	v85.332h243.81V207.241z"/>
<path style="fill:#80CB93;" d="M377.905,207.239c0-67.326-54.579-121.905-121.905-121.905V292.57h121.905V207.239z"/>
<polygon style="fill:#ECB45C;" points="121.905,512 390.096,512 414.477,341.338 97.524,341.338 "/>
<polygon style="fill:#E9A440;" points="414.477,341.333 256.001,341.333 256.001,511.996 390.096,511.996 "/>
<rect x="85.334" y="280.393" style="fill:#EFC27B;" width="341.333" height="73.139"/>
<rect x="256.001" y="280.381" style="fill:#ECB45C;" width="170.667" height="73.139"/>
<g>
	<rect x="414.477" y="188.952" style="fill:#FBF4CC;" width="48.762" height="36.571"/>
	
		<rect x="396.07" y="91.421" transform="matrix(-0.5 -0.866 0.866 -0.5 521.2506 532.5427)" style="fill:#FBF4CC;" width="36.571" height="48.761"/>
	
		<rect x="329.144" y="24.499" transform="matrix(-0.866 -0.5 0.5 -0.866 623.8691 264.9288)" style="fill:#FBF4CC;" width="36.571" height="48.761"/>
	<rect x="237.715" style="fill:#FBF4CC;" width="36.571" height="48.762"/>
	
		<rect x="140.196" y="30.598" transform="matrix(-0.5 -0.866 0.866 -0.5 204.5318 215.8524)" style="fill:#FBF4CC;" width="48.761" height="36.571"/>
	
		<rect x="73.263" y="97.517" transform="matrix(-0.866 -0.5 0.5 -0.866 124.3028 264.9121)" style="fill:#FBF4CC;" width="48.761" height="36.571"/>
	<rect x="48.761" y="188.952" style="fill:#FBF4CC;" width="48.762" height="36.571"/>
</g>
<g>
</g>
<g>
</g>
<g>
</g>
<g>
</g>
<g>
</g>
<g>
</g>
<g>
</g>
<g>
</g>
<g>
</g>
<g>
</g>
<g>
</g>
<g>
</g>
<g>
</g>
<g>
</g>
<g>
</g>
</svg>
