<?xml version="1.0" encoding="iso-8859-1"?>
<!-- Generator: Adobe Illustrator 19.0.0, SVG Export Plug-In . SVG Version: 6.00 Build 0)  -->
<svg version="1.1" id="Layer_1" xmlns="http://www.w3.org/2000/svg" xmlns:xlink="http://www.w3.org/1999/xlink" x="0px" y="0px"
	 viewBox="0 0 512 512" style="enable-background:new 0 0 512 512;" xml:space="preserve">
<polygon style="fill:#D8D8DA;" points="115.2,64 38.4,64 38.4,25.6 0,25.6 0,179.2 38.4,179.2 38.4,140.8 115.2,140.8 "/>
<g>
	<path style="fill:#F8F8F9;" d="M204.8,460.8c0,28.278-22.922,51.2-51.2,51.2l0,0c-28.278,0-51.2-22.922-51.2-51.2V51.2
		c0-28.278,22.922-51.2,51.2-51.2l0,0c28.278,0,51.2,22.922,51.2,51.2V460.8z"/>
	<path style="fill:#F8F8F9;" d="M307.2,460.8c0,28.278-22.922,51.2-51.2,51.2l0,0c-28.278,0-51.2-22.922-51.2-51.2V51.2
		C204.8,22.922,227.722,0,256,0l0,0c28.278,0,51.2,22.922,51.2,51.2V460.8z"/>
	<path style="fill:#F8F8F9;" d="M409.6,460.8c0,28.278-22.922,51.2-51.2,51.2l0,0c-28.278,0-51.2-22.922-51.2-51.2V51.2
		c0-28.278,22.922-51.2,51.2-51.2l0,0c28.278,0,51.2,22.922,51.2,51.2V460.8z"/>
	<path style="fill:#F8F8F9;" d="M512,460.8c0,28.278-22.922,51.2-51.2,51.2l0,0c-28.278,0-51.2-22.922-51.2-51.2V51.2
		c0-28.278,22.922-51.2,51.2-51.2l0,0C489.078,0,512,22.922,512,51.2V460.8z"/>
</g>
<g>
	<path style="fill:#EDEDED;" d="M153.6,0v512c28.278,0,51.2-22.922,51.2-51.2V51.2C204.8,22.922,181.878,0,153.6,0z"/>
	<path style="fill:#EDEDED;" d="M256,0v512c28.278,0,51.2-22.922,51.2-51.2V51.2C307.2,22.922,284.278,0,256,0z"/>
	<path style="fill:#EDEDED;" d="M358.4,0v512c28.278,0,51.2-22.922,51.2-51.2V51.2C409.6,22.922,386.678,0,358.4,0z"/>
	<path style="fill:#EDEDED;" d="M460.8,0v512c28.278,0,51.2-22.922,51.2-51.2V51.2C512,22.922,489.078,0,460.8,0z"/>
</g>
<polygon style="fill:#88888F;" points="38.4,25.6 0,25.6 0,179.2 38.4,179.2 38.4,140.8 38.4,64 "/>
<g>
</g>
<g>
</g>
<g>
</g>
<g>
</g>
<g>
</g>
<g>
</g>
<g>
</g>
<g>
</g>
<g>
</g>
<g>
</g>
<g>
</g>
<g>
</g>
<g>
</g>
<g>
</g>
<g>
</g>
</svg>
