<?xml version="1.0" encoding="iso-8859-1"?>
<!-- Generator: Adobe Illustrator 19.0.0, SVG Export Plug-In . SVG Version: 6.00 Build 0)  -->
<svg version="1.1" id="Layer_1" xmlns="http://www.w3.org/2000/svg" xmlns:xlink="http://www.w3.org/1999/xlink" x="0px" y="0px"
	 viewBox="0 0 512 512" style="enable-background:new 0 0 512 512;" xml:space="preserve">
<path style="fill:#88888F;" d="M406.04,199.148c-12.194,0-23.502,3.828-32.814,10.33L236.981,73.234l-27.088,27.088L350.711,241.14
	c-1.38,4.925-2.134,10.111-2.134,15.471c0,8.859,2.019,17.258,5.616,24.76L187.76,447.804l27.088,27.088l166.433-166.433
	c7.502,3.596,15.899,5.616,24.76,5.616c31.686,0,57.463-25.778,57.463-57.463S437.726,199.148,406.04,199.148z M406.04,275.765
	c-10.562,0-19.154-8.593-19.154-19.154c0-10.562,8.593-19.154,19.154-19.154c10.563,0,19.154,8.593,19.154,19.154
	C425.194,267.173,416.603,275.765,406.04,275.765z"/>
<g>
	<path style="fill:#EFC27B;" d="M252.809,116.289l33.043-44.055L213.618,0l-44.057,33.041
		c-37.927-9.554-79.776,0.498-109.443,30.164l162.528,162.53C252.315,196.066,262.364,154.218,252.809,116.289z"/>
	<path style="fill:#EFC27B;" d="M48.496,512c0-42.314,34.303-76.617,76.617-76.617h204.311c42.314,0,76.617,34.303,76.617,76.617
		H48.496z"/>
</g>
<g>
	<path style="fill:#E9A440;" d="M329.423,435.383H227.267V512H406.04C406.04,469.686,371.737,435.383,329.423,435.383z"/>
	<path style="fill:#E9A440;" d="M252.55,116.549l33.042-44.055l-36.177-36.177L141.061,144.67l81.326,81.324
		C252.054,196.326,262.104,154.478,252.55,116.549z"/>
</g>
<g>
</g>
<g>
</g>
<g>
</g>
<g>
</g>
<g>
</g>
<g>
</g>
<g>
</g>
<g>
</g>
<g>
</g>
<g>
</g>
<g>
</g>
<g>
</g>
<g>
</g>
<g>
</g>
<g>
</g>
</svg>
