<?xml version="1.0" encoding="iso-8859-1"?>
<!-- Generator: Adobe Illustrator 19.0.0, SVG Export Plug-In . SVG Version: 6.00 Build 0)  -->
<svg version="1.1" id="Layer_1" xmlns="http://www.w3.org/2000/svg" xmlns:xlink="http://www.w3.org/1999/xlink" x="0px" y="0px"
	 viewBox="0 0 512 512" style="enable-background:new 0 0 512 512;" xml:space="preserve">
<g>
	<polygon style="fill:#88888F;" points="273.455,197.818 238.545,197.818 238.545,442.182 162.909,442.182 162.909,512 349.091,512 
		349.091,442.182 273.455,442.182 	"/>
	<path style="fill:#88888F;" d="M384,279.057v-81.239h-34.909v81.239c-3.61,4.101-5.818,9.463-5.818,15.343
		c0,12.833,10.44,23.273,23.273,23.273s23.273-10.44,23.273-23.273C389.818,288.52,387.61,283.159,384,279.057z"/>
</g>
<rect x="273.455" y="442.182" style="fill:#797781;" width="75.636" height="69.818"/>
<polygon style="fill:#F8F8F9;" points="372.364,0 139.636,0 116.364,209.455 395.636,209.455 "/>
<polygon style="fill:#EDEDED;" points="372.364,0 256,0 256,209.455 395.636,209.455 "/>
<g>
</g>
<g>
</g>
<g>
</g>
<g>
</g>
<g>
</g>
<g>
</g>
<g>
</g>
<g>
</g>
<g>
</g>
<g>
</g>
<g>
</g>
<g>
</g>
<g>
</g>
<g>
</g>
<g>
</g>
</svg>
