<?xml version="1.0" encoding="iso-8859-1"?>
<!-- Generator: Adobe Illustrator 19.0.0, SVG Export Plug-In . SVG Version: 6.00 Build 0)  -->
<svg version="1.1" id="Layer_1" xmlns="http://www.w3.org/2000/svg" xmlns:xlink="http://www.w3.org/1999/xlink" x="0px" y="0px"
	 viewBox="0 0 512.001 512.001" style="enable-background:new 0 0 512.001 512.001;" xml:space="preserve">
<rect y="38.4" style="fill:#F8F8F9;" width="512.001" height="384.001"/>
<rect x="256.001" y="38.4" style="fill:#EDEDED;" width="256.001" height="384.001"/>
<g>
	<rect x="57.6" y="422.401" style="fill:#C6C5CA;" width="38.4" height="51.2"/>
	<rect x="416.001" y="422.401" style="fill:#C6C5CA;" width="38.4" height="51.2"/>
</g>
<rect x="76.799" y="115.199" style="fill:#797781;" width="256.001" height="230.401"/>
<g>
	<rect x="384.001" y="95.999" style="fill:#C6C5CA;" width="76.8" height="38.4"/>
	<path style="fill:#C6C5CA;" d="M422.4,223.999c-14.116,0-25.6-11.484-25.6-25.6s11.484-25.6,25.6-25.6
		c14.116,0,25.6,11.484,25.6,25.6C448,212.516,436.516,223.999,422.4,223.999z"/>
</g>
<g>
	<path style="fill:#E17858;" d="M179.199,281.599h-38.4c0-14.934,6.41-23.48,10.24-28.588c2.536-3.382,2.56-3.434,2.56-5.548
		c0-2.113-0.024-2.166-2.56-5.548c-3.83-5.107-10.24-13.654-10.24-28.588c0-14.933,6.41-23.48,10.24-28.586
		c2.536-3.38,2.56-3.432,2.56-5.544h38.4c0,14.933-6.41,23.48-10.24,28.586c-2.536,3.38-2.56,3.432-2.56,5.544
		c0,2.113,0.024,2.166,2.56,5.548c3.83,5.107,10.24,13.654,10.24,28.588c0,14.934-6.41,23.48-10.24,28.588
		C179.223,279.434,179.199,279.486,179.199,281.599z"/>
	<path style="fill:#E17858;" d="M255.999,281.599h-38.4c0-14.934,6.41-23.48,10.24-28.588c2.536-3.382,2.56-3.434,2.56-5.548
		c0-2.113-0.024-2.166-2.56-5.548c-3.83-5.107-10.24-13.654-10.24-28.588c0-14.933,6.41-23.48,10.24-28.586
		c2.536-3.38,2.56-3.432,2.56-5.544h38.4c0,14.933-6.41,23.48-10.24,28.586c-2.536,3.38-2.56,3.432-2.56,5.544
		c0,2.113,0.024,2.166,2.56,5.548c3.83,5.107,10.24,13.654,10.24,28.588c0,14.934-6.41,23.48-10.24,28.588
		C256.024,279.434,255.999,279.486,255.999,281.599z"/>
</g>
<g>
</g>
<g>
</g>
<g>
</g>
<g>
</g>
<g>
</g>
<g>
</g>
<g>
</g>
<g>
</g>
<g>
</g>
<g>
</g>
<g>
</g>
<g>
</g>
<g>
</g>
<g>
</g>
<g>
</g>
</svg>
