<?xml version="1.0" encoding="iso-8859-1"?>
<!-- Generator: Adobe Illustrator 19.0.0, SVG Export Plug-In . SVG Version: 6.00 Build 0)  -->
<svg version="1.1" id="Layer_1" xmlns="http://www.w3.org/2000/svg" xmlns:xlink="http://www.w3.org/1999/xlink" x="0px" y="0px"
	 viewBox="0 0 512 512" style="enable-background:new 0 0 512 512;" xml:space="preserve">
<polygon style="fill:#BFA993;" points="273.655,476.69 273.655,400.184 238.345,400.184 238.345,476.69 185.379,476.69 185.379,512 
	326.621,512 326.621,476.69 "/>
<ellipse style="fill:#F8F8F9;" cx="256" cy="205.977" rx="188.322" ry="205.977"/>
<path style="fill:#EDEDED;" d="M256,0v411.954c104.008,0,188.322-92.219,188.322-205.977S360.008,0,256,0z"/>
<ellipse style="fill:#D1E5F5;" cx="256" cy="205.977" rx="117.701" ry="135.356"/>
<path style="fill:#B4D8F1;" d="M167.183,294.794c21.578,28.513,53.367,46.539,88.817,46.539c65.004,0,117.701-60.6,117.701-135.356
	c0-33.987-10.894-65.046-28.884-88.817L167.183,294.794z"/>
<g>
	
		<rect x="208.922" y="109.97" transform="matrix(-0.7071 -0.7071 0.7071 -0.7071 261.9479 461.6091)" style="fill:#FFFFFF;" width="35.309" height="133.166"/>
	
		<rect x="267.773" y="168.821" transform="matrix(-0.7071 -0.7071 0.7071 -0.7071 320.7985 603.687)" style="fill:#FFFFFF;" width="35.309" height="133.166"/>
</g>
<rect x="273.655" y="476.69" style="fill:#B29A7E;" width="52.966" height="35.31"/>
<g>
</g>
<g>
</g>
<g>
</g>
<g>
</g>
<g>
</g>
<g>
</g>
<g>
</g>
<g>
</g>
<g>
</g>
<g>
</g>
<g>
</g>
<g>
</g>
<g>
</g>
<g>
</g>
<g>
</g>
</svg>
