<?xml version="1.0" encoding="iso-8859-1"?>
<!-- Generator: Adobe Illustrator 19.0.0, SVG Export Plug-In . SVG Version: 6.00 Build 0)  -->
<svg version="1.1" id="Layer_1" xmlns="http://www.w3.org/2000/svg" xmlns:xlink="http://www.w3.org/1999/xlink" x="0px" y="0px"
	 viewBox="0 0 512 512" style="enable-background:new 0 0 512 512;" xml:space="preserve">
<rect style="fill:#F8F8F9;" width="512" height="512"/>
<rect x="256" style="fill:#EDEDED;" width="256" height="512"/>
<rect y="114.526" style="fill:#D8D8DA;" width="512" height="40.421"/>
<rect x="256" y="114.526" style="fill:#C6C5CA;" width="256" height="40.421"/>
<g>
	<path style="fill:#D8D8DA;" d="M141.474,94.316c-14.859,0-26.947-12.089-26.947-26.947s12.089-26.947,26.947-26.947
		s26.947,12.089,26.947,26.947S156.332,94.316,141.474,94.316z"/>
	<path style="fill:#D8D8DA;" d="M256,94.316c-14.859,0-26.947-12.089-26.947-26.947S241.141,40.421,256,40.421
		c14.859,0,26.947,12.089,26.947,26.947S270.859,94.316,256,94.316z"/>
	<path style="fill:#D8D8DA;" d="M370.526,94.316c-14.859,0-26.947-12.089-26.947-26.947s12.089-26.947,26.947-26.947
		s26.947,12.089,26.947,26.947S385.385,94.316,370.526,94.316z"/>
</g>
<rect x="80.842" y="215.579" style="fill:#797781;" width="350.316" height="215.579"/>
<g>
	<path style="fill:#E17858;" d="M269.474,377.263h-40.421c0-15.72,6.748-24.716,10.779-30.092c2.669-3.56,2.695-3.615,2.695-5.84
		s-0.026-2.28-2.695-5.84c-4.031-5.376-10.779-14.372-10.779-30.092c0-15.718,6.748-24.716,10.779-30.091
		c2.669-3.558,2.695-3.612,2.695-5.835h40.421c0,15.718-6.748,24.716-10.78,30.091c-2.669,3.558-2.693,3.612-2.693,5.835
		c0,2.225,0.026,2.28,2.695,5.84c4.031,5.376,10.779,14.372,10.779,30.092c0,15.72-6.748,24.716-10.779,30.092
		C269.499,374.983,269.474,375.039,269.474,377.263z"/>
	<path style="fill:#E17858;" d="M350.316,377.263h-40.421c0-15.72,6.748-24.716,10.779-30.092c2.669-3.56,2.695-3.615,2.695-5.84
		s-0.026-2.28-2.695-5.84c-4.031-5.376-10.779-14.372-10.779-30.092c0-15.718,6.748-24.716,10.779-30.091
		c2.669-3.558,2.695-3.612,2.695-5.835h40.421c0,15.718-6.748,24.716-10.78,30.091c-2.669,3.558-2.693,3.612-2.693,5.835
		c0,2.225,0.026,2.28,2.695,5.84c4.031,5.376,10.779,14.372,10.779,30.092c0,15.72-6.748,24.716-10.779,30.092
		C350.341,374.983,350.316,375.039,350.316,377.263z"/>
	<path style="fill:#E17858;" d="M188.632,377.263h-40.421c0-15.72,6.748-24.716,10.779-30.092c2.669-3.56,2.695-3.615,2.695-5.84
		s-0.026-2.28-2.695-5.84c-4.031-5.376-10.779-14.372-10.779-30.092c0-15.718,6.748-24.716,10.779-30.091
		c2.669-3.558,2.695-3.612,2.695-5.835h40.421c0,15.718-6.748,24.716-10.78,30.091c-2.669,3.558-2.693,3.612-2.693,5.835
		c0,2.225,0.026,2.28,2.695,5.84c4.031,5.376,10.779,14.372,10.779,30.092c0,15.72-6.748,24.716-10.779,30.092
		C188.657,374.983,188.632,375.039,188.632,377.263z"/>
</g>
<g>
</g>
<g>
</g>
<g>
</g>
<g>
</g>
<g>
</g>
<g>
</g>
<g>
</g>
<g>
</g>
<g>
</g>
<g>
</g>
<g>
</g>
<g>
</g>
<g>
</g>
<g>
</g>
<g>
</g>
</svg>
