<?xml version="1.0" encoding="iso-8859-1"?>
<!-- Generator: Adobe Illustrator 19.0.0, SVG Export Plug-In . SVG Version: 6.00 Build 0)  -->
<svg version="1.1" id="Layer_1" xmlns="http://www.w3.org/2000/svg" xmlns:xlink="http://www.w3.org/1999/xlink" x="0px" y="0px"
	 viewBox="0 0 512 512" style="enable-background:new 0 0 512 512;" xml:space="preserve">
<g>
	
		<rect x="162.341" y="6.425" transform="matrix(-0.7071 -0.7071 0.7071 -0.7071 229.637 319.8981)" style="fill:#EBE4DD;" width="37.462" height="211.929"/>
	
		<rect x="224.971" y="93.664" transform="matrix(-0.7071 -0.7071 0.7071 -0.7071 485.4659 425.8762)" style="fill:#EBE4DD;" width="211.928" height="37.462"/>
</g>
<rect x="6.244" y="162.341" style="fill:#BFA993;" width="499.512" height="349.659"/>
<rect x="256" y="162.341" style="fill:#B29A7E;" width="249.756" height="349.659"/>
<rect x="81.171" y="237.268" style="fill:#D1E5F5;" width="349.659" height="199.805"/>
<rect x="256" y="237.268" style="fill:#B4D8F1;" width="174.829" height="199.805"/>
<circle style="fill:#88888F;" cx="256" cy="37.463" r="37.463"/>
<circle style="fill:#FBF4CC;" cx="343.415" cy="312.195" r="37.463"/>
<path style="fill:#95D5A7;" d="M430.829,437.073c0-55.175-156.547-99.902-349.659-99.902v99.902H430.829z"/>
<path style="fill:#80CB93;" d="M256.001,350.539v86.534h174.829C430.829,400.097,360.51,367.813,256.001,350.539z"/>
<g>
</g>
<g>
</g>
<g>
</g>
<g>
</g>
<g>
</g>
<g>
</g>
<g>
</g>
<g>
</g>
<g>
</g>
<g>
</g>
<g>
</g>
<g>
</g>
<g>
</g>
<g>
</g>
<g>
</g>
</svg>
